<svg id="Layer_1" data-name="Layer 1" xmlns="http://www.w3.org/2000/svg" xmlns:xlink="http://www.w3.org/1999/xlink" viewBox="0 0 130 50"><defs><style>.cls-1{fill:#fff;}.cls-2{fill:url(#linear-gradient);}.cls-3{fill:#030303;}.cls-4{fill:#fcfdff;}.cls-5{fill:#422f2a;}.cls-6{fill:#705257;}.cls-7{fill:url(#linear-gradient-2);}</style><linearGradient id="linear-gradient" x1="109.43" y1="2.09" x2="103.84" y2="54.04" gradientTransform="translate(0.47 10.11)" gradientUnits="userSpaceOnUse"><stop offset="0" stop-color="#4a240d"/><stop offset="0.64" stop-color="#9b6a33"/></linearGradient><linearGradient id="linear-gradient-2" x1="28.34" y1="-6.3" x2="22.74" y2="45.65" gradientTransform="translate(-0.65 16.79) rotate(-3.54)" xlink:href="#linear-gradient"/></defs><path class="cls-1" d="M85.57,37.94s-.47-7.63,7.94-20c4.19-6.16,10.65-9.34,16.73-8.18,7.92,1.5,11.9,11.55,14.5,18.11a17.5,17.5,0,0,1,1.17,4.64,15.85,15.85,0,0,1-.51,6c-2.08,6.22-14.85,7.36-15.81,7.43C98.14,46.87,89.17,40.74,85.57,37.94Z"/><ellipse class="cls-2" cx="107.82" cy="31.5" rx="11.67" ry="12.7" transform="translate(-1.74 6.72) rotate(-3.54)"/><ellipse class="cls-3" cx="107.9" cy="32.83" rx="6.96" ry="6.32" transform="translate(-1.82 6.73) rotate(-3.54)"/><ellipse class="cls-4" cx="103.12" cy="28.99" rx="3.07" ry="2.65" transform="translate(-1.59 6.43) rotate(-3.54)"/><path class="cls-5" d="M89.39,27.3a29.62,29.62,0,0,1,4.82-14.49,17.2,17.2,0,0,1,6-5.41,14.11,14.11,0,0,1,8.13-1.53,16.55,16.55,0,0,1,7.59,3,21.69,21.69,0,0,1,5.47,5.76,28.34,28.34,0,0,1,4.48,14.58,39,39,0,0,0-6.45-13.16,21.9,21.9,0,0,0-5.16-4.75A14.08,14.08,0,0,0,108,9,11.38,11.38,0,0,0,101.49,10a16.21,16.21,0,0,0-5.36,4.27,30.12,30.12,0,0,0-3.9,6.09A68.65,68.65,0,0,0,89.39,27.3Z"/><path class="cls-6" d="M85.57,37.94s-.47-7.63,7.94-20c4.19-6.16,10.65-9.34,16.73-8.18,7.92,1.5,11.9,11.55,14.5,18.11a17.5,17.5,0,0,1,1.17,4.64,15.85,15.85,0,0,1-.51,6s-7.54-15.72-17.05-16.48C93.35,20.84,85.57,37.94,85.57,37.94Z"/><path class="cls-1" d="M28.13,42.6c-11.45.91-20.42-5.22-24-8,0,0-.47-7.62,8-20C16.25,8.4,22.71,5.23,28.78,6.38,36.7,7.89,40.68,17.93,43.29,24.5a17.37,17.37,0,0,1,1.16,4.63,16,16,0,0,1-.5,6c-2.08,6.22-14.86,7.35-15.82,7.43"/><path class="cls-7" d="M27.15,40.81c-6.43.4-12-5-12.43-12s4.43-13,10.86-13.39,12,5,12.43,12-4.43,13-10.86,13.39"/><ellipse class="cls-3" cx="26.45" cy="29.47" rx="6.96" ry="6.32" transform="translate(-1.77 1.69) rotate(-3.54)"/><ellipse class="cls-4" cx="21.58" cy="23.63" rx="3.07" ry="2.65" transform="translate(-1.42 1.38) rotate(-3.54)"/><path class="cls-5" d="M7.93,23.93A29.46,29.46,0,0,1,12.76,9.45a17.14,17.14,0,0,1,6-5.42,14.07,14.07,0,0,1,8.12-1.52,16.6,16.6,0,0,1,7.59,3,21.73,21.73,0,0,1,5.47,5.77A28.25,28.25,0,0,1,44.4,25.87,39.1,39.1,0,0,0,38,12.72,21.94,21.94,0,0,0,32.78,8,14.11,14.11,0,0,0,26.5,5.59,11.46,11.46,0,0,0,20,6.66a16.45,16.45,0,0,0-5.37,4.26A30.52,30.52,0,0,0,10.78,17,67.35,67.35,0,0,0,7.93,23.93Z"/><path class="cls-6" d="M44,35s3.19-8.35-5.58-20.88C34.13,8.06,28.14,5,21.28,6.38,13.36,7.94,9.19,18,6.53,24.58c-1.21,3-1.72,4.38-1.88,4.89-.78,2.53-.73,5.37-.46,5.16,0,0,9.46-15.18,19-15.94C38.17,17.48,44,35,44,35Z"/></svg>