<svg id="Layer_1" data-name="Layer 1" xmlns="http://www.w3.org/2000/svg" xmlns:xlink="http://www.w3.org/1999/xlink" viewBox="0 0 130 50"><defs><style>.cls-1{fill:#fff;}.cls-2{fill:url(#linear-gradient);}.cls-3{fill:url(#linear-gradient-2);}.cls-4{fill:#030303;}.cls-5{fill:#fcfdff;}.cls-6{fill:#422f2a;}</style><linearGradient id="linear-gradient" x1="28.12" y1="-15.01" x2="22.52" y2="36.94" gradientTransform="translate(-0.15 24.44)" gradientUnits="userSpaceOnUse"><stop offset="0" stop-color="#4a240d"/><stop offset="0.64" stop-color="#9b6a33"/></linearGradient><linearGradient id="linear-gradient-2" x1="107.83" y1="-6.03" x2="102.23" y2="45.92" gradientTransform="translate(0.26 19.5)" xlink:href="#linear-gradient"/></defs><path class="cls-1" d="M3.64,35.17s-.47-7.63,8-20C15.78,9,22.24,5.82,28.31,7c7.92,1.5,11.9,11.55,14.51,18.11A17.32,17.32,0,0,1,44,29.73a15.9,15.9,0,0,1-.5,6C41.4,42,28.62,43.12,27.66,43.19,16.21,44.1,7.24,38,3.64,35.17Z"/><path class="cls-1" d="M85.94,37.18s-.47-7.63,7.94-20C98.07,11,104.53,7.83,110.61,9c7.92,1.5,11.9,11.55,14.5,18.11a17.5,17.5,0,0,1,1.17,4.64,15.85,15.85,0,0,1-.51,6C123.69,44,110.92,45.13,110,45.2,98.51,46.11,89.54,40,85.94,37.18Z"/><ellipse class="cls-2" cx="25.9" cy="28.73" rx="11.67" ry="12.7" transform="translate(-1.73 1.66) rotate(-3.54)"/><ellipse class="cls-3" cx="106.01" cy="32.77" rx="11.67" ry="12.7" transform="translate(-1.82 6.61) rotate(-3.54)"/><ellipse class="cls-4" cx="25.98" cy="30.07" rx="6.96" ry="6.32" transform="translate(-1.81 1.66) rotate(-3.54)"/><ellipse class="cls-4" cx="106.74" cy="33.92" rx="6.96" ry="6.32" transform="translate(-1.89 6.66) rotate(-3.54)"/><ellipse class="cls-1" cx="102.51" cy="28.49" rx="3.22" ry="3.16" transform="translate(-1.57 6.39) rotate(-3.54)"/><ellipse class="cls-5" cx="21.19" cy="26.22" rx="3.07" ry="2.65" transform="translate(-1.58 1.36) rotate(-3.54)"/><path class="cls-6" d="M85.31,33.88a59.53,59.53,0,0,1,6.06-16.26,32.62,32.62,0,0,1,5.42-7.1c.28-.26.54-.54.84-.78L98.55,9a15.31,15.31,0,0,1,2-1.29,20.22,20.22,0,0,1,2.15-1A14.51,14.51,0,0,1,105,6.09a13,13,0,0,1,9.24,2.09,22.16,22.16,0,0,1,6.23,6.62,36.73,36.73,0,0,1,5.21,16.58,51,51,0,0,0-7.21-15.21,21.69,21.69,0,0,0-5.8-5.49,10.17,10.17,0,0,0-7.16-1.52,13.31,13.31,0,0,0-6.73,3.53,34.63,34.63,0,0,0-5.36,6.22A114.87,114.87,0,0,0,85.31,33.88Z"/><path class="cls-6" d="M7.46,24.53A29.53,29.53,0,0,1,12.29,10a17.11,17.11,0,0,1,6-5.41A14.08,14.08,0,0,1,26.38,3.1a16.61,16.61,0,0,1,7.59,3,21.69,21.69,0,0,1,5.47,5.76,28.25,28.25,0,0,1,4.49,14.58,39.15,39.15,0,0,0-6.45-13.16,21.94,21.94,0,0,0-5.17-4.75A14.09,14.09,0,0,0,26,6.19a11.45,11.45,0,0,0-6.46,1.06,16.35,16.35,0,0,0-5.37,4.27,30.52,30.52,0,0,0-3.89,6.09A66.44,66.44,0,0,0,7.46,24.53Z"/></svg>