<svg id="Layer_1" data-name="Layer 1" xmlns="http://www.w3.org/2000/svg" xmlns:xlink="http://www.w3.org/1999/xlink" viewBox="0 0 130 50"><defs><style>.cls-1{fill:#fff;}.cls-2{fill:url(#linear-gradient);}.cls-3{fill:#030303;}.cls-4{fill:#fcfdff;}.cls-5{fill:#422f2a;}.cls-6{fill:#705257;}.cls-7{fill:url(#linear-gradient-2);}</style><linearGradient id="linear-gradient" x1="28.21" y1="3.61" x2="22.61" y2="55.56" gradientTransform="translate(0.43 5.86)" gradientUnits="userSpaceOnUse"><stop offset="0" stop-color="#4a240d"/><stop offset="0.64" stop-color="#9b6a33"/></linearGradient><linearGradient id="linear-gradient-2" x1="108.87" y1="10.71" x2="103.27" y2="62.67" gradientTransform="translate(-0.94 7.52) rotate(-3.54)" xlink:href="#linear-gradient"/></defs><path class="cls-1" d="M4.31,35.2s-.47-7.62,8-20C16.44,9,22.9,5.86,29,7c7.92,1.51,11.9,11.55,14.5,18.12a17.55,17.55,0,0,1,1.17,4.63,15.71,15.71,0,0,1-.51,6C42.07,42,29.29,43.15,28.33,43.23,16.88,44.14,7.91,38,4.31,35.2Z"/><ellipse class="cls-2" cx="26.56" cy="28.77" rx="11.67" ry="12.7" transform="translate(-1.73 1.7) rotate(-3.54)"/><ellipse class="cls-3" cx="26.65" cy="30.1" rx="6.96" ry="6.32" transform="translate(-1.81 1.7) rotate(-3.54)"/><ellipse class="cls-4" cx="21.86" cy="26.26" rx="3.07" ry="2.65" transform="translate(-1.58 1.4) rotate(-3.54)"/><path class="cls-5" d="M8.13,24.56A29.62,29.62,0,0,1,13,10.07a17.39,17.39,0,0,1,6-5.41,14.1,14.1,0,0,1,8.13-1.52,16.64,16.64,0,0,1,7.59,3,21.73,21.73,0,0,1,5.47,5.77A28.41,28.41,0,0,1,44.6,26.5a39.1,39.1,0,0,0-6.45-13.15A21.92,21.92,0,0,0,33,8.6a14.1,14.1,0,0,0-6.29-2.38,11.44,11.44,0,0,0-6.45,1.07,16.34,16.34,0,0,0-5.37,4.26A30.12,30.12,0,0,0,11,17.64,69.62,69.62,0,0,0,8.13,24.56Z"/><path class="cls-6" d="M4.31,35.2s-.47-7.62,8-20C16.44,9,22.9,5.86,29,7c7.92,1.51,11.9,11.55,14.5,18.12a17.55,17.55,0,0,1,1.17,4.63,15.71,15.71,0,0,1-.51,6S34,31.49,24.52,30.72C9.51,29.52,4.31,35.2,4.31,35.2Z"/><path class="cls-1" d="M109.27,45.33c-11.45.91-20.42-5.22-24-8,0,0-.47-7.63,8-20,4.19-6.16,10.65-9.34,16.72-8.18,7.93,1.5,11.9,11.55,14.51,18.11a17.32,17.32,0,0,1,1.16,4.64,15.9,15.9,0,0,1-.5,6c-2.08,6.22-14.86,7.36-15.82,7.43"/><path class="cls-7" d="M108.29,43.54c-6.43.4-12-4.95-12.43-11.95s4.43-13,10.86-13.39,12,4.95,12.44,12-4.43,13-10.87,13.39"/><ellipse class="cls-3" cx="107.59" cy="32.2" rx="6.96" ry="6.32" transform="translate(-1.78 6.71) rotate(-3.54)"/><ellipse class="cls-4" cx="102.8" cy="28.36" rx="3.07" ry="2.65" transform="translate(-1.56 6.41) rotate(-3.54)"/><path class="cls-5" d="M89.08,26.67A29.42,29.42,0,0,1,93.9,12.18a17.11,17.11,0,0,1,6-5.41A14.08,14.08,0,0,1,108,5.24a16.5,16.5,0,0,1,7.59,3A21.73,21.73,0,0,1,121.06,14a28.34,28.34,0,0,1,4.48,14.58,39,39,0,0,0-6.45-13.16,21.94,21.94,0,0,0-5.17-4.75,14.09,14.09,0,0,0-6.28-2.37,11.37,11.37,0,0,0-6.46,1.06,16.35,16.35,0,0,0-5.37,4.27,30.52,30.52,0,0,0-3.89,6.09A64.28,64.28,0,0,0,89.08,26.67Z"/><path class="cls-6" d="M125.13,37.78s3.19-8.35-5.58-20.88c-4.28-6.11-10.27-9.14-17.13-7.78C94.5,10.68,90.34,20.77,87.67,27.31c-1.21,3-1.72,4.39-1.88,4.89-.78,2.53-.73,5.37-.46,5.17,0,0,10.16-4.78,19.69-4.42C119.26,33.49,125.13,37.78,125.13,37.78Z"/></svg>