<svg xmlns="http://www.w3.org/2000/svg" xmlns:xlink="http://www.w3.org/1999/xlink" viewBox="0 0 1600 900"><defs><style>.cls-1,.cls-40{fill:none;}.cls-2{isolation:isolate;}.cls-3{clip-path:url(#clip-path);}.cls-4{fill:#d7e2d9;}.cls-5{fill:url(#Áåçûìÿííûé_ãðàäèåíò_29);}.cls-6{fill:url(#Áåçûìÿííûé_ãðàäèåíò_88);}.cls-7{fill:#302c5f;}.cls-8{fill:url(#Áåçûìÿííûé_ãðàäèåíò_146);}.cls-9{fill:url(#Áåçûìÿííûé_ãðàäèåíò_146-2);}.cls-10{fill:url(#Áåçûìÿííûé_ãðàäèåíò_18);}.cls-11,.cls-13{fill:#fff;}.cls-12{fill:#a41d2e;}.cls-13{mix-blend-mode:soft-light;}.cls-14,.cls-15,.cls-18,.cls-37{mix-blend-mode:multiply;}.cls-14{fill:url(#Áåçûìÿííûé_ãðàäèåíò_106);}.cls-15{fill:url(#Áåçûìÿííûé_ãðàäèåíò_106-2);}.cls-16{fill:#fff1d1;}.cls-17{fill:url(#Áåçûìÿííûé_ãðàäèåíò_18-2);}.cls-18{fill:#8b1f5f;opacity:0.15;}.cls-19{fill:#80807f;}.cls-20,.cls-24,.cls-39{fill:#fac59b;}.cls-20,.cls-21,.cls-24,.cls-40{stroke:#933220;}.cls-20,.cls-21,.cls-22,.cls-23,.cls-24,.cls-27,.cls-40{stroke-miterlimit:10;}.cls-20,.cls-21,.cls-40{stroke-width:0.38px;}.cls-21{fill:#e6a97f;}.cls-22{fill:#7294cc;stroke:#1e5699;}.cls-22,.cls-24,.cls-27{stroke-width:0.5px;}.cls-23{fill:#eb4341;stroke:#a71f24;stroke-width:0.25px;}.cls-25{fill:#dca07b;}.cls-26{fill:#d59c77;}.cls-27,.cls-34{fill:#592616;}.cls-27{stroke:#3a1911;}.cls-28{fill:#723221;}.cls-29{fill:#dfa57f;}.cls-30{fill:#3a3023;}.cls-31{fill:#fff3e3;}.cls-32{fill:#933220;}.cls-33{fill:#322517;}.cls-35{fill:#ef6a24;}.cls-36{fill:#c85928;}.cls-37{opacity:0.1;}.cls-38{fill:#cddbeb;}</style><clipPath id="clip-path"><rect class="cls-1" x="0.3" y="0.3" width="1600" height="900"/></clipPath><linearGradient id="Áåçûìÿííûé_ãðàäèåíò_29" x1="745.02" y1="972.77" x2="745.02" y2="306.86" gradientTransform="matrix(-1, 0, 0, 1, 2257.28, 0)" gradientUnits="userSpaceOnUse"><stop offset="0" stop-color="#302c5f"/><stop offset="1" stop-color="#36c2df"/></linearGradient><linearGradient id="Áåçûìÿííûé_ãðàäèåíò_88" x1="850.17" y1="259.12" x2="876.38" y2="259.12" gradientTransform="matrix(-1, 0, 0, 1, 2257.28, 0)" gradientUnits="userSpaceOnUse"><stop offset="0" stop-color="#92949a"/><stop offset="0.57" stop-color="#725870"/><stop offset="1" stop-color="#c19980"/></linearGradient><linearGradient id="Áåçûìÿííûé_ãðàäèåíò_146" x1="856.37" y1="276.85" x2="856.37" y2="260.27" gradientTransform="matrix(-1, 0, 0, 1, 2257.28, 0)" gradientUnits="userSpaceOnUse"><stop offset="0" stop-color="#fad6ac"/><stop offset="0.57" stop-color="#f19065"/><stop offset="1" stop-color="#e7c7c0"/></linearGradient><linearGradient id="Áåçûìÿííûé_ãðàäèåíò_146-2" x1="880.8" y1="261.17" x2="880.8" y2="253.33" xlink:href="#Áåçûìÿííûé_ãðàäèåíò_146"/><linearGradient id="Áåçûìÿííûé_ãðàäèåíò_18" x1="1246.31" y1="271.06" x2="1482.48" y2="271.06" gradientUnits="userSpaceOnUse"><stop offset="0" stop-color="#ee6b68"/><stop offset="1" stop-color="#c42728"/></linearGradient><linearGradient id="Áåçûìÿííûé_ãðàäèåíò_106" x1="714.69" y1="556.9" x2="764.92" y2="556.9" gradientTransform="matrix(-1, 0, 0, 1, 2257.28, 0)" gradientUnits="userSpaceOnUse"><stop offset="0" stop-color="#f1b590"/><stop offset="1" stop-color="#c2a39e"/></linearGradient><linearGradient id="Áåçûìÿííûé_ãðàäèåíò_106-2" x1="828.3" y1="406.52" x2="975.92" y2="406.52" xlink:href="#Áåçûìÿííûé_ãðàäèåíò_106"/><linearGradient id="Áåçûìÿííûé_ãðàäèåíò_18-2" x1="1198.41" y1="379.68" x2="1339.58" y2="379.68" xlink:href="#Áåçûìÿííûé_ãðàäèåíò_18"/></defs><g class="cls-2"><g id="Layer_1" data-name="Layer 1"><g id="b"><g class="cls-3"><g id="b-2" data-name="b"><polygon class="cls-4" points="1271 390.3 1267.3 176.3 1472 116.7 1472 426.5 1271 390.3"/><polygon class="cls-5" points="1472 306.9 1472 316.2 1476.5 320.6 1482.5 326.4 1492.8 336.4 1542.6 384.7 1507.2 972.8 1532.5 972.8 1552.5 379 1493.2 325.8 1482.5 316.3 1476.4 310.8 1472 306.9"/><polygon class="cls-6" points="1380.9 253.3 1393.8 259.7 1393.8 259.7 1395 260.3 1406.9 266.2 1407.1 257.4 1398.1 252.1 1380.9 253.3"/><polygon class="cls-7" points="1472 316.2 1472 334 1476.6 338.8 1482.5 344.9 1492.4 355.1 1522.8 386.8 1482 958.8 1507.2 972.8 1542.6 384.7 1492.8 336.4 1482.5 326.4 1476.5 320.6 1472 316.2"/><polygon class="cls-8" points="1395 260.3 1394.9 271.4 1406.8 276.9 1406.9 266.2 1395 260.3"/><polygon class="cls-9" points="1359.2 254.9 1372.8 261.2 1393.8 259.7 1380.9 253.3 1380.9 253.3 1359.2 254.9"/><path class="cls-10" d="M1331.7,256.8l27.4-1.9h.1l21.7-1.6h0l12.9,6.4-21,1.5-44.1,3.1Zm75.5-5.3v5.9l-9-5.3Zm-75.5,5.3,27.4-1.9h.1l21.7-1.6h0l17.2-1.2,9.1-.6v5.9l-.2,8.8v10.7l-2,119.3-108.3-19.7-1-29.4h0l-3-87.5Zm-29.6,114.1,91.7,12.1,1.1-111.6V260.3l-1.2-.6h0l-21,1.5-44.1,3.1-30.1,2.1,2.3,67.1Zm29.6-114.1,27.4-1.9h.1l21.7-1.6h0l17.2-1.2,9.1-.6v5.9l-.2,8.8v10.7l-2,119.3-108.3-19.7-1-29.4h0l-3-87.5Zm-29.6,114.1,91.7,12.1,1.1-111.6V260.3l-1.2-.6h0l-21,1.5-44.1,3.1-30.1,2.1,2.3,67.1Zm29.6-114.1,27.4-1.9h.1l21.7-1.6h0l17.2-1.2,9.1-.6v5.9l-.2,8.8v10.7l-2,119.3-108.3-19.7-1-29.4h0l-3-87.5Zm-29.6,114.1,91.7,12.1,1.1-111.6V260.3l-1.2-.6h0l-21,1.5-44.1,3.1-30.1,2.1,2.3,67.1Zm29.6-114.1,27.4-1.9h.1l21.7-1.6h0l17.2-1.2,9.1-.6v5.9l-.2,8.8v10.7l-2,119.3-108.3-19.7-1-29.4h0l-3-87.5Zm-29.6,114.1,91.7,12.1,1.1-111.6V260.3l-1.2-.6h0l-21,1.5-44.1,3.1-30.1,2.1,2.3,67.1Zm29.6-114.1,27.4-1.9h.1l21.7-1.6h0l17.2-1.2,9.1-.6v5.9l-.2,8.8v10.7l-2,119.3-108.3-19.7-1-29.4h0l-3-87.5Zm-29.6,114.1,91.7,12.1,1.1-111.6V260.3l-1.2-.6h0l-21,1.5-44.1,3.1-30.1,2.1,2.3,67.1Zm29.6-114.1,27.4-1.9h.1l21.7-1.6h0l17.2-1.2,9.1-.6v5.9l-.2,8.8v10.7l-2,119.3-108.3-19.7-1-29.4h0l-3-87.5Zm-29.6,114.1,91.7,12.1,1.1-111.6V260.3l-1.2-.6h0l-21,1.5-44.1,3.1-30.1,2.1,2.3,67.1ZM1482.5,98.3V443.8l-232.2-41.9-4-234.8ZM1472,116.7l-38.6,11.2-56.6,16.6-84.6,24.6-4.2,1.2-20.7,6,3.1,182.2.6,31.8,149.7,27,51.3,9.2Zm-65.1,149.5v10.7l-2,119.3-108.3-19.7-1-29.4h0l-3-87.5,39.2-2.7,27.4-1.9h.1l21.7-1.6h0l17.2-1.2,9.1-.6v5.9Zm-13.1-6.5h0l-21,1.5-44.1,3.1-30.1,2.1,2.3,67.1,1.2,37.4,91.7,12.1,1.1-111.6V260.3Zm-62.1-2.9,27.4-1.9h.1l21.7-1.6h0l17.2-1.2,9.1-.6v5.9l-.2,8.8v10.7l-2,119.3-108.3-19.7-1-29.4h0l-3-87.5Zm-29.6,114.1,91.7,12.1,1.1-111.6V260.3l-1.2-.6h0l-21,1.5-44.1,3.1-30.1,2.1,2.3,67.1Zm29.6-114.1,27.4-1.9h.1l21.7-1.6h0l17.2-1.2,9.1-.6v5.9l-.2,8.8v10.7l-2,119.3-108.3-19.7-1-29.4h0l-3-87.5Zm-29.6,114.1,91.7,12.1,1.1-111.6V260.3l-1.2-.6h0l-21,1.5-44.1,3.1-30.1,2.1,2.3,67.1Zm29.6-114.1,27.4-1.9h.1l21.7-1.6h0l17.2-1.2,9.1-.6v5.9l-.2,8.8v10.7l-2,119.3-108.3-19.7-1-29.4h0l-3-87.5Zm-29.6,114.1,91.7,12.1,1.1-111.6V260.3l-1.2-.6h0l-21,1.5-44.1,3.1-30.1,2.1,2.3,67.1Zm29.6-114.1,27.4-1.9h.1l21.7-1.6h0l17.2-1.2,9.1-.6v5.9l-.2,8.8v10.7l-2,119.3-108.3-19.7-1-29.4h0l-3-87.5Zm-29.6,114.1,91.7,12.1,1.1-111.6V260.3l-1.2-.6h0l-21,1.5-44.1,3.1-30.1,2.1,2.3,67.1Zm29.6-114.1,27.4-1.9h.1l21.7-1.6h0l17.2-1.2,9.1-.6v5.9l-.2,8.8v10.7l-2,119.3-108.3-19.7-1-29.4h0l-3-87.5Zm-29.6,114.1,91.7,12.1,1.1-111.6V260.3l-1.2-.6h0l-21,1.5-44.1,3.1-30.1,2.1,2.3,67.1Zm29.6-114.1,27.4-1.9h.1l21.7-1.6h0l17.2-1.2,9.1-.6v5.9l-.2,8.8v10.7l-2,119.3-108.3-19.7-1-29.4h0l-3-87.5Zm-29.6,114.1,91.7,12.1,1.1-111.6V260.3l-1.2-.6h0l-21,1.5-44.1,3.1-30.1,2.1,2.3,67.1Z"/><path class="cls-11" d="M1331.2,255l28.2-2h0l22.3-1.6h0l17.7-1.2,9.3-.7v15.1l-.2,11-2,122.5L1295,377.9l-1-30.2h0l-3-89.9Zm-25,111.2,83.1,11.1,1-101.4.2-10-1.1-.6h0l-19.1,1.4-40,2.8-27.3,1.9,2.1,60.9Z"/><path class="cls-12" d="M1256.8,176.3l3.7,214,139.2,25.1,72.3,13v-1.9l-51.3-9.2-149.7-27c-.9-53.2-3.4-197.6-3.7-214L1472,116.7v-3Z"/><polygon class="cls-12" points="1482.5 98.3 1498.5 98.3 1490.3 443.8 1482.5 443.8 1482.5 98.3"/><polygon class="cls-13" points="1548.4 499.3 1537.8 464.3 1526.8 647 1541.7 698.9 1548.4 499.3"/><polygon class="cls-13" points="1541.1 716.7 1525.2 674 1521.8 730.5 1539 777.4 1541.1 716.7"/><polygon class="cls-14" points="1522.8 386.8 1519 777.4 1542.6 384.7 1492.9 336.4 1492.4 355.2 1522.8 386.8"/><polygon class="cls-13" points="1492.9 333.9 1545.9 383.6 1507.2 972.8 1542.6 384.7 1492.9 336.4 1492.9 333.9"/><polygon class="cls-15" points="1306.3 390 1420.7 408.2 1429 423 1281.4 399.5 1306.3 390"/><polygon class="cls-12" points="1353.6 375.5 1353.6 387.3 1334.1 384.7 1334.1 375.5 1353.6 375.5"/><path class="cls-16" d="M1267.3,471.2c-4.5,0-44.4-.2-44.4-7.5s39.9-7.4,44.4-7.4,44.4.2,44.4,7.4S1271.8,471.2,1267.3,471.2Zm-41.1-7.5c2.6,1.9,17.8,4.5,41.1,4.5s38.5-2.6,41.1-4.5c-2.6-1.9-17.8-4.4-41.1-4.4S1228.8,461.8,1226.2,463.7Z"/><path class="cls-16" d="M1336.2,391.2c-1,3.1-2.2,6.2-3.5,9.2s-3,6-3.8,9.2l-1.2,4.7c-.5,1.6-1,3.2-1.6,4.7-1.4,3-2.6,6.1-3.8,9.2-2.4,6.1-4.2,12.4-6,18.7l-5.3,19c-3.4,12.6-6.9,25.3-9.7,38l-.5,2.3-.4,2.2c-.1,1.5,0,3.1,0,4.7.2,3.3.5,6.5.9,9.8a158.8,158.8,0,0,0,3.3,19.3.9.9,0,0,1-.6.9.7.7,0,0,1-.9-.5h0l-4-19.4c-.7-3.2-1.3-6.5-1.8-9.8a40.6,40.6,0,0,1-.4-5.1l.3-2.7.4-2.4c2.7-13,6.4-25.6,9.8-38.3l5.2-19c1.8-6.3,3.6-12.7,4.8-19.1.6-3.3,1.2-6.5,1.7-9.8a37.2,37.2,0,0,1,1.1-4.8l1.5-4.7c1-3.1,1.2-6.5,1.6-9.8s1.2-6.5,2.1-9.7a5.5,5.5,0,0,1,6.9-3.9,5.7,5.7,0,0,1,4,6.9Z"/><path class="cls-16" d="M1212.6,384.5a87.9,87.9,0,0,1,2.2,9.9c.2,1.6.2,3.3.4,5a38.6,38.6,0,0,0,1,4.9c1.7,6.6,4.6,12.8,4.7,19.6a84.2,84.2,0,0,0,.9,10.1c.5,3.3,1.3,6.6,1.8,9.9l3.8,19.8c1.3,6.6,2.6,13.2,3.6,19.8l1.5,10,.6,5a23.6,23.6,0,0,1,.1,5.3c-.8,7-2.9,13.4-5.1,19.7s-4.3,12.8-6.6,19.1a.7.7,0,0,1-.8.4.6.6,0,0,1-.3-.8h0c2.2-6.3,4.4-12.7,6.1-19.1.8-3.3,1.6-6.5,2.3-9.8a65.4,65.4,0,0,0,1.6-9.7c.2-3-.6-6.3-1.1-9.6l-1.8-9.9-3.7-19.7c-1.3-6.6-2.5-13.2-3.8-19.8-.7-3.2-1.3-6.6-2.1-9.8a83.5,83.5,0,0,0-3-9.7c-2.5-6.3-2.2-13.2-3.2-19.8a40.2,40.2,0,0,0-1-5c-.5-1.6-1.1-3.2-1.5-4.8a78.8,78.8,0,0,1-1.9-9.9,2.7,2.7,0,0,1,5.3-1.1Z"/><path class="cls-16" d="M1303.4,388.3c-.8,3.2-1.7,6.5-2.6,9.7s-2.1,6.4-2.4,9.8c-.1,1.7-.2,3.4-.4,5a38.9,38.9,0,0,1-1.2,4.9c-.8,3.3-1.9,6.5-2.8,9.7a150.3,150.3,0,0,0-4.2,19.7l-3.3,19.8c-2.2,13.3-4.2,26.6-6.1,39.7-1,6.4-1,13.1-1,19.8a121.8,121.8,0,0,0,1.7,20h0a.7.7,0,1,1-1.4.2h0c-1-6.7-1.7-13.3-2.6-20s-1.5-13.5-.9-20.4c1.1-13.6,3.5-26.8,5.8-40l3.6-19.8a192.4,192.4,0,0,0,2.8-20c.3-3.4.5-6.7.8-10.1.2-1.7.4-3.3.7-5s.9-3.2,1.4-4.8a43,43,0,0,0,1.3-10.1l1.2-10a5,5,0,0,1,5.5-4.2,4.9,4.9,0,0,1,4.2,5.5C1303.5,387.9,1303.4,388.1,1303.4,388.3Z"/><path class="cls-16" d="M1245.6,386.1c.4,3.3.6,6.5.7,9.8a63.8,63.8,0,0,0,.3,9.8,91.2,91.2,0,0,1,1.1,19.5,142.2,142.2,0,0,0,.5,19.6l1.3,19.6c.9,13,1.5,26,2.1,39.1a81.5,81.5,0,0,1-1,19.7c-1,6.5-2.2,12.9-3.6,19.4a.7.7,0,0,1-.8.5.8.8,0,0,1-.6-.8h0c3.1-12.6,3.3-25.8,3-38.6s-1.6-26-2.3-39l-1.2-19.6a140.5,140.5,0,0,0-2.2-19.4,91.6,91.6,0,0,1-1.5-19.5,81.6,81.6,0,0,0-1.1-9.8c-.3-3.2-.6-6.5-.7-9.7a3,3,0,0,1,2.9-3.2A3,3,0,0,1,1245.6,386.1Z"/><path class="cls-16" d="M1219.1,423a1.7,1.7,0,0,0-.6-1.5c-.1-.1,0,0,.1,0l1,.5,3,.9a60.6,60.6,0,0,0,6.4,1.2c4.4.7,8.9,1.3,13.4,1.7s8.9.8,13.5.9,9-.2,13.5-.2a242.8,242.8,0,0,0,27-1.2c4.5-.6,8.9-.9,13.4-1.2,2.2-.2,4.4-.6,6.5-1l2.9-.9a2.3,2.3,0,0,0,1.1-.5c.1,0,.3-.1.1-.1a2.1,2.1,0,0,0-.5,1.4,2.5,2.5,0,0,0,.5,1.5c.1.1,0,0-.1,0l-1.2-.4-2.9-.5c-2.1-.3-4.4-.3-6.6-.5-4.4-.3-8.8-.5-13.3-1.1-8.9-1.1-17.9-.9-26.9-1.4a173.9,173.9,0,0,0-27,.3c-4.5.4-8.9,1.1-13.3,1.8l-6.4,1-3,.6-1.1.4s-.2.1,0-.1A1.9,1.9,0,0,0,1219.1,423Zm-6.3,0a4.6,4.6,0,0,1,1.4-3l1.3-1,2.1-1,3.6-1.1,7-1.2c4.6-.5,9.2-.5,13.8-.8,9.2-.3,18.3-.7,27.4-1.3s18.3.2,27.5.2a80.9,80.9,0,0,1,13.8,1.5,64,64,0,0,1,6.9,1.8l3.5,1.2a8.8,8.8,0,0,1,2,.9,5.7,5.7,0,0,1,1.3,1,3.9,3.9,0,0,1,1.4,2.8,4.3,4.3,0,0,1-1.4,2.9,7.7,7.7,0,0,1-1.3.9l-2,.8-3.7.9-6.9,1.2a78.5,78.5,0,0,1-13.7,1.3c-9.2.2-18.3.5-27.4.5-4.6,0-9.1-.4-13.7-.6l-13.7-.4c-4.5-.2-9.1-.4-13.7-.9l-7-.9-3.6-.9-2.1-.8a7.6,7.6,0,0,1-1.4-1A4.1,4.1,0,0,1,1212.8,423Z"/><path class="cls-16" d="M1233.1,507c-.1-.2.2.3.7.5l1.7.9a23.4,23.4,0,0,0,4,1.1,77.2,77.2,0,0,0,8.4,1.2c5.8.4,11.5.5,17.3.5a165.3,165.3,0,0,0,17.2-1,80.9,80.9,0,0,0,8.4-1.2,25,25,0,0,0,3.9-1.1l1.7-.7c.4-.3.5-.7.4-.2s0,.2-.5,0a5.9,5.9,0,0,0-1.6-.7,23.4,23.4,0,0,0-4-1l-8.4-1.1c-5.6-.6-11.4-1-17.1-1.2a164,164,0,0,0-17.2.4,60,60,0,0,0-8.5,1.2l-4,1.1-1.7.8C1233.3,506.8,1233.1,507.3,1233.1,507Zm-2.7,0a2.6,2.6,0,0,1,.3-1.1,1.8,1.8,0,0,1,.5-.7,2.9,2.9,0,0,1,1.1-.9,15,15,0,0,1,2.2-1.1,24,24,0,0,1,4.4-1.2,87.9,87.9,0,0,1,8.7-1.5,173.8,173.8,0,0,1,17.6-1.4,148.6,148.6,0,0,1,17.6.6,64.7,64.7,0,0,1,8.8,1.5,38.1,38.1,0,0,1,4.4,1.5,12,12,0,0,1,2.3,1.1c.4.4.8.5,1.2,1.1a5.5,5.5,0,0,1,.6.8,3.1,3.1,0,0,1,.3,1.3,2.8,2.8,0,0,1-.3,1.3,7,7,0,0,1-.6.9,5.3,5.3,0,0,1-1.2,1,15.8,15.8,0,0,1-2.3,1.1l-4.4,1.2a70.4,70.4,0,0,1-8.8,1.5,174,174,0,0,1-17.6.8,130.3,130.3,0,0,1-17.6-1.3,87.9,87.9,0,0,1-8.7-1.5,23,23,0,0,1-4.3-1.2,11.5,11.5,0,0,1-2.3-1,4.4,4.4,0,0,1-1.1-.9c-.2-.3-.4-.4-.5-.8A2,2,0,0,1,1230.4,507Z"/><polygon class="cls-17" points="1339.6 372.9 1336.9 390 1201.8 384.8 1198.4 369.4 1339.6 372.9"/><polygon class="cls-13" points="1239.6 372.4 1239.6 383.6 1205.2 382 1202.1 372.4 1239.6 372.4"/><polygon class="cls-13" points="1246.3 372.4 1267.3 372.4 1265.2 383.6 1246.4 383.6 1246.3 372.4"/><polygon class="cls-13" points="1292.5 259.5 1295.5 347 1300.9 333.5 1298.6 266.4 1328.7 264.3 1331.7 256.8 1292.5 259.5"/><polygon class="cls-18" points="1467.6 122.6 1464.5 419.1 1343.8 400.1 1443.8 409.3 1435.5 134.8 1467.6 122.6"/><polygon class="cls-13" points="1319.3 154.7 1312.1 149.5 1249.2 168.3 1256.8 172.7 1319.3 154.7"/><polygon class="cls-13" points="1322.2 154 1315.4 148.7 1339.1 142 1344.7 147.8 1322.2 154"/><path class="cls-19" d="M563,500.5c21.8-21.7,46-40.9,71.1-58.7,12.5-8.9,25.4-17.4,38.5-25.4s26.5-15.6,40.1-22.8l10.2-5.3,10.4-5.1,10.4-4.9,5.3-2.4,5.3-2.3,10.6-4.6,10.6-4.3c7.2-2.9,14.4-5.5,21.6-8.2,14.5-5,29.1-9.9,44-13.9s29.8-7.4,44.9-10.5c-15,3.3-30,6.7-44.8,11s-29.4,8.9-43.9,14.1c-7.1,2.7-14.4,5.3-21.5,8.2-3.5,1.5-7.1,2.8-10.6,4.4l-10.6,4.6-5.3,2.3-5.2,2.4c-3.5,1.7-7,3.2-10.4,5l-10.3,5-10.3,5.4q-20.4,10.7-40.1,22.6t-38.6,25.2c-12.5,8.8-24.8,18.1-36.8,27.7S574,489.7,563,500.5Z"/><path class="cls-19" d="M633.7,364.9a375.8,375.8,0,0,1,55.1-30.7,460.8,460.8,0,0,1,58.9-22.5c10.1-3,20.3-5.6,30.5-7.9l7.8-1.6,3.8-.8,3.9-.7,7.8-1.3,7.8-1.1,7.8-1,7.8-.9c5.3-.4,10.5-.9,15.8-1.1,10.5-.6,21-.5,31.5-.2-10.5-.1-21-.1-31.5.7-5.2.2-10.5.8-15.7,1.2-2.6.2-5.2.6-7.8.9l-7.8,1-7.8,1.2-7.8,1.4-3.8.7-3.9.8-7.7,1.6c-10.2,2.4-20.4,5.1-30.4,8.1a458.7,458.7,0,0,0-58.9,22.1c-9.6,4.4-19,9-28.3,14S642.5,359,633.7,364.9Z"/><g id="_002" data-name="002"><path class="cls-20" d="M526.5,510.8c2.4,3.8,3.8,8.7,2.1,12.9s-7.5,6.7-11.1,3.9a3,3,0,0,1-1.2-2.4,5.1,5.1,0,0,1,.9-1.6,6.6,6.6,0,0,0-.5-6.5,19.5,19.5,0,0,0-4.8-4.7l-5.1-4a9.5,9.5,0,0,0-2.4-1.4,6.5,6.5,0,0,0-3.1,0,60.2,60.2,0,0,1-10.4,0c-2-.2-4.7-1.4-4.2-3.4a5.7,5.7,0,0,1,1.1-1.6c5.5-5.4,11.9-11.2,19.7-11.3s5.3,4.4,7.8,8.4S523.5,506.2,526.5,510.8Z"/><path class="cls-20" d="M509.8,512.6c2.4,3.8,3.9,8.7,2.1,12.9s-7.5,6.6-11,3.8a2.5,2.5,0,0,1-1.2-2.3,6.5,6.5,0,0,1,.8-1.7,6.4,6.4,0,0,0-.5-6.4c-1.1-1.9-3-3.3-4.8-4.7l-5-4a6.9,6.9,0,0,0-2.5-1.4,8.1,8.1,0,0,0-3.1-.1,51.6,51.6,0,0,1-10.4.1c-2-.2-4.7-1.4-4.2-3.4a4.5,4.5,0,0,1,1.2-1.6c5.5-5.4,11.8-11.2,19.6-11.3s5.3,4.4,7.8,8.4S506.9,507.9,509.8,512.6Z"/><path class="cls-20" d="M437.8,561.8a60.7,60.7,0,0,0,12.8-24.3c3.6-14.5,19.5-31.8,22.3-38.3s18.7-5.3,27.6-12.1S540,501.4,539,505.4s-30.6-8.6-30.6-8.6a54.2,54.2,0,0,1-14.7,6.4c-8.2,2.1-11.5,30.2-13.3,34.3S437.8,561.8,437.8,561.8Z"/><path class="cls-20" d="M460.1,528.9c8.8-6.7,10-20.5,19.4-26.2a5.4,5.4,0,0,1,3.3-.8c2.1.4,2.9,3.1,2.9,5.3-.1,7.1-4.1,13.4-7.9,19.4l-7.2,10.9"/><path class="cls-21" d="M454.2,583.1s-38.1,72.4-54.6,93.8S296.2,782,296.2,782s-30.9,8.2-32.3-8.3S454.2,583.1,454.2,583.1Z"/><path class="cls-22" d="M293,900l-8.4,2.7a405.1,405.1,0,0,1-51.4,4.5c-34,.7-72.2,9.9-71.4-14.9,1.5-44.5,29.5-113.1,50-139,11.7-14.8,19.2-22.9,23.9-27.3a27.7,27.7,0,0,1,5.5-4.3c1.7-.9,2.2-.5,2.2,0l37.4-2.2L286,728l2.5,4.1,10.4,17,9.3,5.3C308.2,782.9,278.1,860.5,293,900Z"/><path class="cls-23" d="M291.3,728.8s-.4,1.5-2.8,3.3-11.2,5.5-27.6,4.7-23.3-4.5-25.9-11.9a32.8,32.8,0,0,1,5.9-4.4L286,728Z"/><path class="cls-24" d="M301.1,709.2c-2.1.2-4.5.3-7.1.3a70.2,70.2,0,0,0-15.6,11.2c-11,11.2.1,10.2.1,10.2-18,.4-31.2-.6-35.1-6.7s1-3.4,3.9-7.8a7.5,7.5,0,0,0,.7-1.2,26.2,26.2,0,0,0-2.5-28C290.7,665.9,339,705.1,301.1,709.2Z"/><path class="cls-25" d="M301.1,709.2c-2.1.2-4.5.3-7.1.3-7.2,4-18.1,14.6-21.5,18-20.3,1.3-26-8.4-26.2-8.5s10.4-10.3,4.1-21.1l24.8.7c5.2.2,10.5.3,15.4,2S299.1,705.1,301.1,709.2Z"/><path class="cls-20" d="M337.8,651.1c1.2,3,4.5,6.3,7.2,8a2.3,2.3,0,0,1,.1,4,65.3,65.3,0,0,1-7.5,3.7c2.6,1.1,5.5,2.4,6.6,5.1s-.9,6.5-3.7,5.8c1.3,5.4-.5,11.2-3.3,16-7.9,13.5-23.4,21.1-38.9,23.9-13.1,2.3-41.7-3.1-46.8-5.5-.5-.2-.8-.4-.8-.6a67.2,67.2,0,0,0-7.8,2.8c-7,3-21.7,2.3-43-16-54.1-46.8-70.1-96.5-18.9-135.7,24.4-18.8,47.3-20.9,66-16.1,20.5,5.3,36,18.8,43,28.1,3.8,4.9,9.1,2.5,12,7.9,6.9,12.4,10.1,33.1,17.7,45.2,2.4,4.1,6.4,8.2,11,7.4s6.2-5.4,10.7-3.9S341.4,647.5,337.8,651.1Z"/><path class="cls-26" d="M299.9,590l-1.6-.5c-5.5-1.7-11-3.2-16.5-4.8l-9.6-3.1c-1.9-.7-7.8-1.6-9-3.2a101.3,101.3,0,0,1,13.3,23c-2-.5-3.9-1.2-5.9-1.9-16.3-5.4-34-4.5-50.9-1.5a35,35,0,0,1,23.8,45.4c-1,3.1-2.8,6.2-5.8,7.7a13.7,13.7,0,0,1-7,.8c-9-.7-18.1-4.2-24-11-3.9-4.4-6.2-10-8.5-15.4l-7.5-17.8c-1.3-3.4-2.8-7.1-1.8-10.5s2.4-4.2,3.8-6.1c4.3-5.7,6.9-12.5,11-18.2,7.4-10.2,18.9-16.4,30.4-21.4,4.2-1.8,8.5-3.6,12.9-5,20.5,5.3,36,18.8,43,28.1A115,115,0,0,1,299.9,590Z"/><path class="cls-27" d="M309.9,596.3c-4.7-9.2-14.6-14.5-24.1-18.7a350.2,350.2,0,0,0-58.5-19.8c14.5,9.3,29.7,19.2,37.7,34.5a77.6,77.6,0,0,0-59,5.1c5.6-.5,10.9,2.6,15.2,6.2,17.5,14.8,26.7,34,23,52.5-1.7-2.9-19.7-8.3-22.7-9.9,1.5,1.8,13.5,21.2,14.4,23.3-8.8-2.2-19.6-6.4-28.3-3.9-3.9,1.1-8,3.2-9,7a11.3,11.3,0,0,0,.8,6.8c3,8.4,3.5,11.1,9.1,18,4.1,5.2,9.3,10.4,16.3,13.2s21.2,3.8,25.5.4c.8.8-24.5,13.7-61.4-3.2h-.1a131.2,131.2,0,0,1-20.7-12.1c-60.3-43-27.6-100.4-27.6-100.4,29.6-92.8,122.4-64.2,122.4-64.2,26.4,8.1,38.2,24.5,43.3,38.8a.1.1,0,0,1,.1.1A64.8,64.8,0,0,1,309.9,596.3Z"/><path class="cls-28" d="M308.2,571.7c-8.6-15.1-23.8-26.2-40.4-31.6-18.1-5.8-37.8-5.4-56.4-1.4a72.6,72.6,0,0,0-18.7,6.4c-8,4.3-14.6,10.8-20.7,17.6a234,234,0,0,0-19.9,25.6,192.7,192.7,0,0,1,23.1-9.4,81.3,81.3,0,0,0-29.9,35.7,14.6,14.6,0,0,1,15.7-2.7c-9.5,1.2-16.9,9.8-19.1,19.1s.1,19.2,3.7,28.2a99.7,99.7,0,0,0,45.2,50.4,126.9,126.9,0,0,1-20.7-12.1c-60.4-43-27.7-100.4-27.7-100.4,29.7-92.9,122.5-64.3,122.5-64.3C291.3,541,303,557.4,308.2,571.7Z"/><path class="cls-29" d="M224.8,699.1c4.2,3.9,9.6,6.6,15.3,6.7,2.4.1,5.3-.8,5.7-3.2s-2.7-4.2-5.2-4.5-7.3.2-8.2-2.9,2.5-3.4,4.1-5.2c4.6-4.9,3.5-10.3-2.8-13.1-4.2-1.8-17.4-3.9-20,1.2S221.2,695.8,224.8,699.1Z"/><path class="cls-30" d="M280.1,641.3s-6.3-17.8,7.4-29.5a8.1,8.1,0,0,1,9.6-.8c3.2,2,7,6.5,10.7,15.9C316.3,648.8,296.9,652.3,280.1,641.3Z"/><path class="cls-31" d="M281.7,642.2s-6.2-17.6,7-28.9a7.8,7.8,0,0,1,9.4-.7c3,2,6.8,6.4,10.4,15.7C317,649.8,298.2,653.1,281.7,642.2Z"/><path class="cls-32" d="M281.7,642.2a32.9,32.9,0,0,1-1.3-13.2,28.1,28.1,0,0,1,1.6-6.5,25.6,25.6,0,0,1,3.3-5.8l1.1-1.3,1.2-1.2,1.2-1.1a7.1,7.1,0,0,1,1.4-1,7.8,7.8,0,0,1,6.5-.3,10.8,10.8,0,0,1,2.9,1.8,17.5,17.5,0,0,1,2.3,2.4,36.2,36.2,0,0,1,3.7,5.6c1,1.9,1.9,4,2.8,6a36.1,36.1,0,0,1,1.9,6.4,16.8,16.8,0,0,1,.1,6.7,9,9,0,0,1-3.6,5.5,8.5,8.5,0,0,1-3,1.5,19.1,19.1,0,0,1-3.3.6,21.9,21.9,0,0,1-6.7-.7A38.7,38.7,0,0,1,281.7,642.2Zm0,0a39,39,0,0,0,12.2,5.3,20.9,20.9,0,0,0,6.6.6,11.3,11.3,0,0,0,3.2-.6,10.3,10.3,0,0,0,3-1.4,9.3,9.3,0,0,0,3.5-5.4,16.3,16.3,0,0,0-.1-6.6,36.1,36.1,0,0,0-1.9-6.4c-.9-2-1.8-4.1-2.8-6a36.2,36.2,0,0,0-3.7-5.6,25.5,25.5,0,0,0-2.3-2.4,9.5,9.5,0,0,0-2.7-1.7,7.5,7.5,0,0,0-6.4.3l-1.4.9-1.2,1.2-1.2,1.1-1,1.3a22.1,22.1,0,0,0-3.4,5.7,29.2,29.2,0,0,0-1.5,6.5A31.1,31.1,0,0,0,281.7,642.2Z"/><ellipse class="cls-33" cx="299.6" cy="625.9" rx="7.7" ry="10.8" transform="translate(-218.3 164) rotate(-22.7)"/><circle class="cls-31" cx="293.5" cy="623.6" r="3"/><path class="cls-32" d="M313.9,664.1a22.6,22.6,0,0,0,5.6,2.8,20.7,20.7,0,0,0,6.1,1.3,17.1,17.1,0,0,0,3.2.1l3.1-.4a24.7,24.7,0,0,0,5.9-2.2,20.1,20.1,0,0,1-5.9,2.3c-1,.3-2.1.3-3.1.5s-2.2.1-3.2,0a28,28,0,0,1-6.3-1.2,25.1,25.1,0,0,1-5.7-2.8Z"/><path class="cls-34" d="M270,609.2s-.5-17.3,17-13.3C287,595.9,278.7,595.5,270,609.2Z"/><ellipse class="cls-35" cx="668" cy="388.9" rx="61.9" ry="62" transform="translate(265.6 1048.9) rotate(-88.8)"/><path class="cls-36" d="M714.1,371.3c9,1.8,14.2,10.5,15.8,13.6a59,59,0,0,0-1-7.5c-3-3.8-7.7-8-14.1-9.3s-12.3.1-19.1,4a97.5,97.5,0,0,0-11.1-13.6c11.4-6.6,21.9-10.2,30.2-10.2l-3-3.1c-8.4.8-18.6,4.6-29.6,11-1.8-1.8-3.6-3.4-5.3-4.8s-3.3-2.6-4.9-3.8c4.5-2.5,8-5.4,9.9-9a13.4,13.4,0,0,0,1.2-9.7l-3.5-.7a11.3,11.3,0,0,1-.6,8.9c-1.7,3.3-5.3,6-9.9,8.4a106.2,106.2,0,0,0-25.8-13.3l-4.3,2h.2c.1,0,12.3,3.4,26.5,12.8-7,3-15.6,5.4-24,7.7-12.8,3.6-25.1,7-31.8,12.4a51.6,51.6,0,0,0-2.5,8.5,2.2,2.2,0,0,0,.7-.9c2.6-8,18.8-12.5,34.4-16.8,9.3-2.6,18.8-5.2,26.3-8.8l6.1,4.8,4.4,3.9a186.1,186.1,0,0,0-25.7,19.2c-16.1,14.3-32.8,33.7-36.5,47.3.9,1.2,1.7,2.4,2.7,3.5,1.3-10.9,16-30.7,36-48.3a187.5,187.5,0,0,1,25.9-19.4A100.6,100.6,0,0,1,693,373.9a64.3,64.3,0,0,0-9.1,7.4c-4.6,4.4-8.3,19.1-12.2,34.6s-7.7,30-11.9,34.4l3.8.4c4.2-6.4,7.6-19.9,11.2-34s7.4-29.2,11.4-33.1a71.1,71.1,0,0,1,8.5-7c8.9,14,15.7,32.7,15.9,57.3,1.1-1.1,2.2-2.1,3.2-3.3-.8-23.7-7.5-41.9-16.3-55.7C703.5,371.4,709,370.2,714.1,371.3Z"/><path class="cls-37" d="M669.2,327.1a63.7,63.7,0,0,0-9.8.5,61.9,61.9,0,0,1-2.5,122.2A61.9,61.9,0,0,0,730,390.2,61.9,61.9,0,0,0,669.2,327.1Z"/><path class="cls-38" d="M282.4,819.1a129.2,129.2,0,0,1-23,33.1,91.3,91.3,0,0,0,34.3-35.7l-5,36.3c-.7,5-1.5,10.3-4.3,14.6l-.2-23.8c-4.8,13.9-18.5,22.5-31.7,29-7.5,3.6-15.2,6.9-23,9.8a169.2,169.2,0,0,0,32.2-29.9c-5,6-24.8,12.9-32.1,11.7,16.4-12.1,19.8-16.1,26.2-20.7C266.9,835.5,272.6,828.8,282.4,819.1Z"/><path class="cls-23" d="M281.7,784.7c0,26.3-17,51-32.7,51s-29.9-12-29.9-38.3,18.4-55,34.1-55S281.7,758.3,281.7,784.7Z"/><path class="cls-20" d="M278.8,778.8c0,24.5-14.7,47.5-28.4,47.5s-25.9-11.1-25.9-35.6,16-51.2,29.7-51.2S278.8,754.3,278.8,778.8Z"/><path class="cls-39" d="M258.3,796.8c0,1,3.3,14.3,3.3,14.3S220,824.4,225.7,786,258.3,796.8,258.3,796.8Z"/><path class="cls-20" d="M236.6,754s7.7-20,28.7-25.5c0,0,82.6-76.9,88.7-90.2s22.3-29.5,49.9-49.9,73.9-60.2,77.8-60.9c0,0,17.8,6.6,16.7,13.8s-42.4,45.3-65.7,73.6-58.6,62.5-77.3,80.9c-13.9,13.6-42.3,53.8-74.3,79.5-7.2,5.8-9.2,21.1-26.7,27.9"/><path class="cls-20" d="M547.3,498.8c3.4,1.8,5,5.6,7.6,8.5s3.3,2.8,5.2,2.2,2.8-2.9,3.4-4.8c.1.4.1-1.1.1-.6"/><path class="cls-20" d="M536.1,485.3a18.6,18.6,0,0,1,6.1,2.2c1.8,1.3,3,3.6,2.3,5.7s-3.7,3.1-6.1,3.6c-6.8,1.2-23.4,4.6-27.1-3.6-2.5-5.5,2.5-12.5,8.2-13.1S531,484,536.1,485.3Z"/><path class="cls-20" d="M516.1,485.8c7.4.1,16.5-6.8,21.8-1.8s6.4,6.2,8.1,7"/><path class="cls-20" d="M495.5,546.2c12-.7,15.5-16.2,20.4-23.1a8.6,8.6,0,0,1,2.4-2.6,6.9,6.9,0,0,1,4.7-.7c4.8.5,9.3,2.9,13.8,4.7a75,75,0,0,0,12.5,3.7c2.7.5,6.1.6,7.4-1.7a2.4,2.4,0,0,0,.1-2.6,2.8,2.8,0,0,0-1.7-1.1c-7.4-3.3-14.6-7.3-21.7-11.2l-5.6-3.1c-1.2-.6-2.5-1.4-2.9-2.7a34.7,34.7,0,0,0,5.3-6.1c3.2-4.4,12.7.4,18.1-.6,0,0,15.9,6.6,21.3,5.6,8.2-1.6,6.6-4-4.7-8.6a161.6,161.6,0,0,0-21.5-7.4c-6.2-1.7-22.4,1.2-22.4,1.2s-.7-10.8-7.5-7.1-22.9,17.2-26,22.5-9.1,12-7.5,28"/><path class="cls-39" d="M510.4,486.6c-.4-1.1,6.7-5.8,9.9-5.2s2.8,9-1.7,11.5"/><path class="cls-40" d="M495.6,545.8l-2.5-2.4c-3.1-3-3.1-3.3-3.8-4.4a6.9,6.9,0,0,1-.6-5.6"/></g></g></g></g></g></g></svg>