<svg xmlns="http://www.w3.org/2000/svg" xmlns:xlink="http://www.w3.org/1999/xlink" viewBox="0 0 1600 900"><defs><style>.cls-1,.cls-26,.cls-37{fill:none;}.cls-2{isolation:isolate;}.cls-3{clip-path:url(#clip-path);}.cls-4{fill:#d7e2d9;}.cls-5{fill:url(#Áåçûìÿííûé_ãðàäèåíò_29);}.cls-6{fill:url(#Áåçûìÿííûé_ãðàäèåíò_88);}.cls-7{fill:#302c5f;}.cls-8{fill:url(#Áåçûìÿííûé_ãðàäèåíò_146);}.cls-9{fill:url(#Áåçûìÿííûé_ãðàäèåíò_146-2);}.cls-10{fill:url(#Áåçûìÿííûé_ãðàäèåíò_18);}.cls-11,.cls-13{fill:#fff;}.cls-12{fill:#a41d2e;}.cls-13{mix-blend-mode:soft-light;}.cls-14,.cls-15,.cls-18,.cls-23{mix-blend-mode:multiply;}.cls-14{fill:url(#Áåçûìÿííûé_ãðàäèåíò_106);}.cls-15{fill:url(#Áåçûìÿííûé_ãðàäèåíò_106-2);}.cls-16{fill:#fff1d1;}.cls-17{fill:url(#Áåçûìÿííûé_ãðàäèåíò_18-2);}.cls-18{fill:#8b1f5f;opacity:0.15;}.cls-19{fill:#e6a97f;}.cls-19,.cls-20,.cls-26{stroke:#933220;stroke-width:0.41px;}.cls-19,.cls-20,.cls-24,.cls-25,.cls-26,.cls-29,.cls-37{stroke-miterlimit:10;}.cls-20{fill:#fac59b;}.cls-21{fill:#ef6a24;}.cls-22{fill:#c85928;}.cls-23{opacity:0.1;}.cls-24{fill:#7294cc;stroke:#1e5699;}.cls-24,.cls-29{stroke-width:0.54px;}.cls-25{fill:#eb4341;}.cls-25,.cls-37{stroke:#a71f24;stroke-width:0.27px;}.cls-27{fill:#cddbeb;}.cls-28{fill:#d59c77;}.cls-29,.cls-36{fill:#592616;}.cls-29{stroke:#3a1911;}.cls-30{fill:#723221;}.cls-31{fill:#dfa57f;}.cls-32{fill:#3a3023;}.cls-33{fill:#fff3e3;}.cls-34{fill:#933220;}.cls-35{fill:#322517;}</style><clipPath id="clip-path"><rect class="cls-1" x="0.3" y="0.3" width="1600" height="900"/></clipPath><linearGradient id="Áåçûìÿííûé_ãðàäèåíò_29" x1="745.02" y1="972.77" x2="745.02" y2="306.86" gradientTransform="matrix(-1, 0, 0, 1, 2257.28, 0)" gradientUnits="userSpaceOnUse"><stop offset="0" stop-color="#302c5f"/><stop offset="1" stop-color="#36c2df"/></linearGradient><linearGradient id="Áåçûìÿííûé_ãðàäèåíò_88" x1="850.17" y1="259.12" x2="876.38" y2="259.12" gradientTransform="matrix(-1, 0, 0, 1, 2257.28, 0)" gradientUnits="userSpaceOnUse"><stop offset="0" stop-color="#92949a"/><stop offset="0.57" stop-color="#725870"/><stop offset="1" stop-color="#c19980"/></linearGradient><linearGradient id="Áåçûìÿííûé_ãðàäèåíò_146" x1="856.37" y1="276.85" x2="856.37" y2="260.27" gradientTransform="matrix(-1, 0, 0, 1, 2257.28, 0)" gradientUnits="userSpaceOnUse"><stop offset="0" stop-color="#fad6ac"/><stop offset="0.57" stop-color="#f19065"/><stop offset="1" stop-color="#e7c7c0"/></linearGradient><linearGradient id="Áåçûìÿííûé_ãðàäèåíò_146-2" x1="880.8" y1="261.17" x2="880.8" y2="253.33" xlink:href="#Áåçûìÿííûé_ãðàäèåíò_146"/><linearGradient id="Áåçûìÿííûé_ãðàäèåíò_18" x1="1246.31" y1="271.06" x2="1482.48" y2="271.06" gradientUnits="userSpaceOnUse"><stop offset="0" stop-color="#ee6b68"/><stop offset="1" stop-color="#c42728"/></linearGradient><linearGradient id="Áåçûìÿííûé_ãðàäèåíò_106" x1="714.69" y1="556.9" x2="764.92" y2="556.9" gradientTransform="matrix(-1, 0, 0, 1, 2257.28, 0)" gradientUnits="userSpaceOnUse"><stop offset="0" stop-color="#f1b590"/><stop offset="1" stop-color="#c2a39e"/></linearGradient><linearGradient id="Áåçûìÿííûé_ãðàäèåíò_106-2" x1="828.3" y1="406.52" x2="975.92" y2="406.52" xlink:href="#Áåçûìÿííûé_ãðàäèåíò_106"/><linearGradient id="Áåçûìÿííûé_ãðàäèåíò_18-2" x1="1198.41" y1="379.68" x2="1339.58" y2="379.68" xlink:href="#Áåçûìÿííûé_ãðàäèåíò_18"/></defs><g class="cls-2"><g id="Layer_1" data-name="Layer 1"><g id="b"><g class="cls-3"><g id="b-2" data-name="b"><polygon class="cls-4" points="1271 390.3 1267.3 176.3 1472 116.7 1472 426.5 1271 390.3"/><polygon class="cls-5" points="1472 306.9 1472 316.2 1476.5 320.6 1482.5 326.4 1492.8 336.4 1542.6 384.7 1507.2 972.8 1532.5 972.8 1552.5 379 1493.2 325.8 1482.5 316.3 1476.4 310.8 1472 306.9"/><polygon class="cls-6" points="1380.9 253.3 1393.8 259.7 1393.8 259.7 1395 260.3 1406.9 266.2 1407.1 257.4 1398.1 252.1 1380.9 253.3"/><polygon class="cls-7" points="1472 316.2 1472 334 1476.6 338.8 1482.5 344.9 1492.4 355.1 1522.8 386.8 1482 958.8 1507.2 972.8 1542.6 384.7 1492.8 336.4 1482.5 326.4 1476.5 320.6 1472 316.2"/><polygon class="cls-8" points="1395 260.3 1394.9 271.4 1406.8 276.9 1406.9 266.2 1395 260.3"/><polygon class="cls-9" points="1359.2 254.9 1372.8 261.2 1393.8 259.7 1380.9 253.3 1380.9 253.3 1359.2 254.9"/><path class="cls-10" d="M1331.7,256.8l27.4-1.9h.1l21.7-1.6h0l12.9,6.4-21,1.5-44.1,3.1Zm75.5-5.3v5.9l-9-5.3Zm-75.5,5.3,27.4-1.9h.1l21.7-1.6h0l17.2-1.2,9.1-.6v5.9l-.2,8.8v10.7l-2,119.3-108.3-19.7-1-29.4h0l-3-87.5Zm-29.6,114.1,91.7,12.1,1.1-111.6V260.3l-1.2-.6h0l-21,1.5-44.1,3.1-30.1,2.1,2.3,67.1Zm29.6-114.1,27.4-1.9h.1l21.7-1.6h0l17.2-1.2,9.1-.6v5.9l-.2,8.8v10.7l-2,119.3-108.3-19.7-1-29.4h0l-3-87.5Zm-29.6,114.1,91.7,12.1,1.1-111.6V260.3l-1.2-.6h0l-21,1.5-44.1,3.1-30.1,2.1,2.3,67.1Zm29.6-114.1,27.4-1.9h.1l21.7-1.6h0l17.2-1.2,9.1-.6v5.9l-.2,8.8v10.7l-2,119.3-108.3-19.7-1-29.4h0l-3-87.5Zm-29.6,114.1,91.7,12.1,1.1-111.6V260.3l-1.2-.6h0l-21,1.5-44.1,3.1-30.1,2.1,2.3,67.1Zm29.6-114.1,27.4-1.9h.1l21.7-1.6h0l17.2-1.2,9.1-.6v5.9l-.2,8.8v10.7l-2,119.3-108.3-19.7-1-29.4h0l-3-87.5Zm-29.6,114.1,91.7,12.1,1.1-111.6V260.3l-1.2-.6h0l-21,1.5-44.1,3.1-30.1,2.1,2.3,67.1Zm29.6-114.1,27.4-1.9h.1l21.7-1.6h0l17.2-1.2,9.1-.6v5.9l-.2,8.8v10.7l-2,119.3-108.3-19.7-1-29.4h0l-3-87.5Zm-29.6,114.1,91.7,12.1,1.1-111.6V260.3l-1.2-.6h0l-21,1.5-44.1,3.1-30.1,2.1,2.3,67.1Zm29.6-114.1,27.4-1.9h.1l21.7-1.6h0l17.2-1.2,9.1-.6v5.9l-.2,8.8v10.7l-2,119.3-108.3-19.7-1-29.4h0l-3-87.5Zm-29.6,114.1,91.7,12.1,1.1-111.6V260.3l-1.2-.6h0l-21,1.5-44.1,3.1-30.1,2.1,2.3,67.1ZM1482.5,98.3V443.8l-232.2-41.9-4-234.8ZM1472,116.7l-38.6,11.2-56.6,16.6-84.6,24.6-4.2,1.2-20.7,6,3.1,182.2.6,31.8,149.7,27,51.3,9.2Zm-65.1,149.5v10.7l-2,119.3-108.3-19.7-1-29.4h0l-3-87.5,39.2-2.7,27.4-1.9h.1l21.7-1.6h0l17.2-1.2,9.1-.6v5.9Zm-13.1-6.5h0l-21,1.5-44.1,3.1-30.1,2.1,2.3,67.1,1.2,37.4,91.7,12.1,1.1-111.6V260.3Zm-62.1-2.9,27.4-1.9h.1l21.7-1.6h0l17.2-1.2,9.1-.6v5.9l-.2,8.8v10.7l-2,119.3-108.3-19.7-1-29.4h0l-3-87.5Zm-29.6,114.1,91.7,12.1,1.1-111.6V260.3l-1.2-.6h0l-21,1.5-44.1,3.1-30.1,2.1,2.3,67.1Zm29.6-114.1,27.4-1.9h.1l21.7-1.6h0l17.2-1.2,9.1-.6v5.9l-.2,8.8v10.7l-2,119.3-108.3-19.7-1-29.4h0l-3-87.5Zm-29.6,114.1,91.7,12.1,1.1-111.6V260.3l-1.2-.6h0l-21,1.5-44.1,3.1-30.1,2.1,2.3,67.1Zm29.6-114.1,27.4-1.9h.1l21.7-1.6h0l17.2-1.2,9.1-.6v5.9l-.2,8.8v10.7l-2,119.3-108.3-19.7-1-29.4h0l-3-87.5Zm-29.6,114.1,91.7,12.1,1.1-111.6V260.3l-1.2-.6h0l-21,1.5-44.1,3.1-30.1,2.1,2.3,67.1Zm29.6-114.1,27.4-1.9h.1l21.7-1.6h0l17.2-1.2,9.1-.6v5.9l-.2,8.8v10.7l-2,119.3-108.3-19.7-1-29.4h0l-3-87.5Zm-29.6,114.1,91.7,12.1,1.1-111.6V260.3l-1.2-.6h0l-21,1.5-44.1,3.1-30.1,2.1,2.3,67.1Zm29.6-114.1,27.4-1.9h.1l21.7-1.6h0l17.2-1.2,9.1-.6v5.9l-.2,8.8v10.7l-2,119.3-108.3-19.7-1-29.4h0l-3-87.5Zm-29.6,114.1,91.7,12.1,1.1-111.6V260.3l-1.2-.6h0l-21,1.5-44.1,3.1-30.1,2.1,2.3,67.1Zm29.6-114.1,27.4-1.9h.1l21.7-1.6h0l17.2-1.2,9.1-.6v5.9l-.2,8.8v10.7l-2,119.3-108.3-19.7-1-29.4h0l-3-87.5Zm-29.6,114.1,91.7,12.1,1.1-111.6V260.3l-1.2-.6h0l-21,1.5-44.1,3.1-30.1,2.1,2.3,67.1Z"/><path class="cls-11" d="M1331.2,255l28.2-2h0l22.3-1.6h0l17.7-1.2,9.3-.7v15.1l-.2,11-2,122.5L1295,377.9l-1-30.2h0l-3-89.9Zm-25,111.2,83.1,11.1,1-101.4.2-10-1.1-.6h0l-19.1,1.4-40,2.8-27.3,1.9,2.1,60.9Z"/><path class="cls-12" d="M1256.8,176.3l3.7,214,139.2,25.1,72.3,13v-1.9l-51.3-9.2-149.7-27c-.9-53.2-3.4-197.6-3.7-214L1472,116.7v-3Z"/><polygon class="cls-12" points="1482.5 98.3 1498.5 98.3 1490.3 443.8 1482.5 443.8 1482.5 98.3"/><polygon class="cls-13" points="1548.4 499.3 1537.8 464.3 1526.8 647 1541.7 698.9 1548.4 499.3"/><polygon class="cls-13" points="1541.1 716.7 1525.2 674 1521.8 730.5 1539 777.4 1541.1 716.7"/><polygon class="cls-14" points="1522.8 386.8 1519 777.4 1542.6 384.7 1492.9 336.4 1492.4 355.2 1522.8 386.8"/><polygon class="cls-13" points="1492.9 333.9 1545.9 383.6 1507.2 972.8 1542.6 384.7 1492.9 336.4 1492.9 333.9"/><polygon class="cls-15" points="1306.3 390 1420.7 408.2 1429 423 1281.4 399.5 1306.3 390"/><polygon class="cls-12" points="1353.6 375.5 1353.6 387.3 1334.1 384.7 1334.1 375.5 1353.6 375.5"/><path class="cls-16" d="M1267.3,471.2c-4.5,0-44.4-.2-44.4-7.5s39.9-7.4,44.4-7.4,44.4.2,44.4,7.4S1271.8,471.2,1267.3,471.2Zm-41.1-7.5c2.6,1.9,17.8,4.5,41.1,4.5s38.5-2.6,41.1-4.5c-2.6-1.9-17.8-4.4-41.1-4.4S1228.8,461.8,1226.2,463.7Z"/><path class="cls-16" d="M1336.2,391.2c-1,3.1-2.2,6.2-3.5,9.2s-3,6-3.8,9.2l-1.2,4.7c-.5,1.6-1,3.2-1.6,4.7-1.4,3-2.6,6.1-3.8,9.2-2.4,6.1-4.2,12.4-6,18.7l-5.3,19c-3.4,12.6-6.9,25.3-9.7,38l-.5,2.3-.4,2.2c-.1,1.5,0,3.1,0,4.7.2,3.3.5,6.5.9,9.8a158.8,158.8,0,0,0,3.3,19.3.9.9,0,0,1-.6.9.7.7,0,0,1-.9-.5h0l-4-19.4c-.7-3.2-1.3-6.5-1.8-9.8a40.6,40.6,0,0,1-.4-5.1l.3-2.7.4-2.4c2.7-13,6.4-25.6,9.8-38.3l5.2-19c1.8-6.3,3.6-12.7,4.8-19.1.6-3.3,1.2-6.5,1.7-9.8a37.2,37.2,0,0,1,1.1-4.8l1.5-4.7c1-3.1,1.2-6.5,1.6-9.8s1.2-6.5,2.1-9.7a5.5,5.5,0,0,1,6.9-3.9,5.7,5.7,0,0,1,4,6.9Z"/><path class="cls-16" d="M1212.6,384.5a87.9,87.9,0,0,1,2.2,9.9c.2,1.6.2,3.3.4,5a38.6,38.6,0,0,0,1,4.9c1.7,6.6,4.6,12.8,4.7,19.6a84.2,84.2,0,0,0,.9,10.1c.5,3.3,1.3,6.6,1.8,9.9l3.8,19.8c1.3,6.6,2.6,13.2,3.6,19.8l1.5,10,.6,5a23.6,23.6,0,0,1,.1,5.3c-.8,7-2.9,13.4-5.1,19.7s-4.3,12.8-6.6,19.1a.7.7,0,0,1-.8.4.6.6,0,0,1-.3-.8h0c2.2-6.3,4.4-12.7,6.1-19.1.8-3.3,1.6-6.5,2.3-9.8a65.4,65.4,0,0,0,1.6-9.7c.2-3-.6-6.3-1.1-9.6l-1.8-9.9-3.7-19.7c-1.3-6.6-2.5-13.2-3.8-19.8-.7-3.2-1.3-6.6-2.1-9.8a83.5,83.5,0,0,0-3-9.7c-2.5-6.3-2.2-13.2-3.2-19.8a40.2,40.2,0,0,0-1-5c-.5-1.6-1.1-3.2-1.5-4.8a78.8,78.8,0,0,1-1.9-9.9,2.7,2.7,0,0,1,5.3-1.1Z"/><path class="cls-16" d="M1303.4,388.3c-.8,3.2-1.7,6.5-2.6,9.7s-2.1,6.4-2.4,9.8c-.1,1.7-.2,3.4-.4,5a38.9,38.9,0,0,1-1.2,4.9c-.8,3.3-1.9,6.5-2.8,9.7a150.3,150.3,0,0,0-4.2,19.7l-3.3,19.8c-2.2,13.3-4.2,26.6-6.1,39.7-1,6.4-1,13.1-1,19.8a121.8,121.8,0,0,0,1.7,20h0a.7.7,0,1,1-1.4.2h0c-1-6.7-1.7-13.3-2.6-20s-1.5-13.5-.9-20.4c1.1-13.6,3.5-26.8,5.8-40l3.6-19.8a192.4,192.4,0,0,0,2.8-20c.3-3.4.5-6.7.8-10.1.2-1.7.4-3.3.7-5s.9-3.2,1.4-4.8a43,43,0,0,0,1.3-10.1l1.2-10a5,5,0,0,1,5.5-4.2,4.9,4.9,0,0,1,4.2,5.5C1303.5,387.9,1303.4,388.1,1303.4,388.3Z"/><path class="cls-16" d="M1245.6,386.1c.4,3.3.6,6.5.7,9.8a63.8,63.8,0,0,0,.3,9.8,91.2,91.2,0,0,1,1.1,19.5,142.2,142.2,0,0,0,.5,19.6l1.3,19.6c.9,13,1.5,26,2.1,39.1a81.5,81.5,0,0,1-1,19.7c-1,6.5-2.2,12.9-3.6,19.4a.7.7,0,0,1-.8.5.8.8,0,0,1-.6-.8h0c3.1-12.6,3.3-25.8,3-38.6s-1.6-26-2.3-39l-1.2-19.6a140.5,140.5,0,0,0-2.2-19.4,91.6,91.6,0,0,1-1.5-19.5,81.6,81.6,0,0,0-1.1-9.8c-.3-3.2-.6-6.5-.7-9.7a3,3,0,0,1,2.9-3.2A3,3,0,0,1,1245.6,386.1Z"/><path class="cls-16" d="M1219.1,423a1.7,1.7,0,0,0-.6-1.5c-.1-.1,0,0,.1,0l1,.5,3,.9a60.6,60.6,0,0,0,6.4,1.2c4.4.7,8.9,1.3,13.4,1.7s8.9.8,13.5.9,9-.2,13.5-.2a242.8,242.8,0,0,0,27-1.2c4.5-.6,8.9-.9,13.4-1.2,2.2-.2,4.4-.6,6.5-1l2.9-.9a2.3,2.3,0,0,0,1.1-.5c.1,0,.3-.1.1-.1a2.1,2.1,0,0,0-.5,1.4,2.5,2.5,0,0,0,.5,1.5c.1.1,0,0-.1,0l-1.2-.4-2.9-.5c-2.1-.3-4.4-.3-6.6-.5-4.4-.3-8.8-.5-13.3-1.1-8.9-1.1-17.9-.9-26.9-1.4a173.9,173.9,0,0,0-27,.3c-4.5.4-8.9,1.1-13.3,1.8l-6.4,1-3,.6-1.1.4s-.2.1,0-.1A1.9,1.9,0,0,0,1219.1,423Zm-6.3,0a4.6,4.6,0,0,1,1.4-3l1.3-1,2.1-1,3.6-1.1,7-1.2c4.6-.5,9.2-.5,13.8-.8,9.2-.3,18.3-.7,27.4-1.3s18.3.2,27.5.2a80.9,80.9,0,0,1,13.8,1.5,64,64,0,0,1,6.9,1.8l3.5,1.2a8.8,8.8,0,0,1,2,.9,5.7,5.7,0,0,1,1.3,1,3.9,3.9,0,0,1,1.4,2.8,4.3,4.3,0,0,1-1.4,2.9,7.7,7.7,0,0,1-1.3.9l-2,.8-3.7.9-6.9,1.2a78.5,78.5,0,0,1-13.7,1.3c-9.2.2-18.3.5-27.4.5-4.6,0-9.1-.4-13.7-.6l-13.7-.4c-4.5-.2-9.1-.4-13.7-.9l-7-.9-3.6-.9-2.1-.8a7.6,7.6,0,0,1-1.4-1A4.1,4.1,0,0,1,1212.8,423Z"/><path class="cls-16" d="M1233.1,507c-.1-.2.2.3.7.5l1.7.9a23.4,23.4,0,0,0,4,1.1,77.2,77.2,0,0,0,8.4,1.2c5.8.4,11.5.5,17.3.5a165.3,165.3,0,0,0,17.2-1,80.9,80.9,0,0,0,8.4-1.2,25,25,0,0,0,3.9-1.1l1.7-.7c.4-.3.5-.7.4-.2s0,.2-.5,0a5.9,5.9,0,0,0-1.6-.7,23.4,23.4,0,0,0-4-1l-8.4-1.1c-5.6-.6-11.4-1-17.1-1.2a164,164,0,0,0-17.2.4,60,60,0,0,0-8.5,1.2l-4,1.1-1.7.8C1233.3,506.8,1233.1,507.3,1233.1,507Zm-2.7,0a2.6,2.6,0,0,1,.3-1.1,1.8,1.8,0,0,1,.5-.7,2.9,2.9,0,0,1,1.1-.9,15,15,0,0,1,2.2-1.1,24,24,0,0,1,4.4-1.2,87.9,87.9,0,0,1,8.7-1.5,173.8,173.8,0,0,1,17.6-1.4,148.6,148.6,0,0,1,17.6.6,64.7,64.7,0,0,1,8.8,1.5,38.1,38.1,0,0,1,4.4,1.5,12,12,0,0,1,2.3,1.1c.4.4.8.5,1.2,1.1a5.5,5.5,0,0,1,.6.8,3.1,3.1,0,0,1,.3,1.3,2.8,2.8,0,0,1-.3,1.3,7,7,0,0,1-.6.9,5.3,5.3,0,0,1-1.2,1,15.8,15.8,0,0,1-2.3,1.1l-4.4,1.2a70.4,70.4,0,0,1-8.8,1.5,174,174,0,0,1-17.6.8,130.3,130.3,0,0,1-17.6-1.3,87.9,87.9,0,0,1-8.7-1.5,23,23,0,0,1-4.3-1.2,11.5,11.5,0,0,1-2.3-1,4.4,4.4,0,0,1-1.1-.9c-.2-.3-.4-.4-.5-.8A2,2,0,0,1,1230.4,507Z"/><polygon class="cls-17" points="1339.6 372.9 1336.9 390 1201.8 384.8 1198.4 369.4 1339.6 372.9"/><polygon class="cls-13" points="1239.6 372.4 1239.6 383.6 1205.2 382 1202.1 372.4 1239.6 372.4"/><polygon class="cls-13" points="1246.3 372.4 1267.3 372.4 1265.2 383.6 1246.4 383.6 1246.3 372.4"/><polygon class="cls-13" points="1292.5 259.5 1295.5 347 1300.9 333.5 1298.6 266.4 1328.7 264.3 1331.7 256.8 1292.5 259.5"/><polygon class="cls-18" points="1467.6 122.6 1464.5 419.1 1343.8 400.1 1443.8 409.3 1435.5 134.8 1467.6 122.6"/><polygon class="cls-13" points="1319.3 154.7 1312.1 149.5 1249.2 168.3 1256.8 172.7 1319.3 154.7"/><polygon class="cls-13" points="1322.2 154 1315.4 148.7 1339.1 142 1344.7 147.8 1322.2 154"/><path class="cls-19" d="M225.4,732.8c14.5-.6-54.9-28.1,50.4-3.3,11.9,2.8,42.8-4.1,46.3-9.6,2.1-3.2-1.1-6.4-.9-10.2.9-15,1.8-30.1.3-45-1.6-17-6.3-33.6-11-50.1-.9-3.1-12.3-29-13.2-32.1l45.4,13.3s17.7,112.8,3,152.2c0,0-23.7,27.5-111.9,6.1Z"/><path class="cls-20" d="M233.4,698.6s-14,13.1-3.3,33.9-34.2,4.7-34.2,4.7,9.4-24.5-7.1-38.6,40.7,0,40.7,0"/><ellipse class="cls-21" cx="310" cy="546" rx="61.9" ry="62" transform="translate(-242.2 844.9) rotate(-88.8)"/><path class="cls-22" d="M356.1,528.3c9.1,1.9,14.2,10.6,15.8,13.7a59,59,0,0,0-1-7.5,24.5,24.5,0,0,0-14.1-9.4c-5.9-1.2-12.3.2-19.1,4.1a97.5,97.5,0,0,0-11.1-13.6c11.5-6.6,21.9-10.2,30.2-10.2-.9-1.1-1.9-2.1-2.9-3.1-8.5.7-18.7,4.6-29.7,10.9-1.8-1.7-3.6-3.3-5.3-4.7s-3.2-2.6-4.8-3.8c4.4-2.5,7.9-5.4,9.8-9a14,14,0,0,0,1.3-9.7l-3.6-.8c1,3.4.9,6.3-.6,9s-5.3,6-9.9,8.4a107.6,107.6,0,0,0-25.8-13.4l-4.3,2.1h.2c.2,0,12.3,3.3,26.5,12.8-6.9,3-15.6,5.3-24,7.7-12.8,3.5-25.1,6.9-31.8,12.4a59.5,59.5,0,0,0-2.5,8.5,1.6,1.6,0,0,0,.7-.9c2.6-8,18.8-12.5,34.4-16.9,9.3-2.5,18.8-5.2,26.3-8.7,2,1.5,4.1,3,6.1,4.8s2.9,2.5,4.4,3.9a178.3,178.3,0,0,0-25.7,19.2c-16.1,14.3-32.8,33.7-36.4,47.3.8,1.2,1.7,2.3,2.6,3.4,1.3-10.8,16-30.6,36-48.3a186.3,186.3,0,0,1,25.9-19.3A100.6,100.6,0,0,1,335,531a58.6,58.6,0,0,0-9,7.4c-4.7,4.4-8.4,19.1-12.3,34.6s-7.6,30-11.8,34.4l3.7.3c4.2-6.3,7.7-19.8,11.2-33.9s7.5-29.3,11.4-33.1a71.6,71.6,0,0,1,8.6-7c8.8,14,15.6,32.7,15.8,57.2l3.2-3.2c-.7-23.7-7.5-42-16.3-55.8C345.5,528.5,351,527.3,356.1,528.3Z"/><path class="cls-23" d="M311.3,484.1a79.8,79.8,0,0,0-9.9.6,61.9,61.9,0,0,1-2.5,122.2,63.8,63.8,0,0,0,9.8,1,61.9,61.9,0,1,0,2.6-123.8Z"/><path class="cls-24" d="M281.4,900.3H240.9a403.4,403.4,0,0,1-50.6,4.4c-33.5.6-30.4,15.4-29.3-9,3.3-73.7,3.7-120.9,10.5-145.4,4.7-17.4,12.2-29.9,22.3-32.2a17.5,17.5,0,0,1,4.6-.3l1,.7a37.1,37.1,0,0,0,22,7.2c2-.1,5.2-3,7-2s2.5,1.7,3.6,2.5c11.3,8.2,15.7,18.3,22.2,31.3l2.1,3.9,2.4-6.1S281.4,844.2,281.4,900.3Z"/><path class="cls-25" d="M237.8,775.7c2.4,22.9-12.4,35.8-26.2,35.8-9.9,0-35.7-6.8-35.7-44.1,0-27,12.7-40.9,26.3-41.6C230.4,724.3,236.6,764,237.8,775.7Z"/><path class="cls-20" d="M236.1,779.7s-3.9,10.7-9,18c-11,15.5-54.2,12.1-46.6-46.7,1.4-10.8,9.5-21.5,14.9-23.7a21.3,21.3,0,0,1,14.1-.7"/><path class="cls-26" d="M241.8,745.7c10.5,6.5-17.6,9-5.7,12"/><path class="cls-27" d="M258,800.2a124.2,124.2,0,0,1-15.1,36.7,90.5,90.5,0,0,0,25.5-41.6l2.8,35.9c.4,5,.8,10.3-1,15L265,823.3c-1.7,14.4-13,25.6-24.4,34.6-6.4,5.1-13.1,9.9-20,14.4a164.9,164.9,0,0,0,24.6-35.6c-3.5,6.9-21.1,17.7-28.3,18.1,13.2-15.2,15.5-19.7,20.7-25.5C246.6,819.2,250.7,811.6,258,800.2Z"/><path class="cls-20" d="M275.3,636.3c1.7,2.7,5.5,5.3,8.4,6.5a2.3,2.3,0,0,1,.7,3.9,46.5,46.5,0,0,1-6.6,4.8c2.8.7,5.8,1.5,7.4,3.8s.3,6.5-2.5,6.3c2.2,5,1.5,10.9-.4,16-5.3,14.6-19,24.7-33.5,30.1-12.3,4.6-40.9,4.4-46.3,3-.5-.1-.8-.2-.9-.4a63.6,63.6,0,0,0-7,4.1c-6.3,4.1-20.6,6.1-44.5-7.9-60.7-35.7-85-81-42.4-128,20.3-22.5,42.1-28.7,61.1-27.3,20.8,1.4,38.2,11.8,46.7,19.5,4.5,4.1,9.2.9,13,5.5,8.8,10.8,15.6,30.3,25.1,40.7,3.1,3.5,7.7,6.8,12,5.2s5-6.3,9.7-5.7S278.2,632.2,275.3,636.3Z"/><path class="cls-28" d="M227.8,583.9l-1.7-.2c-5.6-.7-11.2-1.1-16.9-1.7l-9.7-1.3c-2-.3-7.9-.2-9.4-1.5a95.3,95.3,0,0,1,17,19.9l-6-.8c-16.7-2.3-33.8,1.7-49.6,7.6a34.3,34.3,0,0,1,31.1,39.7c-.5,3.2-1.6,6.5-4.2,8.5a12.8,12.8,0,0,1-6.7,2c-8.8.9-18.2-.8-25.2-6.4-4.6-3.6-7.8-8.5-11-13.4l-10.3-15.9c-2-3-4-6.3-3.6-9.9s1.5-4.4,2.5-6.6c3.1-6.2,4.4-13.2,7.5-19.5,5.3-11.2,15.4-19.2,25.6-26.1a124,124,0,0,1,11.6-7.1c20.8,1.4,38.2,11.8,46.7,19.5A127.4,127.4,0,0,1,227.8,583.9Z"/><path class="cls-29" d="M238.6,588.2c-6.2-8.1-16.8-11.4-26.7-13.8a348.5,348.5,0,0,0-60.1-8.8c15.7,6.5,32.1,13.4,42.5,26.7a76,76,0,0,0-56.1,15.4c5.3-1.4,11,.6,15.8,3.4,19.5,11.2,31.9,28.1,31.6,46.7-2.2-2.5-20.6-4.5-23.8-5.5,1.8,1.4,16.8,18,18,19.9-8.9-.5-20.1-2.7-28,1.3-3.6,1.8-7.2,4.5-7.5,8.4-.2,2.3.9,4.5,2,6.4,4.4,7.5,5.3,10.1,11.9,15.8,5,4.3,10.9,8.4,18.2,9.9s21.3-.1,24.8-4.2c.9.7-21.3,17.7-60.1,7.9h0a129,129,0,0,1-22.2-8.1c-66.1-30.9-44.6-92.3-44.6-92.3,12.2-95.1,107.2-83.9,107.2-83.9,27,3.2,41.3,17,48.8,29.9h0A62.6,62.6,0,0,1,238.6,588.2Z"/><path class="cls-30" d="M232.5,564.7c-11-13.1-27.6-21.2-44.7-23.4-18.6-2.5-37.6,1.5-54.8,8.7a70.3,70.3,0,0,0-17,9.4c-7.1,5.6-12.3,13.1-17,20.8a223,223,0,0,0-14.7,28.3A196.6,196.6,0,0,1,105,595.2a80.4,80.4,0,0,0-22.6,39.9,14.3,14.3,0,0,1,14.7-5.4c-9,2.9-14.7,12.5-15.1,22s3.5,18.6,8.5,26.6a98.9,98.9,0,0,0,52.8,40.8,129,129,0,0,1-22.2-8.1C55,680.1,76.5,618.7,76.5,618.7c12.2-95.1,107.2-83.9,107.2-83.9C210.7,538,225,551.8,232.5,564.7Z"/><path class="cls-31" d="M174.4,702.9c4.7,3,10.5,4.7,16,3.8,2.3-.4,5-1.8,4.9-4.2s-3.3-3.6-5.8-3.4-7.1,1.4-8.4-1.4,1.8-3.7,3-5.7c3.6-5.6,1.6-10.6-5-12.2-4.5-1-17.6-.7-19.2,4.7S170.3,700.3,174.4,702.9Z"/><path class="cls-32" d="M217.6,637.1s-9.2-16.2,2-29.9a8.1,8.1,0,0,1,9.2-2.5c3.4,1.4,7.9,5.1,13.1,13.6C254.1,637.9,235.9,644.7,217.6,637.1Z"/><path class="cls-33" d="M219.4,637.6s-9.1-15.9,1.6-29.2a7.9,7.9,0,0,1,9-2.3c3.3,1.4,7.7,5,12.9,13.3C254.9,638.8,237.3,645.3,219.4,637.6Z"/><path class="cls-34" d="M219.4,637.6a31.7,31.7,0,0,1-3.6-12.5,24.4,24.4,0,0,1,.4-6.6,24.2,24.2,0,0,1,2.2-6.2l.8-1.4.9-1.4a11.3,11.3,0,0,1,1-1.3,4.3,4.3,0,0,1,1.2-1.1,7.9,7.9,0,0,1,6.3-1.6,8.1,8.1,0,0,1,3,1.3,13.1,13.1,0,0,1,2.7,1.9,30,30,0,0,1,4.6,4.8,63,63,0,0,1,3.7,5.3,33.2,33.2,0,0,1,3.1,5.9,15.5,15.5,0,0,1,1.2,6.4,8.8,8.8,0,0,1-2.5,6,10.5,10.5,0,0,1-2.7,2,10.8,10.8,0,0,1-3,1.1,24.6,24.6,0,0,1-6.6.6A37.1,37.1,0,0,1,219.4,637.6Zm0,0a37,37,0,0,0,12.7,3.1,23.5,23.5,0,0,0,6.5-.6,16.6,16.6,0,0,0,3.1-1.2,11.5,11.5,0,0,0,2.6-1.9,9,9,0,0,0,2.4-5.9,15.4,15.4,0,0,0-1.2-6.3,29.3,29.3,0,0,0-3.1-5.8,40.4,40.4,0,0,0-3.8-5.4,28.5,28.5,0,0,0-4.5-4.7,15.7,15.7,0,0,0-2.6-1.9,6.6,6.6,0,0,0-3-1.2,7.4,7.4,0,0,0-6.1,1.4l-1.2,1.1-.9,1.4-1,1.3-.8,1.4a25.3,25.3,0,0,0-2.2,6.2,28.1,28.1,0,0,0-.4,6.5A32,32,0,0,0,219.4,637.6Z"/><ellipse class="cls-35" cx="233.8" cy="618.7" rx="7.6" ry="10.7" transform="translate(-299.9 228) rotate(-33.1)"/><circle class="cls-33" cx="227.5" cy="617.6" r="2.9"/><path class="cls-34" d="M254.4,653.1a25.1,25.1,0,0,0,5.9,1.8,25.9,25.9,0,0,0,6.2.2l3.1-.5,2.9-1a22.3,22.3,0,0,0,5.4-3.1,25.8,25.8,0,0,1-5.3,3.2,26.5,26.5,0,0,1-3,1.1,15.7,15.7,0,0,1-3,.5,22.2,22.2,0,0,1-6.3,0,26.4,26.4,0,0,1-6.1-1.7Z"/><path class="cls-36" d="M202.2,607.8s-3.5-16.6,14.1-15.9C216.3,591.9,208.2,593,202.2,607.8Z"/><path class="cls-25" d="M233,725.9c-16.6,9.3-33.6-1.3-39.3-7.3a7.9,7.9,0,0,1,5.1-.9l1.6,1.7a31.8,31.8,0,0,0,22.5,5.8c4.1-.6,5.4-2.3,7.2-1.2Z"/><path class="cls-20" d="M221.6,778.1c14.8,2.5,43.7.2,43.7.2s67.3-5.4,85.2-20.9c0,0,5.5-16.3,2-39.4s-9.7-89.2-19.3-111.9c0,0,.1-4.8-15.9-10.4s-14.7-5.3-14.1-9.6l3.6-27.6a10.2,10.2,0,0,0,.1-4.6,4.4,4.4,0,0,0-2.8-3.4,4,4,0,0,0-4,1c-2.6,2.2-3.4,5.8-4.2,9.1-1.5,6.8-3.1,13.7-4.8,20.5-.1.3-.5.7-.6.3-1.8-5.7-4.2-11.1-4.1-17.2s.5-12.3-1.4-18c-.4-1.4-1.6-3.1-3-2.6a8.1,8.1,0,0,0-5.9,5,19.1,19.1,0,0,0-1,7.9,157.8,157.8,0,0,0,2.9,28.2c-3.2-5-6.7-10.3-8.5-15.9-2.3-7.3-2.3-15.8-7.4-21.6-1.9-2.2-6.4-.4-7.7,2.1s-.5,5.2.2,7.8l5.1,18.4c-2.7-6-7.2-12.3-11.4-17.4a8.8,8.8,0,0,0-2.7-2.4c-2.3-1-4.9,0-7.1,1.1,0,0-6.5,2.6,2.1,12.5s24.7,27.4,27.5,31.5,36.9,14,41.5,19.6,5.3,20.9,5.2,47.1,3.7,61.2,3.7,61.2-51.6,8.4-99-3c0,0-26-4-32,8.7"/><path class="cls-26" d="M308.6,619.7a13.7,13.7,0,0,0,9,2.7"/><path class="cls-26" d="M257.3,570.7a95.8,95.8,0,0,0,13.2,22.2"/><path class="cls-26" d="M318,728.8c3.6-1.6,11.8,1.8,9.9.7"/><path class="cls-37" d="M230.4,779.2c.1.1.2-.3,0-.3s-.3.2-.4.4c-2.2,4.6-7.4,7.1-12.2,9"/></g></g></g></g></g></svg>