<svg id="Layer_1" data-name="Layer 1" xmlns="http://www.w3.org/2000/svg" width="120" height="160" viewBox="0 0 120 160">
  <defs>
    <style>
      .cls-1 {
        fill: #d8c23f;
      }

      .cls-1, .cls-11, .cls-4 {
        stroke: #938c09;
      }

      .cls-1, .cls-11, .cls-3, .cls-4 {
        stroke-miterlimit: 10;
      }

      .cls-2 {
        fill: #d0e8ec;
        opacity: 0.4;
      }

      .cls-3, .cls-5 {
        fill: #ffeb8a;
      }

      .cls-3 {
        stroke: #c4b716;
      }

      .cls-4 {
        fill: #ffe400;
      }

      .cls-6 {
        fill: #c4b716;
      }

      .cls-7 {
        fill: #231f20;
      }

      .cls-8 {
        fill: #d82e2a;
      }

      .cls-9 {
        fill: #b22424;
      }

      .cls-10 {
        fill: #ef4136;
      }

      .cls-11 {
        fill: #ffeb57;
      }
    </style>
  </defs>
  <g>
    <path class="cls-1" d="M45.11,80.25c-5.45,2.34-6.55,13.11-7.65,17.94-1.92,10.92-5.54,21.33-13.11,30.18l.14-.36c6.4-2.85,15-13.37,18.27-19.93,0,4-2.87,7.47-4.92,10.82,4.9-2.9,7.23-7,10.36-11.18-.41,3-2,6.15-3.08,9,14.11-10.07,15.91-30.53,0-36.46Z"/>
    <g>
      <g>
        <path class="cls-2" d="M51,137.36c-5.18,1.27-32.19,14.59,51.6,10.89C69.55,152.33,5.08,147.92,51,137.36Z"/>
        <g>
          <path class="cls-3" d="M95.59,115.74c6-.81,11.78,1.75,18.74-1.48-1.64,5-6.08,7.81-10.52,10.66a32.74,32.74,0,0,1,4-.73,6.27,6.27,0,0,1-4.17,2.42c.62,0,1,0,1.62,0-1.56,2.37-8.47,5-10.62,2.4-1-1.43.66-8.43.46-10.59Z"/>
          <path class="cls-4" d="M81.07,93.38C75.4,87.6,70.24,79.74,69.57,72a40.21,40.21,0,0,0,14-2.41c3.27-1.25,7-2.73,8.68-5.75,1.61-2.82-1.12-4.66-1.65-7.44A29,29,0,0,1,90.24,51c0-4.63,1.64-9.58.43-14.11-1.43-5.41-5.6-10.18-10.84-13a33.78,33.78,0,0,0-14.44-3.59C58.84,20,55,22.06,49.89,25.78,46.17,28.51,44,32.27,41.74,36a34.58,34.58,0,0,1-6.61,8.38c-1.47,1.22-2.35,1.4-2.31,3.32a12.73,12.73,0,0,0,1.34,4.78,29.29,29.29,0,0,0,6.54,8.68,41.1,41.1,0,0,0,9,6.85c-1.65,7.84-6,15.07-8.13,22.8-2.74,9.73-2.92,23.68,2,32.77,7.26,13.26,31.86,26.54,49.1,15.89C111.38,127.94,91.39,103.91,81.07,93.38Z"/>
          <g>
            <path class="cls-5" d="M71.69,21.23c-2.64-4.16-8.45-5.1-10.35-10-1.27,2,.16,4.48,1.53,6.23a15.6,15.6,0,0,1-2.51-1.82c-.3,1.12.7,2.38,1.6,3.42a5.86,5.86,0,0,1-2.7-1.36c.25,7.34,7.58,4.42,12.49,6.08Z"/>
            <path class="cls-6" d="M71.69,21.23A11.3,11.3,0,0,0,69.1,18.7c-1-.72-2-1.32-3-2a19.11,19.11,0,0,1-2.95-2.24,9,9,0,0,1-2.16-3.13l.76.08a3.23,3.23,0,0,0-.13,2.91,10.44,10.44,0,0,0,1.67,2.8L64.72,19l-2.09-1.16A15.46,15.46,0,0,1,60,16l.8-.24a2.1,2.1,0,0,0,.36,1.48,10.89,10.89,0,0,0,1.12,1.51l.91,1.07-1.37-.3A6.49,6.49,0,0,1,59,18l.75-.36A5.43,5.43,0,0,0,60.79,21,5.12,5.12,0,0,0,64,22.52c2.51.4,5.23.18,7.75,1.11l-.15.1Zm0,0,.17,2.5v.15l-.16,0a15,15,0,0,0-3.84-.47c-1.3,0-2.61,0-3.94-.18a5.85,5.85,0,0,1-3.77-1.62,6.36,6.36,0,0,1-1.36-3.9l-.06-1.06.81.7a5.5,5.5,0,0,0,2.51,1.24l-.46.77a11.52,11.52,0,0,1-1.24-1.62,4.2,4.2,0,0,1-.45-1,2.32,2.32,0,0,1,0-1.23l.22-.77.59.53A15.23,15.23,0,0,0,63.1,17l-.61.71a11.29,11.29,0,0,1-1.77-3.08,5.08,5.08,0,0,1-.31-1.84A3.62,3.62,0,0,1,61,11l.47-.7.29.78A8.52,8.52,0,0,0,63.59,14a19.33,19.33,0,0,0,2.77,2.3c1,.69,2,1.41,2.93,2.2A10.25,10.25,0,0,1,71.69,21.23Z"/>
          </g>
          <path class="cls-7" d="M59.4,46.09c-.9,1.49-.94,3-.1,3.47s2.25-.45,3.15-1.94.94-3,.09-3.47S60.29,44.59,59.4,46.09Z"/>
          <path class="cls-7" d="M41.41,37.28c-.72,1.57-.59,3.12.29,3.47s2.19-.66,2.92-2.23.59-3.12-.3-3.46S42.14,35.71,41.41,37.28Z"/>
          <path class="cls-8" d="M41.31,44.32l.29-.07a7.28,7.28,0,0,1,4.69,1,8.34,8.34,0,0,1,3.22,3.9c1.09,2.59-1.46,5.1-4.06,5.56-2.32.41-4.73,0-7,.45-2.64.49-4.88,1.68-4.07-1.88a14.62,14.62,0,0,1,3.38-5.73C38.71,46.41,39.71,44.79,41.31,44.32Z"/>
          <path class="cls-9" d="M46.62,50.08c-.24,1.11-1.79,1.51-2.82,1.56-2.56.27-4.28-.36-6.39,1.32-.26-1.12,2.91-6,4.23-6,.72,0,1.67,1.75,2.26,2.24a6.87,6.87,0,0,0,2.42.84Z"/>
          <path class="cls-10" d="M40.87,32c1.12,1.47-.44,4.24,1.13,6.28,1.22,1.65,3.42,2.27,5.1,3.47a7.56,7.56,0,0,1,1.83,2.18c1.5,2,2,7.55-.77,7.73C46,51.8,44.67,50.11,43.27,49a26.4,26.4,0,0,0-5-3.3c-2.83-2.1-4.47-4.89-3.51-8.27C35.14,35.78,39,29.31,40.87,32Z"/>
        </g>
      </g>
      <path class="cls-11" d="M78.26,90.58c4.47,2.41,4.52,12,5.06,16.36.74,9.79,3,19.24,8.73,27.55l-.09-.33c-5.25-2.92-11.74-12.77-14-18.78-.33,3.51,1.84,6.8,3.31,9.89-4-2.87-5.62-6.62-8-10.54.1,2.72,1.19,5.56,1.89,8.15-11.26-9.79-11.1-28,3.05-32.3Z"/>
    </g>
  </g>
</svg>
