<svg id="Layer_1" data-name="Layer 1" xmlns="http://www.w3.org/2000/svg" width="140" height="110" viewBox="0 0 140 110">
  <defs>
    <style>
      .cls-1 {
        opacity: 0.8;
      }

      .cls-2 {
        fill: #d0e8ec;
      }

      .cls-3 {
        fill: #ffeb57;
      }

      .cls-13, .cls-3, .cls-5 {
        stroke: #938c09;
      }

      .cls-13, .cls-3, .cls-4, .cls-5 {
        stroke-miterlimit: 10;
      }

      .cls-4, .cls-6 {
        fill: #ffeb8a;
      }

      .cls-4 {
        stroke: #c4b716;
      }

      .cls-5 {
        fill: #ffe400;
      }

      .cls-7 {
        fill: #c4b716;
      }

      .cls-8 {
        fill: #231f20;
      }

      .cls-9 {
        fill: #d82e2a;
      }

      .cls-10 {
        fill: #b22424;
      }

      .cls-11 {
        fill: #ef4136;
      }

      .cls-12 {
        fill: #ceb500;
      }

      .cls-13 {
        fill: #d8c23f;
      }
    </style>
  </defs>
  <g>
    <g class="cls-1">
      <ellipse class="cls-2" cx="90.2" cy="88.51" rx="9" ry="24.27" transform="translate(-2.21 174.71) rotate(-87.47)"/>
    </g>
    <g>
      <path class="cls-3" d="M83.94,48.5s-11.94-13.93-1.5-31c0,0-10.94,7-11.17,17.75a20,20,0,0,1,1.85-19.39S56.31,27.76,68.79,50.34Z"/>
      <g>
        <path class="cls-4" d="M118,55.44c1-1.11,2.79-1.39,4.53-1.66,5.59-1.88,9.25-3.86,13.46-8.32-.64,4.55-2.25,9-5.7,12.29,1-.85,2.79-1.39,3.75-2.24-.08,3-2.28,5.45-4.49,7.05a6.32,6.32,0,0,0,1.34-1c-.54,4.28-6.42,7-9.89,8.4,0-3.59,2.72-11.27-1.06-13.51Z"/>
        <path class="cls-5" d="M115.13,50.21a46.65,46.65,0,0,0-29.31-7.59c-7.46.55-14.33,3.59-21.63,4.69a11.77,11.77,0,0,1-2-2.59,32.19,32.19,0,0,1-1.94-5.34c-1.39-4.6-1.3-9.87-3.8-14.13A24.89,24.89,0,0,0,42.2,14.55,33.49,33.49,0,0,0,27.28,14c-6.35,1.1-9.47,3.93-13.2,8.68-2.75,3.49-3.71,7.68-4.76,11.87-.78,3.13-2,7-3.83,9.71-1,1.52-1.83,1.88-1.22,3.79A15,15,0,0,0,7,52.5a33.9,33.9,0,0,0,8.87,7.29c7.41,4.52,13.65,6.5,20.93,6.26C39,70.3,45.42,75.77,47.87,78.14c14,11.49,41.45,19.26,58.37,12a28.64,28.64,0,0,0,16-16.44C125.36,65,123.8,56.16,115.13,50.21Z"/>
        <g>
          <path class="cls-6" d="M33.6,13.63C29.84,10,24,10.29,20.69,5.76,20.06,8,22.18,10.18,24,11.64a16.5,16.5,0,0,1-2.94-1.29c0,1.18,1.38,2.22,2.55,3.08a6.35,6.35,0,0,1-3-.8c2.44,7.26,8.59,2.84,13.79,3.47Z"/>
          <path class="cls-7" d="M33.6,13.63a12.51,12.51,0,0,0-3.23-2c-1.15-.52-2.37-.9-3.56-1.37a22.35,22.35,0,0,1-3.52-1.63A10.42,10.42,0,0,1,20.34,6l.76-.14a3.59,3.59,0,0,0,.78,3,12.12,12.12,0,0,0,2.43,2.42l2,1.58-2.46-.75a17.53,17.53,0,0,1-3-1.31l.74-.46a2.4,2.4,0,0,0,.8,1.45,13.94,13.94,0,0,0,1.53,1.27l1.17.87-1.45,0A6.74,6.74,0,0,1,20.41,13l.64-.53a6.5,6.5,0,0,0,2,3.08,5.21,5.21,0,0,0,3.5.94c2.56-.1,5.22-.93,7.91-.52l-.12.14Zm0,0,.91,2.43.06.16h-.18a14.28,14.28,0,0,0-3.9.34c-1.29.23-2.59.52-3.95.63a6,6,0,0,1-4-.94,7.28,7.28,0,0,1-2.31-3.47l-.41-1.09,1.05.56a6.09,6.09,0,0,0,2.78.72l-.28.85a14.65,14.65,0,0,1-1.66-1.35,4.91,4.91,0,0,1-.72-.89,2.62,2.62,0,0,1-.39-1.2l0-.89.78.43a16.05,16.05,0,0,0,2.84,1.28l-.44.82a13.14,13.14,0,0,1-2.57-2.64,5.81,5.81,0,0,1-.85-1.73,3.67,3.67,0,0,1,0-2l.24-.84.51.71A10.09,10.09,0,0,0,23.67,8,21.18,21.18,0,0,0,27,9.77c1.17.49,2.35,1,3.49,1.6A11.29,11.29,0,0,1,33.6,13.63Z"/>
        </g>
        <path class="cls-8" d="M32.13,40.94A5.17,5.17,0,0,1,32,42.66c-.41,1.67-1.51,2.82-2.44,2.58s-1.36-1.81-.95-3.48c0-.14.09-.28.13-.42Z"/>
        <path class="cls-8" d="M12,37.86c0,.11,0,.22,0,.33-.1,1.67-.92,2.94-1.84,2.84s-1.59-1.52-1.49-3.19A4.43,4.43,0,0,1,9.19,36Z"/>
        <path class="cls-9" d="M28.33,49.36c-.85,3.31-8.63,5.81-11.64,7.79-8.14,6.27-8.11-8.47-5-12.63,5.52,2,11.1,2.86,16.62,4.84Z"/>
        <path class="cls-10" d="M22.59,49.13C20.92,52,16.42,52.38,14,54.7c-.15-2.26,0-4.53.09-6.73,3,.62,5.29,1.75,8.35,1.23Z"/>
        <path class="cls-11" d="M4.88,40.4c1.24-2.55,3.28,0,5.89,0,3-.12,5.11-2.35,7.91-1.94,3.77.26,6.43,2.84,6.2,6,4.13,2.36,6,6.08-.79,6.42C20.8,50.87,1.92,45.91,4.88,40.4Z"/>
        <path class="cls-12" d="M62.29,45.59S82.58,59,44.7,65C44.7,65,64,59.31,62.29,45.59Z"/>
      </g>
      <path class="cls-13" d="M82.72,57.11s21.06-8.91,19.35-29.82c0,0,4.15,8,1.71,20.91,0,0,11.71-9.11,10.56-22.81,0,0,2.68,9.42-4.08,23,0,0,10.24-7.7,11.94-19.9C122.2,28.44,112.32,86.53,82.72,57.11Z"/>
    </g>
  </g>
</svg>
