<svg id="Layer_1" data-name="Layer 1" xmlns="http://www.w3.org/2000/svg" width="120" height="160" viewBox="0 0 120 160">
  <defs>
    <style>
      .cls-1 {
        fill: #d0e8ec;
        opacity: 0.8;
      }

      .cls-2 {
        fill: #d8c23f;
      }

      .cls-11, .cls-2, .cls-4 {
        stroke: #938c09;
      }

      .cls-11, .cls-2, .cls-3, .cls-4 {
        stroke-miterlimit: 10;
      }

      .cls-3, .cls-5 {
        fill: #ffeb8a;
      }

      .cls-3 {
        stroke: #c4b716;
      }

      .cls-4 {
        fill: #ffe400;
      }

      .cls-6 {
        fill: #c4b716;
      }

      .cls-7 {
        fill: #231f20;
      }

      .cls-8 {
        fill: #d82e2a;
      }

      .cls-9 {
        fill: #b22424;
      }

      .cls-10 {
        fill: #ef4136;
      }

      .cls-11 {
        fill: #ffeb57;
      }
    </style>
  </defs>
  <g>
    <ellipse class="cls-1" cx="77.81" cy="138.49" rx="24.27" ry="9" transform="translate(-4.53 2.64) rotate(-1.89)"/>
    <g>
      <path class="cls-2" d="M47.29,81c-4.71-2.13-12.24,3.57-16,5.74C23.2,92,14.4,95.88,4.29,96.25l.3-.12c5.6,2.44,17.39,1.73,23.51,0-2.54,2.36-6.47,2.59-9.82,3.26,4.74,1.45,8.71.53,13.26,0-2.2,1.55-5.1,2.38-7.57,3.36,14.75,3.13,28.9-7.9,23.32-21.73Z"/>
      <g>
        <path class="cls-3" d="M95.87,115.54c6-1.05,11.85,1.27,18.66-2.24-1.42,5-5.75,8.06-10.07,11.08a33.05,33.05,0,0,1,4-.89,6.26,6.26,0,0,1-4.07,2.58c.62,0,1-.08,1.62-.06-1.46,2.43-8.25,5.38-10.51,2.83-1.06-1.39.31-8.45,0-10.6Z"/>
        <path class="cls-4" d="M80.45,93.8c-5.9-5.54-11.38-13.19-12.37-20.9a40.43,40.43,0,0,0,13.87-3c3.21-1.38,6.84-3,8.43-6.1,1.49-2.89-1.31-4.61-1.95-7.37A28,28,0,0,1,87.88,51c-.2-4.62,1.24-9.63-.15-14.12-1.66-5.34-6-9.94-11.36-12.54a33.86,33.86,0,0,0-14.58-3c-6.56,0-10.36,2.21-15.26,6.13-3.6,2.88-5.62,6.72-7.73,10.56a34.47,34.47,0,0,1-6.26,8.64c-1.41,1.28-2.29,1.5-2.17,3.42a12.8,12.8,0,0,0,1.54,4.71,29,29,0,0,0,6.89,8.41,41.06,41.06,0,0,0,9.26,6.47c-1.33,7.9-5.34,15.31-7.2,23.12-2.33,9.83-1.94,23.78,3.4,32.66,7.8,13,32.92,25.22,49.71,13.86C112.15,127.09,91.19,103.9,80.45,93.8Z"/>
        <g>
          <path class="cls-5" d="M68.12,22.1c-2.8-4.06-8.65-4.75-10.75-9.62-1.19,2,.34,4.47,1.78,6.16a15.13,15.13,0,0,1-2.57-1.72c-.26,1.14.79,2.35,1.73,3.36A6.15,6.15,0,0,1,55.55,19c.56,7.32,7.76,4.11,12.73,5.56Z"/>
          <path class="cls-6" d="M68.12,22.1a11.25,11.25,0,0,0-2.68-2.43c-1-.68-2.09-1.24-3.13-1.87a19.6,19.6,0,0,1-3.05-2.12,9.11,9.11,0,0,1-2.28-3l.76,0a3.26,3.26,0,0,0,0,2.92,10.54,10.54,0,0,0,1.78,2.72l1.56,1.8-2.13-1.07a15.64,15.64,0,0,1-2.68-1.75l.8-.28a2.13,2.13,0,0,0,.42,1.47A10.42,10.42,0,0,0,58.66,20l1,1-1.38-.24a6.6,6.6,0,0,1-3-1.37L56,19a5.46,5.46,0,0,0,1.23,3.32,5.1,5.1,0,0,0,3.29,1.38c2.53.3,5.24,0,7.79.79l-.14.12Zm0,0,.27,2.48,0,.16-.16,0a14.6,14.6,0,0,0-3.85-.31c-1.3,0-2.61.08-4,0a5.89,5.89,0,0,1-3.83-1.46,6.31,6.31,0,0,1-1.52-3.85L55,18l.85.68a5.65,5.65,0,0,0,2.55,1.13L58,20.6A11.24,11.24,0,0,1,56.66,19a4.35,4.35,0,0,1-.49-1,2.31,2.31,0,0,1-.08-1.23l.18-.78.62.5a14.06,14.06,0,0,0,2.48,1.68l-.58.73a11.17,11.17,0,0,1-1.9-3,5.28,5.28,0,0,1-.38-1.82,3.61,3.61,0,0,1,.5-1.86l.43-.72.32.77a8.51,8.51,0,0,0,2,2.85,18.52,18.52,0,0,0,2.85,2.18c1,.66,2,1.33,3,2.08A10.32,10.32,0,0,1,68.12,22.1Z"/>
        </g>
        <path class="cls-7" d="M56.86,47.43c-.84,1.53-.81,3.09,0,3.48s2.23-.54,3.07-2.07.81-3.08,0-3.47S57.69,45.9,56.86,47.43Z"/>
        <path class="cls-7" d="M38.53,39.37c-.66,1.6-.46,3.14.43,3.45s2.16-.74,2.82-2.34.47-3.14-.43-3.45S39.19,37.77,38.53,39.37Z"/>
        <path class="cls-8" d="M38.72,46.41l.28-.09a7.35,7.35,0,0,1,4.73.82A8.24,8.24,0,0,1,47.1,50.9c1.2,2.54-1.24,5.15-3.83,5.72-2.3.51-4.71.21-7,.73-2.62.6-4.8,1.89-4.14-1.71a14.6,14.6,0,0,1,3.14-5.86C36.21,48.61,37.14,47,38.72,46.41Z"/>
        <path class="cls-9" d="M44.26,52c-.2,1.11-1.73,1.58-2.76,1.67-2.55.37-4.28-.18-6.32,1.58-.31-1.11,2.65-6.13,4-6.13.71,0,1.73,1.67,2.34,2.14A6.87,6.87,0,0,0,44,52Z"/>
        <path class="cls-10" d="M37.77,34.12c1.18,1.43-.26,4.26,1.39,6.24,1.28,1.6,3.5,2.13,5.24,3.26a7.46,7.46,0,0,1,1.91,2.1c1.58,2,2.35,7.45-.45,7.75-2.12.22-3.55-1.42-5-2.48a27.1,27.1,0,0,0-5.13-3.09c-2.92-2-4.67-4.7-3.85-8.11C32.2,38.13,35.83,31.5,37.77,34.12Z"/>
      </g>
      <path class="cls-11" d="M70.27,85.94C74.43,83,83,87.26,87.17,88.72c9.09,3.7,18.55,5.92,28.54,4.48l-.32-.07c-5,3.4-16.67,4.81-23.06,4.15,3,1.86,6.9,1.39,10.33,1.45-4.34,2.27-8.43,2.07-13,2.41,2.48,1.13,5.51,1.42,8.14,2-13.79,5.7-30-2.59-27.54-17.15Z"/>
    </g>
  </g>
</svg>
