<?xml version="1.0" encoding="utf-8"?>
<!-- Generator: Adobe Illustrator 25.2.3, SVG Export Plug-In . SVG Version: 6.00 Build 0)  -->
<svg version="1.1" id="Layer_1" xmlns="http://www.w3.org/2000/svg" xmlns:xlink="http://www.w3.org/1999/xlink" x="0px" y="0px"
	 viewBox="0 0 450 490" style="enable-background:new 0 0 450 490;" xml:space="preserve">
<style type="text/css">
	.st0{fill:#8F6F73;stroke:#262626;stroke-width:0.58;stroke-miterlimit:10;}
	.st1{fill:#F5F2EF;stroke:#262626;stroke-width:0.58;stroke-miterlimit:10;}
	.st2{fill:#BFB19D;}
	.st3{fill:#907175;}
	.st4{fill:#8F6F73;stroke:#232323;stroke-width:0.58;stroke-miterlimit:10;}
	.st5{fill:#F5F2EF;}
	.st6{fill:#F38590;stroke:#712313;stroke-width:0.55;stroke-miterlimit:10;}
	.st7{fill:#F38590;stroke:#BC554A;stroke-width:0.58;stroke-miterlimit:10;}
	.st8{fill:#3A0202;stroke:#302F2F;stroke-width:0.58;stroke-miterlimit:10;}
	.st9{fill:#EE3E3D;}
	.st10{fill:#F28087;stroke:#922F1E;stroke-width:0.58;stroke-miterlimit:10;}
	.st11{fill:none;stroke:#302F2F;stroke-width:0.58;stroke-miterlimit:10;}
	.st12{fill:#302F2F;}
	.st13{fill:#795961;}
	.st14{fill:#F38590;stroke:#712313;stroke-width:0.58;stroke-miterlimit:10;}
	.st15{fill:#8F6F73;stroke:#262626;stroke-width:0.39;stroke-miterlimit:10;}
	.st16{fill:#262626;}
	.st17{fill:#75555C;}
	.st18{fill:#3D2D2B;}
	.st19{fill:none;stroke:#1B1C1C;stroke-width:0.58;stroke-miterlimit:10;}
	.st20{fill:none;stroke:#232323;stroke-width:0.58;stroke-miterlimit:10;}
	.st21{fill:#74545B;}
	.st22{fill:#232323;}
	.st23{fill:#3A2528;}
	.st24{fill:#593F44;}
	.st25{fill:#FFFFFF;}
	.st26{fill:none;}
	.st27{fill:none;stroke:#232323;stroke-width:0.39;stroke-miterlimit:10;}
	.st28{fill:#282827;}
	.st29{fill:none;stroke:#282827;stroke-width:0.58;stroke-miterlimit:10;}
	.st30{fill:none;stroke:#262626;stroke-width:0.78;stroke-miterlimit:10;}
	.st31{fill:none;stroke:#282827;stroke-width:0.78;stroke-miterlimit:10;}
	.st32{fill:none;stroke:#30302F;stroke-width:0.78;stroke-miterlimit:10;}
	.st33{fill:none;stroke:#262626;stroke-width:0.58;stroke-miterlimit:10;}
	.st34{fill:#907175;stroke:#282827;stroke-width:0.58;stroke-miterlimit:10;}
</style>
<path class="st0" d="M58.3,178.3c0.3,3.3,0.6,6.7,0.9,10.1c0.3,3.8,0.6,7.5,0.8,11.2l10.8,4.1c-1.3,1.4-2.7,2.8-4.1,4.1
	c-2.8,2.5-4.4,3.3-6,4.6c-2.8,2.5-4.7,5.7-5.6,9.3l2.9,0.2c-3.1,13.9-4.6,28-4.5,42.2C53.7,314,74.2,336,77.5,385.4
	c1.3,19,2.3,53.4-4.1,58.8c-4.6,2-17.2,4.9-11.5,22.6c1.8,2.8,3.1,2.8,5.9,4.1c7.2,9,17.4,1.3,17.4,1.3s5.4,5.9,19.5,0
	c3.8-4.6,8.7-10.5,10-28.7c0,0,2.8-36.3,2.6-37.8l-0.2-1.5c1.3,2.3,2.6,4.6,4.2,6.7c4.3,6.1,9.7,11.5,15.8,15.9
	c-0.8,3.6-1.9,7.5-3.3,11.7c-1.1,3.4-2.3,6.5-3.5,9.3c-2.2,0.3-8.6,1.4-13,6.6c-5.8,6.8-6.1,17.9-2.8,19.6c1.1,0.6,3.8,0.6,11.1-6.7
	c4.1,6.9,13.2,5.4,15.3,4.3c6.9,2.4,15.3,3,19.9-2.2c2.5-2.8,4.6-5.9,6.3-9.3c0,0,0.2,4.3,7.3,5.8c2.6,7.5,11.6,5.4,15.5,3.9
	c14.2,4.1,23.3,0,28.3-5.8c0,0,23.7,2.6,39.9-7.1c9.5-6,12.3-10.4,12.3-10.4s9.3,9.5,45.1,8.2l-10.1-4.1c0,0,40.8,4.3,45.3,4.3
	l-11-5.8c0,0,39.1,6.9,44.2,9.9l-4.3-8.4c5.4,6,12.7,9.9,20.7,11l13.6,2l-9.3-6.5c0,0,18.3,6.9,35.8-0.9c0,0-3.7-14.2-14.7-19.4
	c0,0,7.3,0.2,8.6,1.7s-16.4-28-47-26.5l12.3-0.6c0,0-11.4-11.9-35.8-8.2s-49.6,9.9-51.4,10.1s-22.2-1.1-28-4.1
	c0,0,0.6-20.1-0.6-30.2s-4.8-30.6-16-47S233,281.4,233,281.4l-25.5-37.6l-9.5-15.3c-1.5-4.3-3.4-8.4-5.7-12.3
	c-3.3-5.8-7.4-11.1-12.1-15.8L58.3,178.3z"/>
<path class="st1" d="M226.7,355.3c0.1,0.2-8.1,1.7-16,7.8c-4.3,3.3-8.4,7.9-9.1,7.3c-0.4-0.3,0.8-2.2,0.2-2.8
	c-0.8-0.8-3.4,1.6-4.3,1c-1.2-0.9,2.7-5.9,3.4-13.5c0.3-3,0.4-4.4,0-5.5c-2.7-7.6-21.4-2.8-34.4-9.7c-6.7-3.6-14.5-11.7-18.4-32.1
	c9.9-16,17.3-48.4,17.3-48.4l2.2,6.2l1.2-1.2c20.7-36.1,5.9-51.8,5.9-51.8s-10-1.1-13.1,0.8c-42.8,17.5-48-3.8-51.1-4
	s-24.4-8.7-24.4-8.7l-3,24.1l5.2-2.8l-3,22.8l7.8-5.2c0,0-13,20.1,2.2,44.9s25.9,37,29.3,49.6s2,17.1,2,17.1l-5.2-7l2.2,8.5
	c2.2,8.5,0.7,26.3,0.7,26.3s-5.2-10-5.6-11.1s4.8,28.5,4.8,28.5l-4.8-7.8l2.2,19c0.6,2.3,1.6,4.5,2.8,6.5c2.4,3.8,5.6,7,9.5,9.3
	c21.9,14.1,28.9,26,41.9,24.1c6.3-0.9,6-3.9,16.6-8.5c8.9-3.8,18.4-5.9,28.1-6h1.9c-3.1-2.8-12.1-11.8-12.9-25.1c-0.2-3,0.1-6,0.7-9
	l-5.2,12.7c-1.3-3.9-1.8-8-1.3-12c0.7-3.8,1.6-7.5,2.7-11.1c0.4-1.5,0.8-2.6,1-3.4l-1.8,1.5c-2.1,1.8-4.3,3.5-6.4,5.3
	c-0.2-4,0.7-7.9,2.4-11.4c1.3-2.5,3-4.8,5.1-6.8c4.3-4.6,8.4-6.7,8.2-7s-9.2,5.4-10,4.4s5.9-8.7,15.4-13.1
	C221.8,356.6,224.2,355.8,226.7,355.3z"/>
<path class="st2" d="M83.5,213.5l4.4,0.4c13.4,14.3,35.2,16.7,51.4,5.7c2.2-0.5,4-1,5.2-1.3c1.4-0.4,2.8-0.8,5.5-1.7l4-1.3l-1.4-2.9
	l-13.1,0.8c0,0-30.8,19.4-50.3-2.9l-5-1.9L83.5,213.5z"/>
<path class="st3" d="M130.2,447.8c-2.5,0.8-11.9,3.9-15.7,12.7c-0.2,0.5-4,9.6-0.1,13.6c0.8,0.8,3,2.5,5,2c1.7-0.4,2.3-2.1,3.8-2
	c0.9,0.2,1.8,0.7,2.3,1.5l1.8,0.6c1.5,0.5,3,0.9,4.5,1.3c3.8,2.8,8.6,3.9,13.2,3.1c1.1,0.1,2.3,0.1,3.4-0.1c1.8-0.4,3.5-1,5.1-2
	c10.6-6.5,20.5-43.4,20.5-43.4c1.9-6.9,4.8-17.5,8.6-30.6c1.1-7.9,2.2-15.7,3.3-23.6l4,9.2l2.8-28.3c0,0,3.6,10.8,3.6,9.6
	s3.6-33.4,3.6-33.4l3.2,7.9c0,0,4.8-20.9,2-37.5s-2.4-12.5-2.4-12.5l-48.7-4.2c-10.9,17.4-13.5,31.7-14,41.6c-0.1,2.5,0.6,13,2,33.9
	c1.3,19.3,1.5,20.9,1.2,25.6c0,0-0.1,1.2-0.2,2.4c-1.1,11-3.1,21.9-5.9,32.6C135.2,434.5,132.9,441.2,130.2,447.8z"/>
<path class="st0" d="M31,100.6c0,0-1.6-25.9-3.5-33.5S25,46.1,29,27.4S33.8-0.4,52.9,5.8c8.5,5.3,17.2,11,26,17.1
	c8.6,5.9,16.8,11.7,24.6,17.5C59.8,76,45.5,89.8,43.6,93.9c-1,2.1-3.1,4.4-7.4,9c-0.5,0.5-1.5,1.6-2.6,1.4
	C31.9,104.1,31.1,101.1,31,100.6z"/>
<path id="f" class="st4" d="M87.2,43.2c-0.8,0.4-22.7,9.6-38.3,28C33.6,89.8,17,107,12.1,122.6s-2.6,24.6-2.6,24.6l9.1-9.8
	c0,0-7.1,9.1-1.5,28.2l5.2-11.5c0,0-5.3,10,7.8,26.6l1.9-12.8c0,0,4.1,13.6,8.5,18.6c0,0,6.3,14.4,48.4,24.6
	c4.6,5.1,10.7,8.8,17.4,10.5c18.1,4.4,32.5-8.5,33.9-9.7c2.2,0.1,26.3-0.5,44.5-14.5c11.4-12.9,15.2-22.9,15.2-22.9s2,10.7,0.8,12.8
	c0,0,12.3-12.9,11.3-25.7v-0.2c0,0,4,3.3,3.4,11.3c0,0,5.6-20.1,1.3-28.4c3,3,5.5,6.5,7.3,10.4c0,0,5.5-11.9-2.7-29.9
	s-7.4-15.8-7.4-15.8s6.5-27,7.1-43.2s3.1-20.6-0.9-38s-5-19.6-28.4-12c-12.6,7.4-38.2,25.6-38.2,25.6l-2.2,2.1c0,0-13.7-6-25.2-6
	S93.2,38.5,87.2,43.2z"/>
<path class="st5" d="M36.3,172.3c1.3-6.8,9-12.3,9.4-12.8c18.3-18.3,44.1-17.6,51-17.3c32,1.8,66.7-5.1,87.4,16.7
	c3.5,3.7,10.4,11.2,9.6,20.3c-1.6,16.3-27.3,25.7-32.3,27.5c-6.7,2.4-13.7,3.9-20.8,4.3l7.1-7.6c-9.6,10.3-23.3,15.8-37.4,15
	l-18.9-9.4c-8.2-1-16.2-2.9-24-5.6c-6.1-2.3-12-5.3-17.5-8.8c-2.1-1.2-4-2.8-5.6-4.6c-1.2-1.4-2.9-3.8-2.9-3.8l0,0
	c-0.8-0.8-1.5-1.6-2.1-2.5c-1.6-2-2.6-4.4-3.1-6.9C36,175.3,36,173.8,36.3,172.3z"/>
<path class="st6" d="M79.3,47.2c-4.9-7.7-10.4-14.9-16.5-21.6c-6-6.6-12.6-12.7-19.7-18.1c-3.1,7.7-5,15.8-5.6,24
	c-0.9,14.6,2.1,29.2,8.9,42.2C54.7,61.9,66.1,52.8,79.3,47.2L79.3,47.2z"/>
<path class="st7" d="M120.7,163.9c0,0-12.7-7.4-18.4-15.9c-2.2-8.1,4.1-10,7.1-11.3s19.8-4.6,27.7,0.4c6.1,4.2,11.3,8,3.8,15.2
	S124.6,166.4,120.7,163.9z"/>
<path class="st8" d="M90.4,171c2.3,1,4.7,1.8,7.2,2.1c3.5,0.6,7,0.4,10.4-0.6c2.4-0.8,4.8-1.8,7-3.1c1.6-0.8,1.4-0.9,2.6-1.4
	c0.6-0.2,1.1-0.5,1.6-0.9c0.4-0.5,0.6-1.2,0.5-1.9c3.7,4.6,8.8,7.7,14.5,8.9c4,0.8,8.2,0.6,12.1-0.7c-0.7,2.8-3.4,12.4-12.5,18.1
	c-3.1,2-6.7,3.3-10.4,3.9c-6.8,1.1-11.5,0.4-15.2-1.4s-5.8-4.6-9.9-10.2C95.4,179.9,92.8,175.5,90.4,171z"/>
<path class="st9" d="M110.3,156.4c0,0,12.5,4.6,26-12.1l2.4-6.5c0.6,0.4,1.2,0.8,1.8,1.3c0.1,0.1,3.2,2.9,3.6,6
	c0.4,2.7-1.4,4.9-3.9,7.9c-3.6,4.2-8.1,7.5-13.1,9.9c-1.4,0.7-2.7,1.3-3.5,1.7C118.5,162.8,114,160.1,110.3,156.4L110.3,156.4z"/>
<path class="st10" d="M102.1,187c0,0,8.8-10.6,17.3-3.7c6.5-2.6,9.6-2.6,16,5.2C133.4,190.3,114.4,205.6,102.1,187z"/>
<path class="st9" d="M131,183.7c0,0-6.8,15.7-24.7,6.4c11.1,9.7,22.3,3.7,27.9-1.4C134.1,188.7,133.5,184.9,131,183.7z"/>
<path class="st11" d="M76.7,156.7c0,0,13,28.9,42.6,10.4l0.2-2.3c0,0,22.2,25.7,42.7-5.6"/>
<path class="st12" d="M71.3,157.1c1,0,2-0.1,3-0.5c0.9-0.3,1.8-0.8,2.7-1.3c0.8-0.6,1.6-1.2,2.3-1.9c0.4-0.4,0.7-0.8,1-1.1
	s0.6-0.8,1-1.2c-0.2,0.5-0.5,0.9-0.8,1.4s-0.6,0.9-0.9,1.3c-0.7,0.8-1.5,1.5-2.3,2.1c-0.9,0.6-1.9,1-2.9,1.2
	C73.4,157.3,72.3,157.3,71.3,157.1z"/>
<path class="st12" d="M159.3,153.1c0.3,1,0.8,2,1.4,2.7c0.7,0.8,1.4,1.5,2.2,2.1c0.8,0.6,1.7,1.2,2.6,1.8l2.7,1.6
	c-0.5-0.1-1-0.3-1.5-0.5s-1-0.4-1.5-0.6s-1-0.5-1.4-0.8s-0.9-0.6-1.3-0.9c-0.9-0.7-1.6-1.5-2.3-2.4
	C159.6,155.3,159.2,154.2,159.3,153.1z"/>
<path class="st2" d="M66,203c-2.2-1.1-4.2-2.2-6-3.3C61.8,201.2,63.8,202.3,66,203z"/>
<path class="st2" d="M189.2,191.3c2-2.7,3.4-5.7,5.2-8.6c0.2-0.4,0.6-0.7,1-0.9c0.5-1,0.9-2,1.3-2.9c-0.1-0.4-0.2-0.8-0.3-1.2
	c-0.7-2.4-1.6-4.7-2.7-6.9c-6.4,9.8-15,18-25.3,23.7c-5.3,2.9-10.9,5.2-16.8,6.7l-0.5-4c-38.7,30-60.4,11.2-68.7,3
	c-1.3,0.9-7.6,4.9-15.2,3c-0.4-0.1-0.8-0.2-1.2-0.3c4.3,2.2,8.8,4,13.3,5.4c3.3,1,6.6,1.9,10,2.6c7.4,7.9,18.1,11.9,28.8,10.7
	c7-1.1,13.5-3.9,19.2-8.1c2.6-2,4.9-4.3,7-6.9l-3.8,5.2h0.8c0.2-0.1,0.4-0.1,0.7-0.1c1.2,0,2.4-0.1,3.6-0.2c0.3-0.2,0.6-0.3,1-0.4
	c6-1,12-1.7,17.9-3.4c3.7-1.2,7.4-2.8,10.8-4.6c2.6-1.5,5.2-3.1,7.6-4.9C185.2,196.1,187.3,193.8,189.2,191.3z"/>
<path class="st13" d="M192.6,171.2l7.5-16.5c0,0,3.7,5.7,3.3,7.8c0,0,4-11.9,2.9-16.4s2.6,3.4,2.6,3.4s2.6-14.6,0.7-19.6l3.5,1.5
	c0,0-5-20.3-16.7-36.8S154,42.8,154,42.8s20.4,8.5,47,50.1c3.9,4,7.4,8.5,10.4,13.2c2.3,3.7,4.6,9,9.1,19.7
	c3.9,9.1,4.5,11.2,4.8,13.9c0.5,4.8-0.1,9.7-1.7,14.3c-0.5-1.8-1.3-3.5-2.3-5.1c-1.3-2.1-3-3.9-5-5.4c0.9,2.5,1.4,5.2,1.7,7.8
	c0.3,3.6,0,7.2-0.6,10.7c-0.5,3.3-1.2,6.5-2.2,9.7c0.5-2.3,0.2-4.7-0.9-6.8c-0.6-1.2-1.5-2.3-2.6-3.2c-0.2,3-0.7,6-1.6,8.8
	c-1.8,5.9-5,11.2-9.3,15.6c-0.6-1.5-0.6-2.1-0.5-2.3l0.2-0.4l0,0l-0.3-11.5l-4.8,9.4C194.5,178,193.5,174.6,192.6,171.2z"/>
<path d="M69,89c1.4-2.2,3.3-4.1,5.5-5.6c4.6-3.1,10.5-3.4,15.4-0.8c2.4,1.2,4.5,2.8,6.3,4.7c-2.1-1.4-4.4-2.7-6.7-3.6
	c-1.2-0.5-2.4-0.8-3.6-1c-1.2-0.2-2.4-0.3-3.7-0.2c-2.5,0.1-4.9,0.8-7.1,2C72.9,85.7,70.8,87.2,69,89z"/>
<path d="M150.9,89.2c1.8-2,4-3.6,6.5-4.5c2.5-1,5.3-1.4,8-1.1c2.7,0.3,5.3,1.2,7.7,2.6c0.6,0.3,1.2,0.7,1.7,1.1l1.6,1.2
	c1,0.9,1.9,1.8,2.8,2.8c-1.2-0.7-2.2-1.4-3.3-2l-1.7-0.9c-0.5-0.3-1.1-0.6-1.7-0.8c-0.6-0.2-1.2-0.5-1.8-0.7s-1.2-0.4-1.8-0.5
	l-0.9-0.3c-0.3-0.1-0.6-0.1-0.9-0.2c-0.6-0.1-1.2-0.3-1.8-0.3l-1.9-0.1l-1.9,0.1c-0.6,0-1.2,0.2-1.9,0.3s-1.2,0.3-1.8,0.4
	C155.4,86.8,153.1,87.8,150.9,89.2z"/>
<path class="st9" d="M43.1,7.4c1.5,4.6,2.8,9.2,3.9,13.9c0.8,3.6,1.5,7.1,2,10.4l0,0c-0.2,6.4-0.5,12.8-0.7,19.3
	c-0.2,6.4-0.5,12.8-0.7,19c9.3-9.3,19.7-17.3,31.1-23.8c-1.2-1.8-2.8-4.3-4.8-7.1c-3.4-4.8-7.1-9.3-11-13.6c-2-2.2-5-4.9-11-10.3
	C48.2,12,45.2,9.3,43.1,7.4z"/>
<path class="st14" d="M173.4,55.8c0,0,13.3-26.2,34.2-36.3c1.3,8.2,10.5,49.2-7.3,69.3C196.8,85.8,175.3,55.7,173.4,55.8z"/>
<path id="f-2" class="st9" d="M207.6,19.9c1.5,1.3-6.9,10.2-11,22c-4,11.5-4.2,26.6,4.6,46.9c-4.6-5.2-9.3-10.7-14-16.5
	c-4.6-5.6-8.9-11.2-12.8-16.5c4.3-8,9.6-15.4,15.7-22C196.9,26.4,206.1,18.6,207.6,19.9z"/>
<path class="st15" d="M137,426.8c-2.5-1.1-17.2-8.1-20.9-23c-1.9-7.5,0-13.7,3.4-25.4c1.1-3.7,3.9-13.1,7.1-13c1.1,0,1.9,1.3,2.3,2
	c2.1,3.2,6,7.6,14.1,12.8c0.2,8.1-0.3,16.2-1.3,24.2C140.7,412,139.1,419.5,137,426.8z"/>
<path class="st16" d="M84.8,473.1c-0.3-2.2-0.4-4.5-0.3-6.8c0.1-2.3,0.5-4.5,1.1-6.7c0.6-2.2,1.9-4.1,3.6-5.6c0.9-0.7,1.9-1.2,3-1.4
	c1.1-0.2,2.2-0.3,3.3-0.2c-1.1-0.1-2.2,0-3.3,0.3c-1.1,0.3-2.1,0.8-3,1.5c-1.6,1.5-2.8,3.4-3.3,5.6c-0.6,2.1-1,4.4-1,6.6
	c-0.1,2.2,0.1,4.4,0.4,6.6L84.8,473.1z"/>
<path class="st17" d="M205.6,316.3c-0.1-5.6-3-23.2-3-23.2l-1.8-5.2l-3.7,35.6l-2.4-1.1l-3.1,30.9l-4.8-2.3l-1.7,23.4l-3-1.8
	c0,0-8.4,60.8-18.2,77.2c-3,15-9.7,25-14.3,26.3c-1.7,0.5-3.5,0.7-5.3,0.8c-2.2,0-4.4-0.3-6.5-1c0.2,1.4,0.3,2.8,0.3,4.2
	c0,0.7,0.9,1.8,0.4,2.7c-0.1,0.2-0.3,0.5-0.2,0.7s0.8,0.5,1.3,0.6c1.1,0.5,2.2,0.8,3.4,1.1c2.7,0.5,5.4,0.6,8.1,0.1
	c4.8-1,7.8-6.9,10.4-12.6c4.1-9.3,7.4-19,10-28.8c1.5-5.2,3.7-12.7,7-21.9c0,0,6.8-27.2,6.6-30.5s0-11.1,0-11.1l4.1,9.4l2.9-29.1
	l3.8,9.8l3.8-34.2l3.3,8.1C203,344.5,205.7,322,205.6,316.3z"/>
<path class="st18" d="M214.3,433.9c0.5,0,17.2-0.9,29.2,1.7"/>
<path class="st18" d="M100.7,208.7c-0.7-0.2-10.9-11-11.4-12.7"/>
<path class="st19" d="M202.8,291.6c1.1,5.1,1.9,10.2,2.4,15.4c0.8,8.4,0.8,16.8,0,25.2c-0.8,7.8-1.8,13.7-1.8,13.7l-3.4-8l-3.8,33.4
	l-3.8-9.6l-2.9,28.4c0,0-4.2-10.3-4.1-9.2c0.4,6.2-1.6,12.4-1.5,18.6c0.1,5.1-4.1,21.3-19,63.8c0,0-6.1,22.8-14.4,22.5"/>
<path class="st20" d="M150.7,294.9L150.7,294.9c-3.5,7.4-6.2,13.2-6.3,13.5c-7.1,15.8-3.6,38.6-2.7,49.2c1.1,13.1,1.4,26.2,0.7,39.3
	c-1.2,17.5-5.3,34.7-12.1,50.8c-2.1,0.3-8.5,1.4-13,6.6c-1.7,2-2.9,4.3-3.7,6.8c-1.2,3.5-1.5,7.2-0.9,10.8"/>
<path d="M200.2,233.1l-3.4-5.1l0.6-0.3c0.6,4.5,1.1,9.1,1.2,13.6c0.1,2.3,0.1,4.6-0.1,6.8c-0.1,2.3-0.5,4.6-1.3,6.7l-0.1,0.3
	l-0.3-0.3c-0.4-0.5-1-1-1.5-1.5l-1.5-1.5l-3-3l0.3-0.1c-0.3,2.8-0.7,5.6-1.3,8.4c-0.6,2.8-1.4,5.5-2.3,8.1c-1,2.7-2.3,5.2-3.9,7.5
	c-1.6,2.4-3.7,4.3-6.3,5.6c2.5-1.3,4.6-3.3,6.2-5.6c1.6-2.3,2.8-4.9,3.8-7.5c0.9-2.7,1.7-5.4,2.2-8.1c0.6-2.8,1-5.6,1.2-8.4v-0.4
	l0.3,0.3l3.1,3l1.5,1.5c0.5,0.5,1,1,1.5,1.6l-0.4,0.1c0.7-2.1,1.1-4.4,1.2-6.6c0.1-2.3,0.1-4.5,0-6.8c-0.2-4.5-0.7-9-1.4-13.5
	l-0.2-1.6l0.9,1.3l3.5,5.1L200.2,233.1z"/>
<path class="st21" d="M342.4,451.5l30.3,4l-1.6-9.1c0,0-8.2-7.2-41.7-4.4l5.1,3.8c0,0-38.2-1.6-41.7-2.2s0.6,2.8,0.6,2.8l-18-10.3
	c0,0,7.6-15.5,8.9-27.8s0.3-25.6,0.3-27.8s-3.5-29.1-12-41.1s-32-46.4-32-46.4L213,251.6l-15.7-24.8c-0.7-2.3-1.6-4.6-2.8-6.7
	c-1.4-2.4-3-4.7-4.7-6.9c-0.9-1.2-1.6-2.2-2.1-2.9c-1.1-1.5-1.9-2.7-3.6-5c-3-4.2-3.2-4.5-3.8-4.6c-1.7-0.4-2.9,1.1-6.2,3
	c-2.1,1.2-4.3,2.2-6.6,3c5.1,1.9,9.3,5.8,11.4,10.9c0.7,2.7,1.3,5.3,1.7,8.1c0.2,2,0.6,4,1.2,5.9c0.7,1.8,1.7,3.5,2.9,5
	c-0.1-1.3-0.1-2.6-0.2-4l0.5,12.9c0,0,29.8,33.8,37.7,46.8c14.2,15.8,37.6,49.3,41.7,61.6s16.8,33.2,0,72.4
	c-8.2,17.4-17.1,29-40.8,25.3c-1.9,2.2-11,16.7-32.8,9.9c-1.3,1.5-11.4,5-13.9-5.1c-1.9,0-3.7-0.4-5.4-1.2c-1-0.4-1.9-1-2.7-1.7
	c-1,0.8-1.6,2-1.7,3.4c0,0.1,0,0.1,0.1,1c0.2,2.3,0.2,2.3,0.2,2.5c0.1,1.3,0.7,2.6,1.7,3.5c1.3,0.8,2.7,1.3,4.1,1.6
	c0.5,0.1,1,0.4,1.4,0.7c0.6,0.6,0.6,1.4,0.8,1.7c1.4,2.3,4.6,2.9,5.7,3.1c2.7,0.4,5.4-0.1,7.8-1.4c3.7,1,7.4,1.4,11.2,1.4
	c2.9,0.2,5.9-0.2,8.7-1c3.8-1.3,7.1-3.7,9.7-6.8c2.5,0.3,6,0.7,10.3,0.9c7.7,0.4,15.4-0.2,22.9-1.7c3-0.7,5.6-1.7,10.8-3.8
	c3.7-1.5,6.1-2.6,6.2-4.3s-1.8-2.2-1.8-4s1.9-3.3,3.7-4.3c2.5,2,5.2,3.7,8.2,5c2.5,1.1,7.9,3.3,26.5,4.2c2.9,0.1,6.7,0.3,11.1,0.3
	l-10.5-3.8l42.3,3.1L342.4,451.5z"/>
<polygon class="st2" points="173.7,211.8 161.6,213.2 159.5,214.4 174.3,212.5 "/>
<path class="st17" d="M113.6,465c-0.5,1.7-0.8,3.5-0.9,5.4c-0.1,2.4-0.2,3.9,0.6,5.6c0.1,0.2,2,4.2,6.1,4.6c1.4,0.1,2.9-0.1,4.2-0.8
	c0.9,0.8,1.8,1.5,2.8,2.2c1.7,1.2,3.6,2.1,5.6,2.6c3,0.6,6.1-0.2,8.4-2.1c-0.2-1.8-0.4-3.5-0.5-5.3c-2.5-0.4-5-1-7.5-1.6
	c-2.9-0.8-5.8-1.7-8.6-2.9C119.9,470.8,116.4,468.2,113.6,465z"/>
<path class="st22" d="M68.3,470.4c0-2.5,0.3-5,0.8-7.4c0.5-2.4,1.4-4.8,2.5-7c1.2-2.2,2.9-4.1,5.1-5.3c2.2-1.2,4.7-1.7,7.2-1.4
	c-2.5-0.2-4.9,0.3-7.1,1.5c-2.1,1.3-3.8,3.1-4.9,5.4c-1.1,2.2-1.9,4.5-2.4,6.9c-0.5,2.4-0.7,4.9-0.7,7.3L68.3,470.4z"/>
<path class="st21" d="M119.6,324.3c5.4,7.7,7.9,17,6.9,26.4l-6.2-8.6c0.6,2,1.4,4.7,2.2,8c0.7,2.6,1.3,5.2,1.8,7.9
	c0.3,3.3,0.5,6.5,0.3,9.8c0,2.6-0.1,6.1-0.3,10.4l-5.7-11.9c1,7,2.2,14.1,3.4,21.3c0.5,2.8,1,5.5,1.5,8.2l-5.6-10
	c0.5,3.4,0.9,6.8,1.4,10.2c0.6,4.8,1.2,9.5,1.8,14.2l-3.4-6.7c-1.8,25.2-3.6,43.8-4.3,48.5c-0.5,2.9-1.2,5.7-2.1,8.4
	c-0.7,1.9-1.3,3.4-1.7,4.1c-0.5,1.1-1,2.2-1.7,3.2c-0.6,0.9-1.3,1.8-2.1,2.6c-0.7,0.8-1.5,1.6-2.2,2.3c-0.4,0.1-1,0.3-1.7,0.5
	c-3.5,1-6.3,1.9-9.7,1.6c-1.3-0.1-2.5-0.4-3.7-0.8c-1-0.3-1.9-0.8-2.8-1.4l2-6.4c0,0,18.5,1.3,19.6-9.7s3.2-59.4,3.2-59.4v-6.7
	l4.8,5.5l-1.2-19.6l3.8,1.7l-2.6-20.4l3.7-1.9l-3.6-25.9l5.5,5.1C120.5,331.3,120,327.8,119.6,324.3z"/>
<path class="st23" d="M218.6,262.3l8.9,15.2c0,0-4.5-1.5-13.1,7s-5.6,7.8-5.6,7.8S204,275.8,218.6,262.3z"/>
<path class="st23" d="M243.5,298.2c0,0-10.5,1.1-14.6,13.4s-4.2,19.5-10.3,25.6s-9.9,18.1-9.9,18.1s14.2-15.9,22.4-18.1
	s29.7-13.1,29.7-13.1L243.5,298.2z"/>
<path class="st23" d="M284.1,379.6c-1.3-0.4-41-11.7-55.1-10.2c14,11.1,23.8,17.7,32.6,23.9s22.5,6.2,22.5,6.2V379.6z"/>
<path class="st23" d="M286.3,415.9c6,2.7,10.2,8.4,11,14.9l2.7-16.9l-14.9-3.9L286.3,415.9z"/>
<path class="st23" d="M311.1,414l8.8-1.6c0,0,0.7,16,4.2,22.7C324.1,435.1,313.1,427.8,311.1,414z"/>
<path class="st23" d="M344.5,406c0,0,17.3-3.1,19-3.6s-7.3,13.9-7.6,18.8s2.3,16.7,0,19.6c0,0-2.8-9.4-6.1-11.8s-3.8-10.3-4.5-16.6
	L344.5,406z"/>
<path class="st23" d="M275.2,433.7c-1.9-6.5-14-8-21.2-8.9c-5.5-0.6-11.6,1-11.8,0.3c0-0.1,0.1-0.3,0.2-0.3
	c0.8-0.6,6.6,4.6,24.6,25.4c1.9-1.5,3.6-3.3,4.9-5.3C273.2,442.8,276.5,437.9,275.2,433.7z"/>
<path class="st23" d="M185.3,386.4c0,0-18.1,4.6-25.4,5.6c-4.3,0.6-8.6,1.4-12.8,2.5c0,0,13.9,1.3,24.4,2.5
	c4.1,0.5,16.1,4.2,12.1,3.2l0,0L185.3,386.4z"/>
<path class="st23" d="M142.3,363.1c0,0,12.3,5.9,19.2,6.6c0.9,0.1,1.7,0.1,2.6-0.1c5.7-1.3-16.3,8.8-19.6,8.5L142.3,363.1z"/>
<path class="st23" d="M143.2,312.6c0,0,0.8,0.8,12.7,4.4l24.6,7.5c0,0-11.4,3.3-18.6,2.7s-8.5-1-11.6,0s-10.3,3.2-10.3,3.2
	S139.6,315.2,143.2,312.6z"/>
<path class="st24" d="M60.7,211.8c0,0,5.6,0.4,10.3,7.1c4.7,6.1,7.9,10.3,12.2,11.7c0.3,0.1,0.6,0.2,0.9,0.2
	c-6.5-0.4-0.3-0.1-0.3-0.1s-3.7,2.9-13.1-4.5c-5.5-4-10.9-6.8-12.3-6.8S59.2,212.8,60.7,211.8z"/>
<path class="st24" d="M53.2,259.9c0,0,4.5,1.5,17.4,6s15.9,2.1,15.9,2.1l-29.6,11.7c-0.8-3-1.5-6.3-2.2-9.8S53.5,263.1,53.2,259.9z"
	/>
<path class="st23" d="M66.3,321.1c0,0,9.6,2.2,24,13.5c16,10.1,18.2,12.2,18.2,12.2s-1.7-3.6-15.3-3.6s-20.3,2-22.3-2
	S66.3,321.1,66.3,321.1z"/>
<path class="st23" d="M79.8,393.2c0,0,5.8-1.7,16.3,8.2s12.2,10.7,12.2,10.7s-23.9-8.3-28.5-3.4V393.2z"/>
<path class="st23" d="M222.5,127c-12.4,3.9-23.6,10.8-32.6,20.2c12.4-3.3,25.3-4.3,38.1-3.2C226.1,138.3,224.3,132.7,222.5,127z"/>
<path class="st16" d="M173.5,466.2c-0.7-4.4,0.3-8.9,2.7-12.6c2.4-3.7,6.2-6.3,10.5-7.3c-8.8,2.2-14.3,10.9-12.7,19.8L173.5,466.2z"
	/>
<path class="st24" d="M159.1,47c0,0-3.7,10-9.2,22.9l-5.5,12.9c0,0,14.6-14.7,22.2-20l7.5-5.4C174.1,57.4,163.7,47.7,159.1,47z"/>
<path class="st24" d="M118.9,38.8c10.8-1,21.6,0.1,32,3.2c-1.5,9.3-3.7,18.4-6.8,27.2c-3.4,10.1-7.8,19.8-13.1,29
	c1.5-7.5,2-15.2,1.5-22.9c-0.6-10.4-3.6-20.5-8.8-29.5C122.3,43.3,120.7,41,118.9,38.8z"/>
<path class="st24" d="M87,43.3c2.1-1.2,4.4-2.1,6.7-2.9c2.8-0.9,5.8-1.5,8.8-1.7c3.6,7.2,4.7,21.1,6.1,26.1c1,3.9,1.5,7.8,1.7,11.8
	c-3.7-4.4-7.4-9.3-11.2-14.6C94.4,55.5,90.4,49.2,87,43.3z"/>
<path class="st24" d="M14.6,115.3c11.9,1.6,23,6.9,31.6,15.3c-14.5-3.5-29-1.5-36.8,0L14.6,115.3z"/>
<path class="st25" d="M376.1,403.4c3.6-0.2,7.1,0.1,10.6,1.1c6,1.7,12.3,5.4,11.8,7c-0.3,0.9-2.4,1.5-11.2,0.6
	c-0.2,0.8-0.3,1.6-0.5,2.5c-0.1-0.7,0-1.4,0.4-1.9c0.6-0.8,1.8-1,7-0.4c2.3,0.3,3.4,0.5,4.9,0.8c3.1,0.7,6.2,1.7,9.1,2.9
	c4.8,2.2,9.3,5,13.4,8.3c6.5,5.3,12.1,12,11.6,12.6c-0.1,0.1-0.5,0-0.8-0.1c-1.4-0.2-2.9-0.5-4.5-0.6c-2-0.2-4-0.2-6-0.1
	c9.7,2.3,16.7,10.7,17.1,20.7c-3.6,1.5-7.4,2.3-11.3,2.4c-2.5,0-5-0.3-7.5-0.7c-3.9-0.5-9.4-1.2-16.3-1.8l9.8,6.9
	c-5.5-0.9-10-2-13.3-2.8c-8-2-10.9-3.4-12-3.9c-2.9-1.5-5.7-3.3-8.2-5.4c0.8,2.1,1.6,4.3,2.5,6.4l-9.8-3.1
	c-2.6-4.9-4.3-10.2-5.1-15.7C365.3,421.5,373.2,408,376.1,403.4z"/>
<path class="st2" d="M368.4,442.8c0.2,1.3,0.4,2.6,0.7,4c0.7,3.1,1.7,6,3,8.9l11.2,2.4l-3.1-7.4c2.7,2.5,5.7,4.6,9,6.3
	c4.2,2.1,8.7,3.6,13.3,4.6c3.7,0.9,7.4,1.6,11.2,2l-9.7-7.3c0,0,21.4,6.7,37.1,0c-0.2-0.8-5.9-6.3-17.9-8.5s-25-3.9-25-3.9l-0.5,7.1
	l-16.5-5.9l-2.4-6.6h-11.2L368.4,442.8z"/>
<path d="M107.3,161.1c-1.8-0.1-3.6,0.1-5.4,0.5c-1.8,0.4-3.5,1-5.1,1.8c-3.2,1.6-6.2,3.8-8.6,6.5c-0.6,0.7-1.3,1.3-1.8,2l-1.7,2.1
	c-0.6,0.7-1.1,1.5-1.5,2.2l-1.5,2.3c-0.9,1.6-1.8,3.2-2.6,4.8l-2.3,5l2-5.1c0.8-1.6,1.6-3.3,2.4-4.9c1.8-3.2,4-6.2,6.5-8.9
	c2.5-2.7,5.5-5,8.9-6.6C99.9,161.4,103.6,160.8,107.3,161.1z"/>
<path d="M102.2,154.2c-1.3,0.2-2.5,0.4-3.8,0.8c-1.2,0.3-2.5,0.7-3.7,1.1c-2.4,0.8-4.8,1.7-7.2,2.7c-4.7,2-9.2,4.5-13.5,7.3
	c-1.1,0.7-2.1,1.4-3.2,2.2l-3,2.4c-1,0.8-1.9,1.7-2.8,2.6l-1.4,1.3c-0.5,0.4-0.9,0.9-1.3,1.4l-2.6,2.8l-2.3,3
	c-0.4,0.5-0.8,1-1.2,1.5l-1,1.6l-2.1,3.2l1.9-3.3l1-1.7c0.4-0.5,0.7-1.1,1.1-1.6l2.3-3.1l2.5-2.9c3.5-3.8,7.4-7.2,11.7-10.1
	c4.3-2.9,8.9-5.3,13.7-7.2c2.4-0.9,4.8-1.8,7.3-2.5c1.2-0.4,2.5-0.7,3.7-0.9C99.7,154.5,101,154.3,102.2,154.2z"/>
<path d="M95.7,150.1c-2.1-0.4-4.1-0.7-6.2-0.8c-2.1-0.2-4.2-0.2-6.3-0.1c-4.2,0.1-8.3,0.8-12.3,1.9c-2,0.6-4,1.3-5.9,2.1
	c-1.9,0.8-3.8,1.8-5.6,2.9c-3.6,2.2-6.9,4.8-9.8,7.8c2.7-3.2,5.9-6,9.5-8.3c1.8-1.1,3.7-2.1,5.6-3c2-0.8,4-1.6,6-2.2
	c4.1-1.1,8.3-1.7,12.6-1.7C87.4,148.5,91.6,149,95.7,150.1z"/>
<path d="M154.4,166.6c3.5,1.3,6.7,3.3,9.5,5.7c2.8,2.4,5.3,5.2,7.5,8.2l1.6,2.3c0.5,0.8,0.9,1.6,1.4,2.4c0.9,1.6,1.8,3.3,2.5,5
	c0.4,0.8,0.7,1.7,1.1,2.6l1,2.6c0.6,1.8,1.1,3.6,1.6,5.3l-1.9-5.2l-1.1-2.6c-0.4-0.8-0.7-1.7-1.1-2.5c-0.8-1.6-1.6-3.3-2.6-4.9
	c-0.5-0.8-0.9-1.6-1.4-2.4l-1.5-2.2c-2.1-3-4.6-5.8-7.3-8.3c-0.7-0.6-1.4-1.2-2.1-1.8l-1.1-0.9l-1.1-0.8
	C157.7,168.3,156.1,167.4,154.4,166.6z"/>
<path d="M164.3,166.6c4.3,0.6,8.5,2,12.3,4c3.9,2,7.5,4.5,10.6,7.6c0.8,0.7,1.5,1.5,2.2,2.4c0.7,0.8,1.4,1.6,2.1,2.5l1.9,2.7
	c0.6,0.9,1.1,1.9,1.6,2.8l0.8,1.4c0.3,0.5,0.4,1,0.7,1.5l1.3,3c0.1,0.3,0.2,0.5,0.3,0.8l0.2,0.8l0.4,1.6l0.9,3.1l-1.1-3.1l-0.5-1.5
	l-0.3-0.8c-0.1-0.3-0.2-0.5-0.3-0.7l-1.3-3c-0.2-0.5-0.4-1-0.7-1.5l-0.8-1.4c-0.6-0.9-1.1-1.9-1.6-2.8l-1.9-2.6
	c-0.6-0.9-1.3-1.7-2-2.5c-0.7-0.8-1.4-1.6-2.2-2.4c-3-3.1-6.5-5.6-10.4-7.6c-0.9-0.5-1.9-1-2.9-1.4s-2-0.8-3-1.2
	C168.5,167.6,166.4,167,164.3,166.6z"/>
<path class="st26" d="M164.8,157.3c0.6,0.3,26.8-6.2,45.9,21.5"/>
<path class="st21" d="M90.8,212.4L91,216c-4.4-0.9-8-1.8-10.6-2.6c-1.9-0.6-3.8-1.2-5.6-2c-1.6-0.6-3.1-1.5-4.4-2.6
	c-0.7-0.6-1.3-1.3-1.8-2l-1-2.4c3.3,1.7,6.7,3.2,10.2,4.5C82,210.4,86.4,211.6,90.8,212.4z"/>
<path class="st20" d="M284.4,409.3c0,0,14.7,7.9,41.1,1.2s57.5-14.4,74.1,0.9l-5.5,0.8c0,0,23.6,1.7,40.2,26.4l-12.5-2.5
	c0,0,13.6,1.5,19.2,20.2c0,0-18.6,9.6-37.1,0l11.1,7.3c0,0-24.1,0.3-34.3-11.4l3,7c0,0-33-9.7-41.5-7.6l8.2,3.5
	c0,0-40.9-2.5-43.1-3.4s8.9,3.7,8.9,3.7s-33.2,1.8-46-8.7"/>
<path class="st27" d="M60.3,458.5c0,0-1.9,9.9,7.4,12.4c3.3,2.9,7.7,6.7,17.5,1.5c0,0,8.6,6.8,20.3-1.2c2.4-2.9,7.9-12.6,8.4-20.5
	c0.7-6.4,2.3-25.7,2.3-25.7l1.4-21.6l3.2,6.3l-2.9-23.6l6,11l-4.6-29.4l5,10.4c0,0,0.8-18.3,0-22s-3.4-13.4-3.4-13.4l5.6,8.2
	c0,0,0.5-6.7,0-9.1c-0.9-4.2-2-8.4-3.3-12.5c-0.8-1.8-4-8-4-8"/>
<path class="st20" d="M118.1,407.5c3.9,8.5,10.6,15.3,19,19.3"/>
<path class="st28" d="M238.5,464c-3.3,0.2-6.6,0.5-10,0.5c-3.4,0.1-6.7-0.3-10-1.2l0.2-0.1c-3.8,4.2-8.9,7-14.5,8
	c-5.6,1.1-11.3,0.2-16.3-2.5l0,0l0,0c-1.3-2.6-1.4-5.6-0.4-8.3c1.1-2.7,3.3-4.8,6-5.7l0,0c0.8-0.4,1.7-0.7,2.6-1
	c0.9-0.2,1.7-0.7,2.3-1.4c-0.6,0.7-1.4,1.2-2.3,1.4c-0.9,0.3-1.7,0.6-2.6,1l0,0c-2.7,0.9-4.9,3-5.9,5.7c-1,2.7-0.9,5.6,0.4,8.2l0,0
	c5,2.6,10.6,3.4,16.1,2.3c5.5-1,10.5-3.8,14.2-8l0.1-0.1h0.1c3.2,0.8,6.5,1.2,9.8,1.1c3.3-0.1,6.6-0.4,10-0.6L238.5,464z"/>
<path class="st29" d="M180.4,200.8c2,3.8,5.7,5.7,7.6,8.5c5.6,8.3,8.3,15.8,13,24.1c24.1,37.1,48.2,69.5,71.4,106.6
	c13.9,21.3,13.9,45.4,11.1,69.5c-0.9,13.9-5.6,27.8-15,39.4"/>
<path class="st21" d="M170.6,209.1l2.8,1.1c0,0,7.8-0.9,10.8-2.6l-0.4-1.7l-5.3-0.5C178.4,205.4,171.6,208.8,170.6,209.1z"/>
<path class="st23" d="M199.5,231.3c0,0-13,4.6-19.4,8s-7.4,6-7.4,6s3.5-0.4,8.2-0.5c6.8-0.3,7.9,0.5,14.7,0.4
	c6.2-0.1,12.9-0.7,12.9-0.7l0,0C205.4,240.1,202.4,235.7,199.5,231.3z"/>
<path class="st16" d="M162.1,471.1c-0.6,2.7-1.5,5.3-2.9,7.7c-1.4,2.4-3.3,4.5-5.7,5.9c-2.4,1.3-5.2,1.9-8,1.5
	c-1.4-0.2-2.7-0.4-4-0.9c-0.6-0.2-1.3-0.4-1.9-0.7c-0.3-0.1-0.6-0.3-0.9-0.4l-0.5-0.2c-0.1,0-0.1-0.1-0.2-0.1c0,0-0.1-0.1-0.1-0.1
	c0-0.1,0-0.2,0-0.3c-0.1-1.4-0.1-2.7,0-4.1c0.1-1.4,0.3-2.7,0.6-4.1c0.5-2.7,1.5-5.3,2.8-7.7c2.6-5,7.9-7.9,13.6-7.5
	c-5.6-0.4-10.9,2.6-13.4,7.6c-1.3,2.4-2.2,5-2.7,7.6c-0.5,2.7-0.7,5.4-0.5,8.1c0,0.1,0.1,0.4,0.1,0.3l0.5,0.2
	c0.3,0.1,0.6,0.3,0.9,0.4c0.6,0.3,1.3,0.5,1.9,0.7c1.3,0.4,2.6,0.7,4,0.8c2.7,0.3,5.4-0.2,7.8-1.5c2.3-1.4,4.2-3.4,5.5-5.8
	c1.3-2.3,2.3-4.9,2.8-7.5L162.1,471.1z"/>
<path class="st30" d="M151.2,485.3c-4.1,0.8-8.3,0.3-12.1-1.4"/>
<path class="st28" d="M113.3,466.9c-0.5,2.2-0.6,4.4-0.4,6.7c0.3,2.2,1,4.5,2.9,5.7s4.2,1.2,6.4,0.8c0.3,0,0.6-0.1,0.8-0.2l0.2,0
	c0.1,0,0.2-0.1,0.1,0c0-0.1,0.1-0.2,0.1-0.3c0.1-0.5,0.1-1.1,0.1-1.7c0.1-1.1,0.2-2.3,0.3-3.4c0.6-4.5,1.7-9,4.3-12.8
	c1.3-1.9,3.1-3.3,5.2-4.3c2.1-0.9,4.4-1.3,6.6-1.1c-2.3-0.1-4.5,0.3-6.6,1.2c-2.1,0.9-3.8,2.4-5.1,4.3c-2.6,3.7-3.6,8.3-4.2,12.7
	c-0.1,1.1-0.2,2.2-0.3,3.4c0,0.6-0.1,1.1-0.1,1.7c0,0.2-0.1,0.3-0.1,0.5c0,0.1-0.1,0.1-0.1,0.1c-0.1,0-0.1,0-0.1,0h-0.1l-0.2,0.1
	l-0.8,0.2c-1.1,0.3-2.3,0.3-3.4,0.3c-1.2-0.1-2.3-0.4-3.3-1.1c-1-0.7-1.7-1.6-2.2-2.7c-0.5-1.1-0.8-2.2-0.9-3.3
	c-0.3-2.3-0.2-4.6,0.3-6.9L113.3,466.9z"/>
<path class="st31" d="M123.2,480.2c0,0,7.1,5.6,15.9,3.8"/>
<path class="st32" d="M228.9,399.5c0,0,16.3,30.5,31.9,43.6c11,12.1,14.3,14.4-13.9,20.3c-25.2,1.9-28.7-0.4-28.7-0.4"/>
<path class="st33" d="M221.6,432.9c-8.7-7.6-13.6-18.7-13.3-30.3l-2.4,3.5l-1.6,5.3l-0.9-4.8c-1.8-8.9,2.3-20.5,2.3-20.5l-7.1,5.5
	c0-2.8,0.4-5.5,1.2-8.2c2.9-9.5,10.3-14.5,13.1-16.2l-8.6,3.6l3-3.6c3.1-3.7,6.4-7.1,11.2-9.5c2.6-1.3,5.4-2.1,8.3-2.5
	c0,0,6.8-3.1,16.9,0.1"/>
<path class="st34" d="M135.6,432.5c0,0-22.3,5.7-20.3,13.8c1.9,5.7,2.5,4.7,8.7,3.1l6.2-1.6L135.6,432.5z"/>
<path class="st34" d="M176.4,429.1c0,0,14.2-6.9,18.3-1.6s1.2,9.7,1.2,9.7l-13.7,6.9l-7.2,3.3l-4.7-0.6L176.4,429.1z"/>
<path class="st0" d="M180.8,415.2c0,0,0,0.1,0.1,0.1c2.9,4.7,7,8.4,12,10.7c10.1,4.5,20.1,0,21.4-0.6l6.3,7c0,0-14.6,0.6-24.2,5
	s-22.7,10.3-22.7,10.3c-2.4,1.6-4.3,3.8-5.5,6.4c-0.9,1.9-1.3,4-1.3,6.1"/>
<line class="st33" x1="177.6" y1="424.6" x2="186.9" y2="422.3"/>
</svg>
