<svg xmlns="http://www.w3.org/2000/svg" xmlns:xlink="http://www.w3.org/1999/xlink" viewBox="0 0 1600 900"><defs><style>.cls-1{fill:none;}.cls-2{isolation:isolate;}.cls-3{clip-path:url(#clip-path);}.cls-4{fill:#d7e2d9;}.cls-5{fill:url(#Áåçûìÿííûé_ãðàäèåíò_29);}.cls-6{fill:url(#Áåçûìÿííûé_ãðàäèåíò_88);}.cls-7{fill:#302c5f;}.cls-8{fill:url(#Áåçûìÿííûé_ãðàäèåíò_146);}.cls-9{fill:url(#Áåçûìÿííûé_ãðàäèåíò_146-2);}.cls-10{fill:url(#Áåçûìÿííûé_ãðàäèåíò_18);}.cls-11,.cls-13{fill:#fff;}.cls-12{fill:#a41d2e;}.cls-13{mix-blend-mode:soft-light;}.cls-14,.cls-15,.cls-18,.cls-38{mix-blend-mode:multiply;}.cls-14{fill:url(#Áåçûìÿííûé_ãðàäèåíò_106);}.cls-15{fill:url(#Áåçûìÿííûé_ãðàäèåíò_106-2);}.cls-16{fill:#fff1d1;}.cls-17{fill:url(#Áåçûìÿííûé_ãðàäèåíò_18-2);}.cls-18{fill:#8b1f5f;opacity:0.15;}.cls-19{fill:#e6a97f;}.cls-19,.cls-22,.cls-24{stroke:#933220;}.cls-19,.cls-20,.cls-21,.cls-22,.cls-24,.cls-26{stroke-miterlimit:10;}.cls-19,.cls-24{stroke-width:0.38px;}.cls-20{fill:#7294cc;stroke:#1e5699;}.cls-20,.cls-22,.cls-26{stroke-width:0.5px;}.cls-21{fill:#eb4341;stroke:#a71f24;stroke-width:0.25px;}.cls-22,.cls-24,.cls-35{fill:#fac59b;}.cls-23{fill:#dca07b;}.cls-25{fill:#d59c77;}.cls-26,.cls-33{fill:#592616;}.cls-26{stroke:#3a1911;}.cls-27{fill:#723221;}.cls-28{fill:#dfa57f;}.cls-29{fill:#3a3023;}.cls-30{fill:#fff3e3;}.cls-31{fill:#933220;}.cls-32{fill:#322517;}.cls-34{fill:#cddbeb;}.cls-36{fill:#ef6a24;}.cls-37{fill:#c85928;}.cls-38{opacity:0.1;}</style><clipPath id="clip-path"><rect class="cls-1" x="0.3" y="0.3" width="1600" height="900"/></clipPath><linearGradient id="Áåçûìÿííûé_ãðàäèåíò_29" x1="744.98" y1="972.7" x2="744.98" y2="306.85" gradientTransform="matrix(-1, 0, 0, 1, 2257.28, 0)" gradientUnits="userSpaceOnUse"><stop offset="0" stop-color="#302c5f"/><stop offset="1" stop-color="#36c2df"/></linearGradient><linearGradient id="Áåçûìÿííûé_ãðàäèåíò_88" x1="850.09" y1="259.12" x2="876.29" y2="259.12" gradientTransform="matrix(-1, 0, 0, 1, 2257.28, 0)" gradientUnits="userSpaceOnUse"><stop offset="0" stop-color="#92949a"/><stop offset="0.57" stop-color="#725870"/><stop offset="1" stop-color="#c19980"/></linearGradient><linearGradient id="Áåçûìÿííûé_ãðàäèåíò_146" x1="856.28" y1="276.84" x2="856.28" y2="260.26" gradientTransform="matrix(-1, 0, 0, 1, 2257.28, 0)" gradientUnits="userSpaceOnUse"><stop offset="0" stop-color="#fad6ac"/><stop offset="0.57" stop-color="#f19065"/><stop offset="1" stop-color="#e7c7c0"/></linearGradient><linearGradient id="Áåçûìÿííûé_ãðàäèåíò_146-2" x1="880.71" y1="261.16" x2="880.71" y2="253.32" xlink:href="#Áåçûìÿííûé_ãðàäèåíò_146"/><linearGradient id="Áåçûìÿííûé_ãðàäèåíò_18" x1="1246.45" y1="271.05" x2="1482.54" y2="271.05" gradientUnits="userSpaceOnUse"><stop offset="0" stop-color="#ee6b68"/><stop offset="1" stop-color="#c42728"/></linearGradient><linearGradient id="Áåçûìÿííûé_ãðàäèåíò_106" x1="714.65" y1="556.87" x2="764.87" y2="556.87" gradientTransform="matrix(-1, 0, 0, 1, 2257.28, 0)" gradientUnits="userSpaceOnUse"><stop offset="0" stop-color="#f1b590"/><stop offset="1" stop-color="#c2a39e"/></linearGradient><linearGradient id="Áåçûìÿííûé_ãðàäèåíò_106-2" x1="828.22" y1="406.5" x2="975.8" y2="406.5" xlink:href="#Áåçûìÿííûé_ãðàäèåíò_106"/><linearGradient id="Áåçûìÿííûé_ãðàäèåíò_18-2" x1="1198.56" y1="379.66" x2="1339.68" y2="379.66" xlink:href="#Áåçûìÿííûé_ãðàäèåíò_18"/></defs><g class="cls-2"><g id="Layer_1" data-name="Layer 1"><g id="b"><g class="cls-3"><g id="b-2" data-name="b"><polygon class="cls-4" points="1271.1 390.2 1267.4 176.3 1472 116.7 1472 426.5 1271.1 390.2"/><polygon class="cls-5" points="1472 306.8 1472 316.2 1476.5 320.5 1482.5 326.4 1492.9 336.4 1542.6 384.7 1507.2 972.7 1532.5 972.7 1552.5 379 1493.2 325.8 1482.5 316.3 1476.5 310.8 1472 306.8"/><polygon class="cls-6" points="1381 253.3 1393.9 259.7 1393.9 259.7 1395.1 260.3 1407 266.2 1407.2 257.4 1398.2 252.1 1381 253.3"/><polygon class="cls-7" points="1472 316.2 1472 333.9 1476.7 338.8 1482.5 344.9 1492.4 355.1 1522.8 386.8 1482.1 958.8 1507.2 972.7 1542.6 384.7 1492.9 336.4 1482.5 326.4 1476.5 320.5 1472 316.2"/><polygon class="cls-8" points="1395.1 260.3 1395 271.4 1406.8 276.8 1407 266.2 1395.1 260.3"/><polygon class="cls-9" points="1359.2 254.8 1372.9 261.2 1393.9 259.7 1381 253.3 1381 253.3 1359.2 254.8"/><path class="cls-10" d="M1331.8,256.8l27.4-2h0l21.8-1.5h0l12.9,6.4-21,1.5-44.1,3.1Zm75.5-5.4v6l-9-5.3Zm-75.5,5.4,27.4-2h0l21.8-1.5h0l17.2-1.2,9.1-.7v6l-.2,8.8-.2,10.6-1.9,119.4-108.3-19.7-1-29.4h0l-3-87.5Zm-29.5,114.1,91.6,12.1,1.1-111.6V260.3l-1.2-.6h0l-21,1.5-44.1,3.1-30,2.1,2.2,67.1Zm29.5-114.1,27.4-2h0l21.8-1.5h0l17.2-1.2,9.1-.7v6l-.2,8.8-.2,10.6-1.9,119.4-108.3-19.7-1-29.4h0l-3-87.5Zm-29.5,114.1,91.6,12.1,1.1-111.6V260.3l-1.2-.6h0l-21,1.5-44.1,3.1-30,2.1,2.2,67.1Zm29.5-114.1,27.4-2h0l21.8-1.5h0l17.2-1.2,9.1-.7v6l-.2,8.8-.2,10.6-1.9,119.4-108.3-19.7-1-29.4h0l-3-87.5Zm-29.5,114.1,91.6,12.1,1.1-111.6V260.3l-1.2-.6h0l-21,1.5-44.1,3.1-30,2.1,2.2,67.1Zm29.5-114.1,27.4-2h0l21.8-1.5h0l17.2-1.2,9.1-.7v6l-.2,8.8-.2,10.6-1.9,119.4-108.3-19.7-1-29.4h0l-3-87.5Zm-29.5,114.1,91.6,12.1,1.1-111.6V260.3l-1.2-.6h0l-21,1.5-44.1,3.1-30,2.1,2.2,67.1Zm29.5-114.1,27.4-2h0l21.8-1.5h0l17.2-1.2,9.1-.7v6l-.2,8.8-.2,10.6-1.9,119.4-108.3-19.7-1-29.4h0l-3-87.5Zm-29.5,114.1,91.6,12.1,1.1-111.6V260.3l-1.2-.6h0l-21,1.5-44.1,3.1-30,2.1,2.2,67.1Zm29.5-114.1,27.4-2h0l21.8-1.5h0l17.2-1.2,9.1-.7v6l-.2,8.8-.2,10.6-1.9,119.4-108.3-19.7-1-29.4h0l-3-87.5Zm-29.5,114.1,91.6,12.1,1.1-111.6V260.3l-1.2-.6h0l-21,1.5-44.1,3.1-30,2.1,2.2,67.1ZM1482.5,98.3V443.8l-232-41.9-4.1-234.8Zm-10.4,18.4L1433.5,128l-56.6,16.5-84.6,24.6-4.2,1.2-20.7,6,3.2,182.2.5,31.7,149.7,27.1,51.3,9.2ZM1407,266.2l-.2,10.6-1.9,119.4-108.3-19.7-1-29.4h0l-3-87.5,39.2-2.7,27.4-2h0l21.8-1.5h0l17.2-1.2,9.1-.7v6Zm-13.1-6.5h0l-21,1.5-44.1,3.1-30,2.1,2.2,67.1,1.3,37.4,91.6,12.1,1.1-111.6V260.3Zm-62.1-2.9,27.4-2h0l21.8-1.5h0l17.2-1.2,9.1-.7v6l-.2,8.8-.2,10.6-1.9,119.4-108.3-19.7-1-29.4h0l-3-87.5Zm-29.5,114.1,91.6,12.1,1.1-111.6V260.3l-1.2-.6h0l-21,1.5-44.1,3.1-30,2.1,2.2,67.1Zm29.5-114.1,27.4-2h0l21.8-1.5h0l17.2-1.2,9.1-.7v6l-.2,8.8-.2,10.6-1.9,119.4-108.3-19.7-1-29.4h0l-3-87.5Zm-29.5,114.1,91.6,12.1,1.1-111.6V260.3l-1.2-.6h0l-21,1.5-44.1,3.1-30,2.1,2.2,67.1Zm29.5-114.1,27.4-2h0l21.8-1.5h0l17.2-1.2,9.1-.7v6l-.2,8.8-.2,10.6-1.9,119.4-108.3-19.7-1-29.4h0l-3-87.5Zm-29.5,114.1,91.6,12.1,1.1-111.6V260.3l-1.2-.6h0l-21,1.5-44.1,3.1-30,2.1,2.2,67.1Zm29.5-114.1,27.4-2h0l21.8-1.5h0l17.2-1.2,9.1-.7v6l-.2,8.8-.2,10.6-1.9,119.4-108.3-19.7-1-29.4h0l-3-87.5Zm-29.5,114.1,91.6,12.1,1.1-111.6V260.3l-1.2-.6h0l-21,1.5-44.1,3.1-30,2.1,2.2,67.1Zm29.5-114.1,27.4-2h0l21.8-1.5h0l17.2-1.2,9.1-.7v6l-.2,8.8-.2,10.6-1.9,119.4-108.3-19.7-1-29.4h0l-3-87.5Zm-29.5,114.1,91.6,12.1,1.1-111.6V260.3l-1.2-.6h0l-21,1.5-44.1,3.1-30,2.1,2.2,67.1Zm29.5-114.1,27.4-2h0l21.8-1.5h0l17.2-1.2,9.1-.7v6l-.2,8.8-.2,10.6-1.9,119.4-108.3-19.7-1-29.4h0l-3-87.5Zm-29.5,114.1,91.6,12.1,1.1-111.6V260.3l-1.2-.6h0l-21,1.5-44.1,3.1-30,2.1,2.2,67.1Z"/><path class="cls-11" d="M1331.3,255l28.2-2h0l22.3-1.6h0l17.7-1.3,9.3-.6v15.1l-.2,11-2,122.5-111.3-20.2-1-30.2h0l-3-89.8Zm-25,111.2,83.1,11.1,1-101.4V265.8l-1-.5h0l-19.1,1.4-40,2.8-27.3,1.9,2.1,60.9Z"/><path class="cls-12" d="M1256.9,176.3l3.7,213.9,139.2,25.2,72.3,13v-1.9l-51.3-9.2-149.7-27.1c-.9-53.1-3.4-197.5-3.7-213.9l204.7-59.6v-3Z"/><polygon class="cls-12" points="1482.5 98.3 1498.5 98.3 1490.4 443.8 1482.5 443.8 1482.5 98.3"/><polygon class="cls-13" points="1548.5 499.3 1537.8 464.3 1526.8 647 1541.7 698.8 1548.5 499.3"/><polygon class="cls-13" points="1541.1 716.6 1525.2 673.9 1521.8 730.5 1539.1 777.3 1541.1 716.6"/><polygon class="cls-14" points="1522.8 386.8 1519 777.3 1542.6 384.7 1492.9 336.4 1492.4 355.1 1522.8 386.8"/><polygon class="cls-13" points="1493 333.9 1545.9 383.6 1507.2 972.7 1542.6 384.7 1492.9 336.4 1493 333.9"/><polygon class="cls-15" points="1306.4 390 1420.8 408.2 1429.1 423 1281.5 399.5 1306.4 390"/><polygon class="cls-12" points="1353.7 375.5 1353.7 387.3 1334.2 384.6 1334.2 375.5 1353.7 375.5"/><path class="cls-16" d="M1267.4,471.2c-4.5,0-44.4-.2-44.4-7.5s39.9-7.5,44.4-7.5,44.4.2,44.4,7.5S1272,471.2,1267.4,471.2Zm-41.1-7.5c2.7,1.9,17.9,4.4,41.1,4.4s38.5-2.5,41.1-4.4c-2.6-1.9-17.8-4.4-41.1-4.4S1229,461.8,1226.3,463.7Z"/><path class="cls-16" d="M1336.3,391.2c-1,3.1-2.2,6.2-3.5,9.2s-3,6-3.8,9.1l-1.2,4.8a43.4,43.4,0,0,1-1.6,4.7c-1.3,3-2.6,6.1-3.8,9.1-2.4,6.2-4.2,12.5-6,18.8l-5.3,18.9c-3.4,12.7-6.9,25.4-9.7,38.1l-.5,2.3-.4,2.2c-.1,1.5,0,3.1,0,4.7.2,3.2.5,6.5.9,9.7a182.7,182.7,0,0,0,3.3,19.4.8.8,0,1,1-1.5.3h0l-4-19.3c-.7-3.2-1.3-6.5-1.7-9.8a42,42,0,0,1-.5-5.1l.3-2.7.4-2.5c2.8-13,6.4-25.5,9.8-38.3l5.2-18.9a185.8,185.8,0,0,0,4.8-19.2c.6-3.2,1.2-6.5,1.7-9.7a33.8,33.8,0,0,1,1.1-4.8l1.5-4.7c1-3.2,1.2-6.5,1.7-9.8a79.4,79.4,0,0,1,2-9.7,5.7,5.7,0,0,1,6.9-4,5.8,5.8,0,0,1,4,7Z"/><path class="cls-16" d="M1212.7,384.5a64.6,64.6,0,0,1,2.2,9.9c.2,1.6.3,3.3.5,5a26.6,26.6,0,0,0,1,4.9c1.6,6.5,4.5,12.8,4.6,19.6.1,3.4.6,6.8,1,10.1s1.2,6.6,1.8,9.9l3.8,19.8c1.3,6.6,2.6,13.1,3.6,19.8l1.4,10,.7,5a31.1,31.1,0,0,1,.1,5.3c-.9,7-3,13.3-5.2,19.7l-6.5,19.1c-.2.3-.5.5-.8.3a.6.6,0,0,1-.4-.7h0c2.3-6.3,4.4-12.7,6.1-19.2.9-3.2,1.6-6.5,2.3-9.7a82.1,82.1,0,0,0,1.7-9.7c.1-3.1-.7-6.3-1.2-9.6l-1.8-9.9-3.7-19.7c-1.2-6.6-2.4-13.2-3.8-19.8-.7-3.3-1.3-6.6-2.1-9.8a83,83,0,0,0-2.9-9.7c-2.5-6.3-2.3-13.2-3.2-19.9a42.6,42.6,0,0,0-1-4.9c-.5-1.6-1.1-3.2-1.6-4.8a66.3,66.3,0,0,1-1.8-9.9,2.7,2.7,0,0,1,2.4-3A2.6,2.6,0,0,1,1212.7,384.5Z"/><path class="cls-16" d="M1303.5,388.2c-.8,3.3-1.6,6.5-2.5,9.8s-2.2,6.4-2.4,9.8c-.2,1.6-.2,3.3-.5,5s-.7,3.3-1.1,4.9c-.9,3.2-1.9,6.5-2.9,9.7a168.5,168.5,0,0,0-4.2,19.7l-3.3,19.8c-2.1,13.2-4.2,26.5-6.1,39.7-1,6.4-1,13.1-1,19.8a119.7,119.7,0,0,0,1.8,19.9h0a.8.8,0,0,1-.6.8.7.7,0,0,1-.9-.6h0c-1-6.7-1.7-13.4-2.6-20.1s-1.5-13.4-.9-20.4c1.1-13.5,3.5-26.7,5.8-39.9l3.6-19.9a190.8,190.8,0,0,0,2.9-19.9c.2-3.4.4-6.8.8-10.1a40.1,40.1,0,0,1,.7-5c.3-1.6.9-3.2,1.3-4.9s1.1-6.6,1.4-10,.7-6.7,1.2-10a4.8,4.8,0,1,1,9.6,1.3A.7.7,0,0,1,1303.5,388.2Z"/><path class="cls-16" d="M1245.8,386.1c.3,3.3.5,6.5.6,9.8s-.1,6.5.3,9.8a97.8,97.8,0,0,1,1.2,19.5,159.9,159.9,0,0,0,.4,19.6l1.3,19.5c1,13.1,1.5,26.1,2.1,39.2a86.8,86.8,0,0,1-.9,19.7c-1.1,6.5-2.3,12.9-3.7,19.3,0,.4-.4.6-.8.6a.7.7,0,0,1-.5-.9h0c3-12.7,3.3-25.8,2.9-38.6s-1.6-26-2.3-39.1l-1.2-19.5a143.7,143.7,0,0,0-2.2-19.5,97.5,97.5,0,0,1-1.5-19.5,79.7,79.7,0,0,0-1-9.7c-.4-3.2-.7-6.5-.8-9.8a2.9,2.9,0,0,1,2.9-3.1A3.1,3.1,0,0,1,1245.8,386.1Z"/><path class="cls-16" d="M1219.3,423a1.8,1.8,0,0,0-.6-1.5c-.2-.1,0-.1,0,0l1.1.5,2.9.9c2.1.5,4.3.9,6.5,1.2,4.3.7,8.8,1.3,13.3,1.7s9,.8,13.5.9,9-.2,13.5-.2a268.3,268.3,0,0,0,27-1.2c4.5-.6,9-.9,13.4-1.3a46.3,46.3,0,0,0,6.5-1l2.9-.8,1.2-.5c0-.1.2-.2,0-.1a1.8,1.8,0,0,0-.5,1.4,2.5,2.5,0,0,0,.5,1.5c.1.1,0,0-.1,0l-1.1-.4-3-.6c-2.1-.3-4.4-.3-6.5-.4-4.5-.3-8.9-.6-13.3-1.1-9-1.2-18-.9-27-1.4a152.2,152.2,0,0,0-27,.3c-4.4.4-8.9,1.1-13.2,1.7l-6.5,1.1-2.9.6-1.1.4c-.1,0-.2.1-.1-.1A2.1,2.1,0,0,0,1219.3,423Zm-6.3,0a4.2,4.2,0,0,1,1.3-3,4.6,4.6,0,0,1,1.4-1,7.5,7.5,0,0,1,2-1,30.4,30.4,0,0,1,3.7-1.1q3.4-.7,6.9-1.2c4.7-.5,9.3-.6,13.8-.8,9.2-.3,18.3-.7,27.4-1.4s18.3.3,27.5.3a72,72,0,0,1,13.8,1.5c2.3.4,4.5,1.1,6.9,1.7l3.6,1.2,2,1,1.3.9a4.6,4.6,0,0,1,1.3,2.9,4.3,4.3,0,0,1-1.4,2.9l-1.3.9-2,.8-3.6.9-7,1.2a78.5,78.5,0,0,1-13.7,1.3c-9.1.2-18.2.5-27.4.5l-13.6-.6-13.7-.4c-4.6-.2-9.2-.4-13.8-.9a54.6,54.6,0,0,1-6.9-1,27.4,27.4,0,0,1-3.7-.8l-2-.8-1.4-1A4,4,0,0,1,1213,423Z"/><path class="cls-16" d="M1233.2,507c0-.2.2.2.7.5l1.7.8a26.4,26.4,0,0,0,4,1.2,79,79,0,0,0,8.5,1.2c5.7.4,11.5.5,17.2.4a140.5,140.5,0,0,0,17.2-.9l8.4-1.2a25,25,0,0,0,3.9-1.1,6.7,6.7,0,0,0,1.7-.8c.5-.2.5-.7.4-.1s0,.1-.5-.1l-1.6-.7a39.6,39.6,0,0,0-4-.9c-2.7-.5-5.5-.8-8.4-1.1-5.6-.7-11.4-1-17.1-1.2a141.1,141.1,0,0,0-17.2.4,60,60,0,0,0-8.5,1.2,29.8,29.8,0,0,0-4,1.1l-1.7.8C1233.4,506.8,1233.2,507.2,1233.2,507Zm-2.7,0,.3-1.1a1.3,1.3,0,0,1,.5-.7,5.3,5.3,0,0,1,1.2-1,8.8,8.8,0,0,1,2.2-1,35.2,35.2,0,0,1,4.3-1.3c2.9-.6,5.9-1,8.8-1.4a169.6,169.6,0,0,1,17.5-1.4,129.4,129.4,0,0,1,17.6.5,64.9,64.9,0,0,1,8.8,1.6,32.2,32.2,0,0,1,4.4,1.4,12.7,12.7,0,0,1,2.3,1.2,9.1,9.1,0,0,1,1.3,1,2.6,2.6,0,0,1,.5.9,2.3,2.3,0,0,1,0,2.6,1.7,1.7,0,0,1-.6.8c-.4.6-.8.7-1.2,1.1a14.6,14.6,0,0,1-2.3,1,27.1,27.1,0,0,1-4.4,1.3,70.4,70.4,0,0,1-8.8,1.5c-5.9.6-11.7.7-17.6.8a145.6,145.6,0,0,1-17.5-1.3,87.9,87.9,0,0,1-8.7-1.5,36,36,0,0,1-4.4-1.2l-2.2-1a5.3,5.3,0,0,1-1.2-1,1.3,1.3,0,0,1-.5-.7Z"/><polygon class="cls-17" points="1339.7 372.9 1337 390 1202 384.8 1198.6 369.3 1339.7 372.9"/><polygon class="cls-13" points="1239.7 372.4 1239.7 383.6 1205.3 382 1202.3 372.4 1239.7 372.4"/><polygon class="cls-13" points="1246.5 372.4 1267.4 372.4 1265.3 383.6 1246.6 383.6 1246.5 372.4"/><polygon class="cls-13" points="1292.6 259.5 1295.6 347 1301 333.5 1298.8 266.4 1328.8 264.3 1331.8 256.8 1292.6 259.5"/><polygon class="cls-18" points="1467.7 122.6 1464.5 419.1 1344 400.1 1443.9 409.3 1435.6 134.8 1467.7 122.6"/><polygon class="cls-13" points="1319.4 154.7 1312.2 149.5 1249.4 168.3 1256.9 172.7 1319.4 154.7"/><polygon class="cls-13" points="1322.3 154 1315.5 148.7 1339.2 142 1344.8 147.8 1322.3 154"/><g id="_006" data-name="006"><path class="cls-19" d="M316.3,1032.6s-36.9-73.1-44.7-98.9S246,788.5,246,788.5s11.2-30,25.5-21.6S316.3,1032.6,316.3,1032.6Z"/><path class="cls-20" d="M293,900l-8.4,2.7a405.1,405.1,0,0,1-51.4,4.5c-34,.7-79.9,18.4-71.4-4.9,16.6-45.5,29.5-123.1,50-149,11.7-14.8,19.2-22.9,23.9-27.3a27.7,27.7,0,0,1,5.5-4.3c1.7-.9,2.2-.5,2.2,0l19.7,6.9,7.5,5.2,3.7,3.6s1,11.6,9.9,31.2c5.1,11.1,8.4,25.2,9,42.1C294.2,841.2,278.1,860.5,293,900Z"/><path class="cls-21" d="M276.6,748.2a171.6,171.6,0,0,0-22-10.2c-15.6-5.7-16.1-7.2-19.6-13.1a32.8,32.8,0,0,1,5.9-4.4l33.2,18Z"/><path class="cls-22" d="M301.1,709.2c-2.1.2-4.5.3-7.1.3-7.2,4-13.8,6.7-15.6,11.2s-4.3,17.8-4.3,17.8c-18.1.4-26.8-8.2-30.7-14.3s1-3.4,3.9-7.8a7.5,7.5,0,0,0,.7-1.2,26.2,26.2,0,0,0-2.5-28C290.7,665.9,339,705.1,301.1,709.2Z"/><path class="cls-23" d="M301.1,709.2c-2.1.2-4.5.3-7.1.3-7.2,4-22.8,24-26.2,27.5-23.9-7.8-25.3-15-25.5-15.1s14.4-13.2,8.1-24l24.8.7c5.2.2,10.5.3,15.4,2S299.1,705.1,301.1,709.2Z"/><path class="cls-24" d="M339.2,680.5c.3,3.2,2.4,7.3,4.5,9.8a2.4,2.4,0,0,1-1.2,3.8,56,56,0,0,1-8.2,1.3c2.2,1.9,4.5,4,4.9,6.8s-2.8,6-5.3,4.5c-.4,5.6-3.8,10.5-7.9,14.3-11.6,10.6-28.7,13.2-44.3,11.3-13.2-1.7-38.9-15.3-43-19.1-.5-.4-.7-.7-.7-.8a56.1,56.1,0,0,0-8.2.3c-7.6.8-21.4-4.2-36.3-28-37.8-60.7-38.4-112.9,22.1-135.2,28.9-10.7,51.4-6,67.9,4.2,18,11.1,28.8,28.6,32.7,39.6,2.2,5.8,7.9,5.1,9.1,11.1,2.9,13.8-.1,34.6,3.5,48.4,1.2,4.6,3.7,9.7,8.4,10.3s7.4-3.3,11.3-.5S343.7,678.2,339.2,680.5Z"/><path class="cls-25" d="M321.1,610.9l-1.4-.9c-4.7-3.3-9.6-6.3-14.3-9.6-2.8-1.8-5.5-3.8-8.2-5.7s-7-3.9-7.7-5.8a97,97,0,0,1,5.8,26c-1.7-1.1-3.3-2.4-5-3.6-13.9-9.9-31.2-14.4-48.2-16.6a34.9,34.9,0,0,1,9.3,50.5c-1.9,2.6-4.5,5.1-7.8,5.6s-4.7-.4-6.9-1.3c-8.4-3.3-16.1-9.3-19.7-17.6-2.4-5.4-3-11.4-3.6-17.3l-1.8-19.2c-.3-3.6-.6-7.5,1.4-10.5s3.5-3.3,5.4-4.8c5.7-4.1,10.2-9.8,15.9-14.1,10-7.5,22.9-10,35.3-11.4a129.7,129.7,0,0,1,13.9-.9c18,11.1,28.8,28.6,32.7,39.6A112.5,112.5,0,0,1,321.1,610.9Z"/><path class="cls-26" d="M328.8,619.9c-1.8-10.2-9.7-18.1-17.5-25a349.7,349.7,0,0,0-50-36.2c11.1,13.2,22.7,27.1,25.8,44a77.9,77.9,0,0,0-57.8-12.6c5.5,1.3,9.6,5.8,12.6,10.5,12.4,19.3,15.4,40.4,6.5,56.9-.8-3.3-16.4-13.7-18.8-16.1.8,2.1,6.6,24.1,6.8,26.4-7.8-4.7-16.8-11.9-25.9-12-4-.1-8.5.6-10.6,4s-1.4,4.4-1.3,6.8c.4,8.8.1,11.5,3.3,19.7,2.5,6.2,5.8,12.7,11.7,17.6s19.2,9.8,24.3,7.8c.5,1.1-27.5,5.9-57.8-21.2h0a129.1,129.1,0,0,1-16.2-17.7c-44.9-58.9,3.4-104.1,3.4-104.1,55.8-79.9,135.9-25.1,135.9-25.1,22.9,15.7,29.2,34.8,29.9,50h0A63.4,63.4,0,0,1,328.8,619.9Z"/><path class="cls-27" d="M334.4,595.9c-3.7-17-14.9-32.1-29.2-42.1s-34.5-16.4-53.4-18.1a72.9,72.9,0,0,0-19.8.5c-8.9,1.8-17.1,6-25,10.7a242.6,242.6,0,0,0-26.5,18.6,187.3,187.3,0,0,1,24.8-2.2,82.4,82.4,0,0,0-39.2,25.3,14.9,14.9,0,0,1,15.9,2c-9.5-1.7-19.1,4.4-23.9,12.7s-5.7,18.3-4.9,27.9a99.6,99.6,0,0,0,28.2,61.6,135.3,135.3,0,0,1-16.2-17.7c-44.9-58.9,3.4-104.1,3.4-104.1,55.8-79.9,136-25.1,136-25.1C327.4,561.6,333.7,580.7,334.4,595.9Z"/><path class="cls-28" d="M217,692.9c2.9,4.9,7.3,9.1,12.7,10.9,2.2.8,5.3.8,6.3-1.4s-1.2-4.8-3.6-5.8-7-2-6.9-5.3,3.4-2.5,5.4-3.6c5.9-3.4,6.4-8.9,1.2-13.4-3.5-3-15.4-8.9-19.5-4.8S214.5,688.6,217,692.9Z"/><path class="cls-29" d="M286.9,654.1s-.7-19,15.9-26.1a8.1,8.1,0,0,1,9.4,2.2c2.4,2.8,4.8,8.2,5.5,18.3C319.4,671.9,299.8,669.5,286.9,654.1Z"/><path class="cls-30" d="M288.3,655.4s-.8-18.7,15.2-25.6a7.8,7.8,0,0,1,9.1,2.1c2.4,2.9,4.6,8.2,5.4,18.1C319.7,673.1,300.7,670.6,288.3,655.4Z"/><path class="cls-31" d="M288.3,655.4a33.5,33.5,0,0,1,2.6-13,26.3,26.3,0,0,1,3.5-5.8,23.4,23.4,0,0,1,4.9-4.5l1.4-.9,1.4-.8,1.5-.7a5.5,5.5,0,0,1,1.7-.5,7.5,7.5,0,0,1,6.3,1.6,10.4,10.4,0,0,1,2.2,2.5,21,21,0,0,1,1.5,3,51.7,51.7,0,0,1,1.9,6.4c.4,2.2.6,4.5.8,6.7a30,30,0,0,1,0,6.7,17.1,17.1,0,0,1-1.9,6.3,9,9,0,0,1-5.1,4.3,9.3,9.3,0,0,1-3.3.4,12.4,12.4,0,0,1-3.3-.4,22.4,22.4,0,0,1-6.2-2.5A39.6,39.6,0,0,1,288.3,655.4Zm0,0a38,38,0,0,0,10,8.7,23.1,23.1,0,0,0,6.1,2.5,18.6,18.6,0,0,0,3.3.4,12.6,12.6,0,0,0,3.3-.5,8.8,8.8,0,0,0,4.9-4.2,17.1,17.1,0,0,0,1.9-6.3,36.4,36.4,0,0,0,0-6.6q-.3-3.3-.9-6.6a35.8,35.8,0,0,0-1.8-6.4,15.9,15.9,0,0,0-1.5-2.9,8.9,8.9,0,0,0-2.1-2.6,7.6,7.6,0,0,0-6.2-1.5l-1.6.4-1.5.8-1.5.7-1.3.9a26.5,26.5,0,0,0-4.9,4.5,27.7,27.7,0,0,0-3.4,5.7A30.7,30.7,0,0,0,288.3,655.4Z"/><ellipse class="cls-32" cx="310.2" cy="645.1" rx="7.7" ry="10.8" transform="translate(-59.8 32.4) rotate(-5.4)"/><circle class="cls-30" cx="305" cy="641.1" r="3" transform="translate(-397.7 742.3) rotate(-72.8)"/><path class="cls-31" d="M312.5,685.8a23.5,23.5,0,0,0,4.5,4.4,22.6,22.6,0,0,0,5.5,3,14.2,14.2,0,0,0,2.9,1c1.1.2,2.1.5,3.2.6a26.6,26.6,0,0,0,6.3-.3,26.7,26.7,0,0,1-6.3.4,17.7,17.7,0,0,1-3.2-.5,26.3,26.3,0,0,1-3-.9,27.3,27.3,0,0,1-5.6-3,21.9,21.9,0,0,1-4.7-4.4Z"/><path class="cls-33" d="M286.9,623.4s4.6-16.6,20.2-7.7C307.1,615.7,299.2,612.9,286.9,623.4Z"/><path class="cls-34" d="M282.4,819.1a129.2,129.2,0,0,1-23,33.1,91.3,91.3,0,0,0,34.3-35.7l-5,36.3c-.7,5-1.5,10.3-4.3,14.6l-.2-23.8c-4.8,13.9-18.5,22.5-31.7,29-7.5,3.6-15.2,6.9-23,9.8a169.2,169.2,0,0,0,32.2-29.9c-5,6-24.8,12.9-32.1,11.7,16.4-12.1,19.8-16.1,26.2-20.7C266.9,835.5,272.6,828.8,282.4,819.1Z"/><path class="cls-21" d="M281.7,784.7c0,26.3-17,51-32.7,51s-29.9-12-29.9-38.3,18.4-55,34.1-55S281.7,758.3,281.7,784.7Z"/><path class="cls-24" d="M278.8,778.8c0,24.5-14.7,47.5-28.4,47.5s-25.9-11.1-25.9-35.6,16-51.2,29.7-51.2S278.8,754.3,278.8,778.8Z"/><path class="cls-35" d="M258.3,796.8c0,1,3.3,14.3,3.3,14.3S220,824.4,225.7,786,258.3,796.8,258.3,796.8Z"/><path class="cls-24" d="M274.4,761.7s13.3,16.7,3.6,47.6c0,0,7.2,103.2,13.8,116.3s9.2,35.7,8,70.1,1,95.3-.8,98.7c0,0-16.3,9.9-21.2,4.5s-9-61.3-16.7-97.2-12.6-74.3-18.5-101.5A660,660,0,0,1,229,815.5c-.9-9.2-6.5-22.4-.9-40.4"/><ellipse class="cls-36" cx="1271.2" cy="626.8" rx="62" ry="61.9"/><path class="cls-37" d="M1316.9,608.2c9.1,1.7,14.5,10.3,16.1,13.3-.3-2.6-.6-5.1-1.1-7.5-3.1-3.7-7.9-7.8-14.3-9s-12.4.4-19,4.5a113.7,113.7,0,0,0-11.4-13.5c11.3-6.8,21.7-10.6,29.9-10.8q-1.3-1.5-3-3c-8.4.9-18.5,4.9-29.4,11.5-1.8-1.6-3.6-3.2-5.4-4.6s-3.3-2.6-4.9-3.7c4.4-2.6,7.9-5.6,9.7-9.2a14,14,0,0,0,1-9.7l-3.5-.7a11.3,11.3,0,0,1-.4,8.9c-1.7,3.4-5.2,6.2-9.8,8.6a107.6,107.6,0,0,0-26-12.7,34.2,34.2,0,0,0-4.3,2.1h.2c.2,0,12.4,3.1,26.7,12.2-6.8,3.2-15.4,5.7-23.8,8.2-12.7,3.8-24.9,7.5-31.5,13.1a59.3,59.3,0,0,0-2.4,8.5,1.3,1.3,0,0,0,.7-.9c2.5-8.1,18.6-12.9,34.1-17.5,9.3-2.8,18.7-5.6,26.1-9.3l6.2,4.6,4.5,3.8a184.7,184.7,0,0,0-25.3,19.8c-15.8,14.6-32.1,34.4-35.5,48l2.7,3.4c1.1-10.9,15.4-30.9,35-49a183.5,183.5,0,0,1,25.5-19.9,99.3,99.3,0,0,1,11.6,13.5,64.5,64.5,0,0,0-8.9,7.5c-4.5,4.6-8,19.3-11.6,34.9s-7,30.1-11.1,34.6l3.8.3c4.1-6.4,7.2-20,10.5-34.2s6.8-29.4,10.7-33.3a85.4,85.4,0,0,1,8.4-7.2c9.2,13.8,16.3,32.4,17,57l3.1-3.3c-1.2-23.7-8.3-41.9-17.4-55.5C1306.3,608.6,1311.8,607.2,1316.9,608.2Z"/><path class="cls-38" d="M1271.2,564.9a62.7,62.7,0,0,0-9.8.8,61.9,61.9,0,0,1,0,122.2,62.7,62.7,0,0,0,9.8.8,61.9,61.9,0,1,0,0-123.8Z"/></g></g></g></g></g></g></svg>