<svg id="Layer_1" data-name="Layer 1" xmlns="http://www.w3.org/2000/svg" width="120" height="160" viewBox="0 0 120 160">
  <defs>
    <style>
      .cls-1 {
        fill: #d8c23f;
      }

      .cls-1, .cls-11, .cls-4 {
        stroke: #938c09;
      }

      .cls-1, .cls-11, .cls-3, .cls-4 {
        stroke-miterlimit: 10;
      }

      .cls-2 {
        fill: #d0e8ec;
        opacity: 0.25;
      }

      .cls-3, .cls-5 {
        fill: #ffeb8a;
      }

      .cls-3 {
        stroke: #c4b716;
      }

      .cls-4 {
        fill: #ffe400;
      }

      .cls-6 {
        fill: #c4b716;
      }

      .cls-7 {
        fill: #231f20;
      }

      .cls-8 {
        fill: #d82e2a;
      }

      .cls-9 {
        fill: #b22424;
      }

      .cls-10 {
        fill: #ef4136;
      }

      .cls-11 {
        fill: #ffeb57;
      }
    </style>
  </defs>
  <g>
    <g>
      <path class="cls-1" d="M50,83.15a31.06,31.06,0,0,0-5.62,2.9c-3.91,2.17-7.57,4.58-9.87,10.23-1.61,4-1.57,6.89-.9,11a83.56,83.56,0,0,0,3,12.29C30,114,27,111.77,29.66,105.92c-2.16,1.83-1.16,1.91-2.08,3.92-2.47-3.66-1.62-4.72-.5-9.15-1.86,2-.77.85-2.1,3.18C17.6,86.77,36.92,76.18,50,83.15Z"/>
      <g>
        <g>
          <path class="cls-2" d="M37.79,141c-5.18,1.26-32.19,14.59,51.6,10.89C56.35,156-8.12,151.55,37.79,141Z"/>
          <path class="cls-2" d="M110.14,143c2,.49,12.57,6.85-18.14,8.26C104.26,152.19,127.47,147,110.14,143Z"/>
        </g>
        <g>
          <path class="cls-3" d="M95.9,116.16c6-.59,11.71,2.18,18.78-.79-1.81,4.9-6.36,7.58-10.9,10.26a32.65,32.65,0,0,1,4-.57,6.27,6.27,0,0,1-4.25,2.26c.62.06,1,0,1.62.06-1.64,2.31-8.64,4.73-10.7,2-1-1.46,1-8.4.85-10.57Z"/>
          <path class="cls-4" d="M82.2,93.29c-5.46-6-10.33-14-10.71-21.79a40.34,40.34,0,0,0,14.05-1.9c3.31-1.13,7-2.48,8.87-5.43,1.71-2.76-.94-4.7-1.37-7.5a28.24,28.24,0,0,1-.13-5.44c.16-4.62,2-9.51.94-14.08-1.24-5.46-5.23-10.38-10.36-13.38a33.84,33.84,0,0,0-14.31-4.11c-6.53-.48-10.49,1.41-15.68,4.95-3.82,2.59-6.12,6.26-8.52,9.92a34.58,34.58,0,0,1-6.91,8.14c-1.51,1.16-2.4,1.31-2.43,3.23a13,13,0,0,0,1.17,4.82A29.08,29.08,0,0,0,43,59.64a41.22,41.22,0,0,0,8.74,7.17c-1.94,7.77-6.51,14.84-9,22.49-3.09,9.62-3.78,23.56.86,32.82,6.78,13.52,30.87,27.68,48.49,17.66C111.23,128.93,92.13,104.19,82.2,93.29Z"/>
          <g>
            <path class="cls-5" d="M75.44,20.85c-2.48-4.26-8.25-5.4-10-10.42-1.34,2,0,4.48,1.3,6.28a15.65,15.65,0,0,1-2.44-1.91c-.34,1.11.61,2.41,1.48,3.48a6,6,0,0,1-2.66-1.46c0,7.35,7.42,4.7,12.26,6.53Z"/>
            <path class="cls-6" d="M75.44,20.85A11.11,11.11,0,0,0,73,18.22c-.94-.75-2-1.39-3-2.1a20,20,0,0,1-2.87-2.35,8.89,8.89,0,0,1-2-3.2l.75.1a3.25,3.25,0,0,0-.24,2.91,10.5,10.5,0,0,0,1.57,2.85l1.41,1.92-2-1.24A16.07,16.07,0,0,1,64,15.16l.82-.21a2.07,2.07,0,0,0,.3,1.49A10.15,10.15,0,0,0,66.18,18L67,19.09l-1.35-.35a6.45,6.45,0,0,1-2.85-1.59l.76-.33a5.5,5.5,0,0,0,1,3.41,5.09,5.09,0,0,0,3.17,1.62c2.5.5,5.23.38,7.71,1.4l-.15.1Zm0,0,.08,2.5v.15l-.16-.05a14.79,14.79,0,0,0-3.82-.6c-1.29-.09-2.6-.12-3.93-.33a5.87,5.87,0,0,1-3.7-1.75,6.31,6.31,0,0,1-1.22-3.95l0-1.06.79.73a5.59,5.59,0,0,0,2.46,1.33l-.48.76a12.2,12.2,0,0,1-1.19-1.67,4.1,4.1,0,0,1-.41-1,2.34,2.34,0,0,1,0-1.23l.24-.76.58.55A14.38,14.38,0,0,0,67,16.3l-.63.69a11.11,11.11,0,0,1-1.66-3.14A5,5,0,0,1,64.49,12a3.59,3.59,0,0,1,.63-1.81l.49-.69.26.79a8.73,8.73,0,0,0,1.75,3,18.59,18.59,0,0,0,2.68,2.39c1,.74,1.94,1.49,2.85,2.31A10.17,10.17,0,0,1,75.44,20.85Z"/>
          </g>
          <path class="cls-7" d="M62.26,45.24c-.95,1.46-1,3-.22,3.47s2.26-.36,3.21-1.83,1-3,.23-3.46S63.21,43.78,62.26,45.24Z"/>
          <path class="cls-7" d="M44.61,35.79c-.78,1.54-.71,3.1.16,3.47s2.21-.57,3-2.11.7-3.1-.17-3.48S45.39,34.24,44.61,35.79Z"/>
          <path class="cls-8" d="M44.25,42.82a2.47,2.47,0,0,1,.29-.06,7.33,7.33,0,0,1,4.65,1.17,8.35,8.35,0,0,1,3.08,4c1,2.63-1.65,5.05-4.26,5.41-2.34.33-4.72-.15-7,.19-2.66.4-4.94,1.51-4-2a14.66,14.66,0,0,1,3.59-5.61C41.58,44.82,42.63,43.24,44.25,42.82Z"/>
          <path class="cls-9" d="M49.35,48.77c-.29,1.1-1.85,1.45-2.88,1.46-2.57.17-4.26-.52-6.43,1.08-.22-1.13,3.12-5.91,4.44-5.81.72.06,1.61,1.81,2.18,2.32a6.71,6.71,0,0,0,2.39.93Z"/>
          <path class="cls-10" d="M44.26,30.5c1.06,1.51-.59,4.22.9,6.32,1.15,1.7,3.33,2.39,5,3.65a7.78,7.78,0,0,1,1.75,2.25c1.42,2.09,1.76,7.61-1.06,7.69-2.13.06-3.43-1.68-4.78-2.85a26.77,26.77,0,0,0-4.87-3.48c-2.76-2.2-4.3-5-3.22-8.39C38.39,34.07,42.53,27.73,44.26,30.5Z"/>
        </g>
      </g>
    </g>
    <path class="cls-11" d="M74.29,84.71A31.64,31.64,0,0,1,78.92,89c3.19,3.14,6.06,6.44,6.75,12.5.49,4.27-.34,7.06-2.08,10.8a86.09,86.09,0,0,1-6.19,11c7.82-3.59,11.28-4.91,10.31-11.25,1.59,2.34.61,2.15.94,4.33,3.37-2.86,2.84-4.11,2.95-8.68,1.25,2.43.51,1,1.17,3.63,11.7-14.48-4.06-29.88-18.48-26.67Z"/>
  </g>
</svg>
