<svg xmlns="http://www.w3.org/2000/svg" xmlns:xlink="http://www.w3.org/1999/xlink" viewBox="0 0 1600 900"><defs><style>.cls-1,.cls-38,.cls-39{fill:none;}.cls-2{isolation:isolate;}.cls-3{clip-path:url(#clip-path);}.cls-4{fill:#d7e2d9;}.cls-5{fill:url(#Áåçûìÿííûé_ãðàäèåíò_29);}.cls-6{fill:url(#Áåçûìÿííûé_ãðàäèåíò_88);}.cls-7{fill:#302c5f;}.cls-8{fill:url(#Áåçûìÿííûé_ãðàäèåíò_146);}.cls-9{fill:url(#Áåçûìÿííûé_ãðàäèåíò_146-2);}.cls-10{fill:url(#Áåçûìÿííûé_ãðàäèåíò_18);}.cls-11,.cls-13{fill:#fff;}.cls-12{fill:#a41d2e;}.cls-13{mix-blend-mode:soft-light;}.cls-14,.cls-15,.cls-18,.cls-25{mix-blend-mode:multiply;}.cls-14{fill:url(#Áåçûìÿííûé_ãðàäèåíò_106);}.cls-15{fill:url(#Áåçûìÿííûé_ãðàäèåíò_106-2);}.cls-16{fill:#fff1d1;}.cls-17{fill:url(#Áåçûìÿííûé_ãðàäèåíò_18-2);}.cls-18{fill:#8b1f5f;opacity:0.15;}.cls-19{fill:#80807f;}.cls-20,.cls-21{fill:#e6a97f;}.cls-20,.cls-22,.cls-38{stroke:#933220;stroke-width:0.41px;}.cls-20,.cls-22,.cls-26,.cls-27,.cls-30,.cls-38,.cls-39{stroke-miterlimit:10;}.cls-22{fill:#fac59b;}.cls-23{fill:#ef6a24;}.cls-24{fill:#c85928;}.cls-25{opacity:0.1;}.cls-26{fill:#7294cc;stroke:#1e5699;}.cls-26,.cls-30{stroke-width:0.54px;}.cls-27{fill:#eb4341;}.cls-27,.cls-39{stroke:#a71f24;stroke-width:0.27px;}.cls-28{fill:#cddbeb;}.cls-29{fill:#d59c77;}.cls-30,.cls-37{fill:#592616;}.cls-30{stroke:#3a1911;}.cls-31{fill:#723221;}.cls-32{fill:#dfa57f;}.cls-33{fill:#3a3023;}.cls-34{fill:#fff3e3;}.cls-35{fill:#933220;}.cls-36{fill:#322517;}</style><clipPath id="clip-path"><rect class="cls-1" x="0.3" y="0.3" width="1600" height="900"/></clipPath><linearGradient id="Áåçûìÿííûé_ãðàäèåíò_29" x1="745.02" y1="972.77" x2="745.02" y2="306.86" gradientTransform="matrix(-1, 0, 0, 1, 2257.28, 0)" gradientUnits="userSpaceOnUse"><stop offset="0" stop-color="#302c5f"/><stop offset="1" stop-color="#36c2df"/></linearGradient><linearGradient id="Áåçûìÿííûé_ãðàäèåíò_88" x1="850.17" y1="259.12" x2="876.38" y2="259.12" gradientTransform="matrix(-1, 0, 0, 1, 2257.28, 0)" gradientUnits="userSpaceOnUse"><stop offset="0" stop-color="#92949a"/><stop offset="0.57" stop-color="#725870"/><stop offset="1" stop-color="#c19980"/></linearGradient><linearGradient id="Áåçûìÿííûé_ãðàäèåíò_146" x1="856.37" y1="276.85" x2="856.37" y2="260.27" gradientTransform="matrix(-1, 0, 0, 1, 2257.28, 0)" gradientUnits="userSpaceOnUse"><stop offset="0" stop-color="#fad6ac"/><stop offset="0.57" stop-color="#f19065"/><stop offset="1" stop-color="#e7c7c0"/></linearGradient><linearGradient id="Áåçûìÿííûé_ãðàäèåíò_146-2" x1="880.8" y1="261.17" x2="880.8" y2="253.33" xlink:href="#Áåçûìÿííûé_ãðàäèåíò_146"/><linearGradient id="Áåçûìÿííûé_ãðàäèåíò_18" x1="1246.31" y1="271.06" x2="1482.48" y2="271.06" gradientUnits="userSpaceOnUse"><stop offset="0" stop-color="#ee6b68"/><stop offset="1" stop-color="#c42728"/></linearGradient><linearGradient id="Áåçûìÿííûé_ãðàäèåíò_106" x1="714.69" y1="556.9" x2="764.92" y2="556.9" gradientTransform="matrix(-1, 0, 0, 1, 2257.28, 0)" gradientUnits="userSpaceOnUse"><stop offset="0" stop-color="#f1b590"/><stop offset="1" stop-color="#c2a39e"/></linearGradient><linearGradient id="Áåçûìÿííûé_ãðàäèåíò_106-2" x1="828.3" y1="406.52" x2="975.92" y2="406.52" xlink:href="#Áåçûìÿííûé_ãðàäèåíò_106"/><linearGradient id="Áåçûìÿííûé_ãðàäèåíò_18-2" x1="1198.41" y1="379.68" x2="1339.58" y2="379.68" xlink:href="#Áåçûìÿííûé_ãðàäèåíò_18"/></defs><g class="cls-2"><g id="Layer_1" data-name="Layer 1"><g id="b"><g class="cls-3"><g id="b-2" data-name="b"><polygon class="cls-4" points="1271 390.3 1267.3 176.3 1472 116.7 1472 426.5 1271 390.3"/><polygon class="cls-5" points="1472 306.9 1472 316.2 1476.5 320.6 1482.5 326.4 1492.8 336.4 1542.6 384.7 1507.2 972.8 1532.5 972.8 1552.5 379 1493.2 325.8 1482.5 316.3 1476.4 310.8 1472 306.9"/><polygon class="cls-6" points="1380.9 253.3 1393.8 259.7 1393.8 259.7 1395 260.3 1406.9 266.2 1407.1 257.4 1398.1 252.1 1380.9 253.3"/><polygon class="cls-7" points="1472 316.2 1472 334 1476.6 338.8 1482.5 344.9 1492.4 355.1 1522.8 386.8 1482 958.8 1507.2 972.8 1542.6 384.7 1492.8 336.4 1482.5 326.4 1476.5 320.6 1472 316.2"/><polygon class="cls-8" points="1395 260.3 1394.9 271.4 1406.8 276.9 1406.9 266.2 1395 260.3"/><polygon class="cls-9" points="1359.2 254.9 1372.8 261.2 1393.8 259.7 1380.9 253.3 1380.9 253.3 1359.2 254.9"/><path class="cls-10" d="M1331.7,256.8l27.4-1.9h.1l21.7-1.6h0l12.9,6.4-21,1.5-44.1,3.1Zm75.5-5.3v5.9l-9-5.3Zm-75.5,5.3,27.4-1.9h.1l21.7-1.6h0l17.2-1.2,9.1-.6v5.9l-.2,8.8v10.7l-2,119.3-108.3-19.7-1-29.4h0l-3-87.5Zm-29.6,114.1,91.7,12.1,1.1-111.6V260.3l-1.2-.6h0l-21,1.5-44.1,3.1-30.1,2.1,2.3,67.1Zm29.6-114.1,27.4-1.9h.1l21.7-1.6h0l17.2-1.2,9.1-.6v5.9l-.2,8.8v10.7l-2,119.3-108.3-19.7-1-29.4h0l-3-87.5Zm-29.6,114.1,91.7,12.1,1.1-111.6V260.3l-1.2-.6h0l-21,1.5-44.1,3.1-30.1,2.1,2.3,67.1Zm29.6-114.1,27.4-1.9h.1l21.7-1.6h0l17.2-1.2,9.1-.6v5.9l-.2,8.8v10.7l-2,119.3-108.3-19.7-1-29.4h0l-3-87.5Zm-29.6,114.1,91.7,12.1,1.1-111.6V260.3l-1.2-.6h0l-21,1.5-44.1,3.1-30.1,2.1,2.3,67.1Zm29.6-114.1,27.4-1.9h.1l21.7-1.6h0l17.2-1.2,9.1-.6v5.9l-.2,8.8v10.7l-2,119.3-108.3-19.7-1-29.4h0l-3-87.5Zm-29.6,114.1,91.7,12.1,1.1-111.6V260.3l-1.2-.6h0l-21,1.5-44.1,3.1-30.1,2.1,2.3,67.1Zm29.6-114.1,27.4-1.9h.1l21.7-1.6h0l17.2-1.2,9.1-.6v5.9l-.2,8.8v10.7l-2,119.3-108.3-19.7-1-29.4h0l-3-87.5Zm-29.6,114.1,91.7,12.1,1.1-111.6V260.3l-1.2-.6h0l-21,1.5-44.1,3.1-30.1,2.1,2.3,67.1Zm29.6-114.1,27.4-1.9h.1l21.7-1.6h0l17.2-1.2,9.1-.6v5.9l-.2,8.8v10.7l-2,119.3-108.3-19.7-1-29.4h0l-3-87.5Zm-29.6,114.1,91.7,12.1,1.1-111.6V260.3l-1.2-.6h0l-21,1.5-44.1,3.1-30.1,2.1,2.3,67.1ZM1482.5,98.3V443.8l-232.2-41.9-4-234.8ZM1472,116.7l-38.6,11.2-56.6,16.6-84.6,24.6-4.2,1.2-20.7,6,3.1,182.2.6,31.8,149.7,27,51.3,9.2Zm-65.1,149.5v10.7l-2,119.3-108.3-19.7-1-29.4h0l-3-87.5,39.2-2.7,27.4-1.9h.1l21.7-1.6h0l17.2-1.2,9.1-.6v5.9Zm-13.1-6.5h0l-21,1.5-44.1,3.1-30.1,2.1,2.3,67.1,1.2,37.4,91.7,12.1,1.1-111.6V260.3Zm-62.1-2.9,27.4-1.9h.1l21.7-1.6h0l17.2-1.2,9.1-.6v5.9l-.2,8.8v10.7l-2,119.3-108.3-19.7-1-29.4h0l-3-87.5Zm-29.6,114.1,91.7,12.1,1.1-111.6V260.3l-1.2-.6h0l-21,1.5-44.1,3.1-30.1,2.1,2.3,67.1Zm29.6-114.1,27.4-1.9h.1l21.7-1.6h0l17.2-1.2,9.1-.6v5.9l-.2,8.8v10.7l-2,119.3-108.3-19.7-1-29.4h0l-3-87.5Zm-29.6,114.1,91.7,12.1,1.1-111.6V260.3l-1.2-.6h0l-21,1.5-44.1,3.1-30.1,2.1,2.3,67.1Zm29.6-114.1,27.4-1.9h.1l21.7-1.6h0l17.2-1.2,9.1-.6v5.9l-.2,8.8v10.7l-2,119.3-108.3-19.7-1-29.4h0l-3-87.5Zm-29.6,114.1,91.7,12.1,1.1-111.6V260.3l-1.2-.6h0l-21,1.5-44.1,3.1-30.1,2.1,2.3,67.1Zm29.6-114.1,27.4-1.9h.1l21.7-1.6h0l17.2-1.2,9.1-.6v5.9l-.2,8.8v10.7l-2,119.3-108.3-19.7-1-29.4h0l-3-87.5Zm-29.6,114.1,91.7,12.1,1.1-111.6V260.3l-1.2-.6h0l-21,1.5-44.1,3.1-30.1,2.1,2.3,67.1Zm29.6-114.1,27.4-1.9h.1l21.7-1.6h0l17.2-1.2,9.1-.6v5.9l-.2,8.8v10.7l-2,119.3-108.3-19.7-1-29.4h0l-3-87.5Zm-29.6,114.1,91.7,12.1,1.1-111.6V260.3l-1.2-.6h0l-21,1.5-44.1,3.1-30.1,2.1,2.3,67.1Zm29.6-114.1,27.4-1.9h.1l21.7-1.6h0l17.2-1.2,9.1-.6v5.9l-.2,8.8v10.7l-2,119.3-108.3-19.7-1-29.4h0l-3-87.5Zm-29.6,114.1,91.7,12.1,1.1-111.6V260.3l-1.2-.6h0l-21,1.5-44.1,3.1-30.1,2.1,2.3,67.1Z"/><path class="cls-11" d="M1331.2,255l28.2-2h0l22.3-1.6h0l17.7-1.2,9.3-.7v15.1l-.2,11-2,122.5L1295,377.9l-1-30.2h0l-3-89.9Zm-25,111.2,83.1,11.1,1-101.4.2-10-1.1-.6h0l-19.1,1.4-40,2.8-27.3,1.9,2.1,60.9Z"/><path class="cls-12" d="M1256.8,176.3l3.7,214,139.2,25.1,72.3,13v-1.9l-51.3-9.2-149.7-27c-.9-53.2-3.4-197.6-3.7-214L1472,116.7v-3Z"/><polygon class="cls-12" points="1482.5 98.3 1498.5 98.3 1490.3 443.8 1482.5 443.8 1482.5 98.3"/><polygon class="cls-13" points="1548.4 499.3 1537.8 464.3 1526.8 647 1541.7 698.9 1548.4 499.3"/><polygon class="cls-13" points="1541.1 716.7 1525.2 674 1521.8 730.5 1539 777.4 1541.1 716.7"/><polygon class="cls-14" points="1522.8 386.8 1519 777.4 1542.6 384.7 1492.9 336.4 1492.4 355.2 1522.8 386.8"/><polygon class="cls-13" points="1492.9 333.9 1545.9 383.6 1507.2 972.8 1542.6 384.7 1492.9 336.4 1492.9 333.9"/><polygon class="cls-15" points="1306.3 390 1420.7 408.2 1429 423 1281.4 399.5 1306.3 390"/><polygon class="cls-12" points="1353.6 375.5 1353.6 387.3 1334.1 384.7 1334.1 375.5 1353.6 375.5"/><path class="cls-16" d="M1267.3,471.2c-4.5,0-44.4-.2-44.4-7.5s39.9-7.4,44.4-7.4,44.4.2,44.4,7.4S1271.8,471.2,1267.3,471.2Zm-41.1-7.5c2.6,1.9,17.8,4.5,41.1,4.5s38.5-2.6,41.1-4.5c-2.6-1.9-17.8-4.4-41.1-4.4S1228.8,461.8,1226.2,463.7Z"/><path class="cls-16" d="M1336.2,391.2c-1,3.1-2.2,6.2-3.5,9.2s-3,6-3.8,9.2l-1.2,4.7c-.5,1.6-1,3.2-1.6,4.7-1.4,3-2.6,6.1-3.8,9.2-2.4,6.1-4.2,12.4-6,18.7l-5.3,19c-3.4,12.6-6.9,25.3-9.7,38l-.5,2.3-.4,2.2c-.1,1.5,0,3.1,0,4.7.2,3.3.5,6.5.9,9.8a158.8,158.8,0,0,0,3.3,19.3.9.9,0,0,1-.6.9.7.7,0,0,1-.9-.5h0l-4-19.4c-.7-3.2-1.3-6.5-1.8-9.8a40.6,40.6,0,0,1-.4-5.1l.3-2.7.4-2.4c2.7-13,6.4-25.6,9.8-38.3l5.2-19c1.8-6.3,3.6-12.7,4.8-19.1.6-3.3,1.2-6.5,1.7-9.8a37.2,37.2,0,0,1,1.1-4.8l1.5-4.7c1-3.1,1.2-6.5,1.6-9.8s1.2-6.5,2.1-9.7a5.5,5.5,0,0,1,6.9-3.9,5.7,5.7,0,0,1,4,6.9Z"/><path class="cls-16" d="M1212.6,384.5a87.9,87.9,0,0,1,2.2,9.9c.2,1.6.2,3.3.4,5a38.6,38.6,0,0,0,1,4.9c1.7,6.6,4.6,12.8,4.7,19.6a84.2,84.2,0,0,0,.9,10.1c.5,3.3,1.3,6.6,1.8,9.9l3.8,19.8c1.3,6.6,2.6,13.2,3.6,19.8l1.5,10,.6,5a23.6,23.6,0,0,1,.1,5.3c-.8,7-2.9,13.4-5.1,19.7s-4.3,12.8-6.6,19.1a.7.7,0,0,1-.8.4.6.6,0,0,1-.3-.8h0c2.2-6.3,4.4-12.7,6.1-19.1.8-3.3,1.6-6.5,2.3-9.8a65.4,65.4,0,0,0,1.6-9.7c.2-3-.6-6.3-1.1-9.6l-1.8-9.9-3.7-19.7c-1.3-6.6-2.5-13.2-3.8-19.8-.7-3.2-1.3-6.6-2.1-9.8a83.5,83.5,0,0,0-3-9.7c-2.5-6.3-2.2-13.2-3.2-19.8a40.2,40.2,0,0,0-1-5c-.5-1.6-1.1-3.2-1.5-4.8a78.8,78.8,0,0,1-1.9-9.9,2.7,2.7,0,0,1,5.3-1.1Z"/><path class="cls-16" d="M1303.4,388.3c-.8,3.2-1.7,6.5-2.6,9.7s-2.1,6.4-2.4,9.8c-.1,1.7-.2,3.4-.4,5a38.9,38.9,0,0,1-1.2,4.9c-.8,3.3-1.9,6.5-2.8,9.7a150.3,150.3,0,0,0-4.2,19.7l-3.3,19.8c-2.2,13.3-4.2,26.6-6.1,39.7-1,6.4-1,13.1-1,19.8a121.8,121.8,0,0,0,1.7,20h0a.7.7,0,1,1-1.4.2h0c-1-6.7-1.7-13.3-2.6-20s-1.5-13.5-.9-20.4c1.1-13.6,3.5-26.8,5.8-40l3.6-19.8a192.4,192.4,0,0,0,2.8-20c.3-3.4.5-6.7.8-10.1.2-1.7.4-3.3.7-5s.9-3.2,1.4-4.8a43,43,0,0,0,1.3-10.1l1.2-10a5,5,0,0,1,5.5-4.2,4.9,4.9,0,0,1,4.2,5.5C1303.5,387.9,1303.4,388.1,1303.4,388.3Z"/><path class="cls-16" d="M1245.6,386.1c.4,3.3.6,6.5.7,9.8a63.8,63.8,0,0,0,.3,9.8,91.2,91.2,0,0,1,1.1,19.5,142.2,142.2,0,0,0,.5,19.6l1.3,19.6c.9,13,1.5,26,2.1,39.1a81.5,81.5,0,0,1-1,19.7c-1,6.5-2.2,12.9-3.6,19.4a.7.7,0,0,1-.8.5.8.8,0,0,1-.6-.8h0c3.1-12.6,3.3-25.8,3-38.6s-1.6-26-2.3-39l-1.2-19.6a140.5,140.5,0,0,0-2.2-19.4,91.6,91.6,0,0,1-1.5-19.5,81.6,81.6,0,0,0-1.1-9.8c-.3-3.2-.6-6.5-.7-9.7a3,3,0,0,1,2.9-3.2A3,3,0,0,1,1245.6,386.1Z"/><path class="cls-16" d="M1219.1,423a1.7,1.7,0,0,0-.6-1.5c-.1-.1,0,0,.1,0l1,.5,3,.9a60.6,60.6,0,0,0,6.4,1.2c4.4.7,8.9,1.3,13.4,1.7s8.9.8,13.5.9,9-.2,13.5-.2a242.8,242.8,0,0,0,27-1.2c4.5-.6,8.9-.9,13.4-1.2,2.2-.2,4.4-.6,6.5-1l2.9-.9a2.3,2.3,0,0,0,1.1-.5c.1,0,.3-.1.1-.1a2.1,2.1,0,0,0-.5,1.4,2.5,2.5,0,0,0,.5,1.5c.1.1,0,0-.1,0l-1.2-.4-2.9-.5c-2.1-.3-4.4-.3-6.6-.5-4.4-.3-8.8-.5-13.3-1.1-8.9-1.1-17.9-.9-26.9-1.4a173.9,173.9,0,0,0-27,.3c-4.5.4-8.9,1.1-13.3,1.8l-6.4,1-3,.6-1.1.4s-.2.1,0-.1A1.9,1.9,0,0,0,1219.1,423Zm-6.3,0a4.6,4.6,0,0,1,1.4-3l1.3-1,2.1-1,3.6-1.1,7-1.2c4.6-.5,9.2-.5,13.8-.8,9.2-.3,18.3-.7,27.4-1.3s18.3.2,27.5.2a80.9,80.9,0,0,1,13.8,1.5,64,64,0,0,1,6.9,1.8l3.5,1.2a8.8,8.8,0,0,1,2,.9,5.7,5.7,0,0,1,1.3,1,3.9,3.9,0,0,1,1.4,2.8,4.3,4.3,0,0,1-1.4,2.9,7.7,7.7,0,0,1-1.3.9l-2,.8-3.7.9-6.9,1.2a78.5,78.5,0,0,1-13.7,1.3c-9.2.2-18.3.5-27.4.5-4.6,0-9.1-.4-13.7-.6l-13.7-.4c-4.5-.2-9.1-.4-13.7-.9l-7-.9-3.6-.9-2.1-.8a7.6,7.6,0,0,1-1.4-1A4.1,4.1,0,0,1,1212.8,423Z"/><path class="cls-16" d="M1233.1,507c-.1-.2.2.3.7.5l1.7.9a23.4,23.4,0,0,0,4,1.1,77.2,77.2,0,0,0,8.4,1.2c5.8.4,11.5.5,17.3.5a165.3,165.3,0,0,0,17.2-1,80.9,80.9,0,0,0,8.4-1.2,25,25,0,0,0,3.9-1.1l1.7-.7c.4-.3.5-.7.4-.2s0,.2-.5,0a5.9,5.9,0,0,0-1.6-.7,23.4,23.4,0,0,0-4-1l-8.4-1.1c-5.6-.6-11.4-1-17.1-1.2a164,164,0,0,0-17.2.4,60,60,0,0,0-8.5,1.2l-4,1.1-1.7.8C1233.3,506.8,1233.1,507.3,1233.1,507Zm-2.7,0a2.6,2.6,0,0,1,.3-1.1,1.8,1.8,0,0,1,.5-.7,2.9,2.9,0,0,1,1.1-.9,15,15,0,0,1,2.2-1.1,24,24,0,0,1,4.4-1.2,87.9,87.9,0,0,1,8.7-1.5,173.8,173.8,0,0,1,17.6-1.4,148.6,148.6,0,0,1,17.6.6,64.7,64.7,0,0,1,8.8,1.5,38.1,38.1,0,0,1,4.4,1.5,12,12,0,0,1,2.3,1.1c.4.4.8.5,1.2,1.1a5.5,5.5,0,0,1,.6.8,3.1,3.1,0,0,1,.3,1.3,2.8,2.8,0,0,1-.3,1.3,7,7,0,0,1-.6.9,5.3,5.3,0,0,1-1.2,1,15.8,15.8,0,0,1-2.3,1.1l-4.4,1.2a70.4,70.4,0,0,1-8.8,1.5,174,174,0,0,1-17.6.8,130.3,130.3,0,0,1-17.6-1.3,87.9,87.9,0,0,1-8.7-1.5,23,23,0,0,1-4.3-1.2,11.5,11.5,0,0,1-2.3-1,4.4,4.4,0,0,1-1.1-.9c-.2-.3-.4-.4-.5-.8A2,2,0,0,1,1230.4,507Z"/><polygon class="cls-17" points="1339.6 372.9 1336.9 390 1201.8 384.8 1198.4 369.4 1339.6 372.9"/><polygon class="cls-13" points="1239.6 372.4 1239.6 383.6 1205.2 382 1202.1 372.4 1239.6 372.4"/><polygon class="cls-13" points="1246.3 372.4 1267.3 372.4 1265.2 383.6 1246.4 383.6 1246.3 372.4"/><polygon class="cls-13" points="1292.5 259.5 1295.5 347 1300.9 333.5 1298.6 266.4 1328.7 264.3 1331.7 256.8 1292.5 259.5"/><polygon class="cls-18" points="1467.6 122.6 1464.5 419.1 1343.8 400.1 1443.8 409.3 1435.5 134.8 1467.6 122.6"/><polygon class="cls-13" points="1319.3 154.7 1312.1 149.5 1249.2 168.3 1256.8 172.7 1319.3 154.7"/><polygon class="cls-13" points="1322.2 154 1315.4 148.7 1339.1 142 1344.7 147.8 1322.2 154"/><path class="cls-19" d="M563,500.5c21.8-21.7,46-40.9,71.1-58.7,12.5-8.9,25.4-17.4,38.5-25.4s26.5-15.6,40.1-22.8l10.2-5.3,10.4-5.1,10.4-4.9,5.3-2.4,5.3-2.3,10.6-4.6,10.6-4.3c7.2-2.9,14.4-5.5,21.6-8.2,14.5-5,29.1-9.9,44-13.9s29.8-7.4,44.9-10.5c-15,3.3-30,6.7-44.8,11s-29.4,8.9-43.9,14.1c-7.1,2.7-14.4,5.3-21.5,8.2-3.5,1.5-7.1,2.8-10.6,4.4l-10.6,4.6-5.3,2.3-5.2,2.4c-3.5,1.7-7,3.2-10.4,5l-10.3,5-10.3,5.4q-20.4,10.7-40.1,22.6t-38.6,25.2c-12.5,8.8-24.8,18.1-36.8,27.7S574,489.7,563,500.5Z"/><path class="cls-19" d="M633.7,364.9a375.8,375.8,0,0,1,55.1-30.7,460.8,460.8,0,0,1,58.9-22.5c10.1-3,20.3-5.6,30.5-7.9l7.8-1.6,3.8-.8,3.9-.7,7.8-1.3,7.8-1.1,7.8-1,7.8-.9c5.3-.4,10.5-.9,15.8-1.1,10.5-.6,21-.5,31.5-.2-10.5-.1-21-.1-31.5.7-5.2.2-10.5.8-15.7,1.2-2.6.2-5.2.6-7.8.9l-7.8,1-7.8,1.2-7.8,1.4-3.8.7-3.9.8-7.7,1.6c-10.2,2.4-20.4,5.1-30.4,8.1a458.7,458.7,0,0,0-58.9,22.1c-9.6,4.4-19,9-28.3,14S642.5,359,633.7,364.9Z"/><g id="_003" data-name="003"><path class="cls-20" d="M343.7,717s-8.2-12.9-8.2-28.8,14.6-64.8,20.6-64.3c11,.9-6.5,43.5-5,54.8,0,0,6.5-26.5,9.1-31.1,5.2-9,16.3-19,22.6-17.6s-19.4,32.8-20.4,42.4-1.5,13.4-1.5,13.4"/><path class="cls-20" d="M359.5,689.6s13.7-48.8,29.9-44.5c9,2.3-19.5,35.1-24,43.3,0,0,17.4-16.6,27.3-1.8,0,0,1.1,10.3-6.3,6.4s-12.8-1.6-18,7.2"/><path class="cls-20" d="M224.8,739.9c9.6,10-14.6-56.7,34.1,33.8,5.5,10.3,29.7,27.9,35.9,27,3.6-.5,17.4-20.5,23.8-33.3s11.7-19.3,17-32.2,4.2-26.3,4.8-25,14.8,8,20.9,6.8c17.7-3.2-34.4,103.9-71.7,118.2,0,0-34.5.4-74.8-75.9Z"/><path class="cls-21" d="M343.7,717s7,10.5,17.6,0,0-19.9,0-19.9l-16.6,7.4"/><path class="cls-22" d="M233.4,698.6s-14,13.1-3.3,33.9-42.1,1.2-42.1,1.2,17.3-21,.8-35.1,40.7,0,40.7,0"/><ellipse class="cls-23" cx="977.1" cy="314.4" rx="61.9" ry="62" transform="translate(643 1285) rotate(-88.8)"/><path class="cls-24" d="M1023.2,296.8c9,1.8,14.2,10.6,15.8,13.6a59,59,0,0,0-1-7.5c-3-3.8-7.7-8-14.1-9.3s-12.3.1-19.1,4.1A98.6,98.6,0,0,0,993.7,284c11.4-6.5,21.9-10.1,30.2-10.2l-3-3.1c-8.4.8-18.6,4.6-29.6,11-1.8-1.8-3.6-3.3-5.3-4.8l-4.9-3.8c4.5-2.5,8-5.4,9.9-9a13.2,13.2,0,0,0,1.2-9.6l-3.5-.8a11.3,11.3,0,0,1-.6,8.9c-1.7,3.3-5.3,6-9.9,8.4a110.1,110.1,0,0,0-25.8-13.3l-4.3,2h.2c.1,0,12.3,3.4,26.5,12.8-7,3-15.6,5.4-24,7.7-12.8,3.6-25.1,7-31.8,12.4a51.6,51.6,0,0,0-2.5,8.5,2.2,2.2,0,0,0,.7-.9c2.6-8,18.8-12.5,34.4-16.8,9.3-2.6,18.8-5.2,26.3-8.7,2,1.4,4,3,6.1,4.7l4.4,3.9a194.5,194.5,0,0,0-25.7,19.2c-16.1,14.3-32.8,33.7-36.5,47.3.9,1.2,1.7,2.4,2.7,3.5,1.3-10.9,16-30.6,36-48.3a187.5,187.5,0,0,1,25.9-19.4,100.6,100.6,0,0,1,11.3,13.7,72.2,72.2,0,0,0-9.1,7.4c-4.6,4.5-8.3,19.1-12.2,34.6s-7.7,30-11.9,34.4l3.8.4c4.2-6.4,7.6-19.9,11.2-34s7.4-29.2,11.4-33.1a64.6,64.6,0,0,1,8.6-7c8.8,14,15.6,32.7,15.8,57.3,1.1-1.1,2.2-2.1,3.2-3.3-.8-23.7-7.5-41.9-16.3-55.7C1012.6,296.9,1018.1,295.7,1023.2,296.8Z"/><path class="cls-25" d="M978.3,252.6a53.2,53.2,0,0,0-9.8.6A61.8,61.8,0,0,1,966,375.3a61.9,61.9,0,1,0,12.3-122.7Z"/><path class="cls-26" d="M281.4,900.3H240.9a403.4,403.4,0,0,1-50.6,4.4c-33.5.6-28.6,15.4-29.3-9-1.9-67.6-1-93.5,9.3-140.3,3.2-14.7,14.6-28.3,23.5-37.3,1.1-1.1,1-1.5,2.6-1.4l3,1.8a37.1,37.1,0,0,0,22,7.2c2-.1,4.3-2.1,6.1-1s4.4,5.4,5.9,8.9c4.2,9.9,7.5,13.4,13.9,26.4,2.2,4.4,7.3,15.2,8.1,18C264.6,810.1,279.1,850.2,281.4,900.3Z"/><path class="cls-27" d="M237.8,775.7c2.4,22.9-12.4,35.8-26.2,35.8-9.9,0-35.7-6.8-35.7-44.1,0-27,12.7-40.9,26.3-41.6C230.4,724.3,236.6,764,237.8,775.7Z"/><path class="cls-22" d="M236.1,779.7s-3.9,10.7-9,18c-11,15.5-54.2,12.1-46.6-46.7,1.4-10.8,9.5-21.5,14.9-23.7a21.3,21.3,0,0,1,14.1-.7"/><path class="cls-28" d="M258,800.2a124.2,124.2,0,0,1-15.1,36.7,90.5,90.5,0,0,0,25.5-41.6l2.8,35.9c.4,5,.8,10.3-1,15L265,823.3c-1.7,14.4-13,25.6-24.4,34.6-6.4,5.1-13.1,9.9-20,14.4a164.9,164.9,0,0,0,24.6-35.6c-3.5,6.9-21.1,17.7-28.3,18.1,13.2-15.2,15.5-19.7,20.7-25.5C246.6,819.2,250.7,811.6,258,800.2Z"/><path class="cls-22" d="M280.6,659.2c.6,3.1,3.1,6.9,5.3,9.2a2.2,2.2,0,0,1-.8,3.8,50.8,50.8,0,0,1-7.9,2c2.3,1.6,4.8,3.5,5.4,6.3s-2.2,6.1-4.7,4.9c.1,5.4-2.8,10.6-6.4,14.7-10.4,11.4-26.9,15.6-42.4,15.2-13.1-.4-39.5-11.4-44-14.7-.4-.3-.7-.6-.7-.7a48,48,0,0,0-8,1.1c-7.4,1.4-21.4-2.1-38.2-24.1-42.8-55.9-48.2-107,9-134.5,27.3-13.2,49.8-10.7,66.9-2.3,18.7,9.2,30.9,25.4,35.8,35.7,2.6,5.5,8.2,4.3,10,10.1,4.1,13.2,3.1,33.9,7.9,47.1,1.6,4.4,4.5,9.2,9.2,9.3s7-3.9,11.1-1.6S284.8,656.5,280.6,659.2Z"/><path class="cls-29" d="M256.3,592.7l-1.5-.8c-4.9-2.8-9.9-5.3-14.9-8l-8.6-4.9c-1.7-1-7.2-3.1-8-4.9a99.4,99.4,0,0,1,8.1,24.9c-1.8-.9-3.5-2-5.2-3-14.6-8.5-31.9-11.2-48.8-11.8a34.6,34.6,0,0,1,13.9,48.6c-1.7,2.8-4,5.4-7.2,6.2a12.6,12.6,0,0,1-6.9-.6c-8.6-2.5-16.6-7.6-21-15.4-2.8-5.1-4-10.9-5.1-16.6l-3.6-18.6c-.6-3.5-1.3-7.4.4-10.5s3.1-3.6,4.9-5.1c5.2-4.7,9.1-10.7,14.2-15.4,9.1-8.3,21.5-11.9,33.6-14.4a122.7,122.7,0,0,1,13.5-2.3c18.7,9.2,30.9,25.4,35.8,35.7A119.5,119.5,0,0,1,256.3,592.7Z"/><path class="cls-30" d="M264.7,600.7c-2.7-9.8-11.2-16.8-19.5-22.8a339.4,339.4,0,0,0-52.4-30.8c12.1,11.9,24.7,24.5,29.4,40.8a76.2,76.2,0,0,0-57.8-7c5.4.7,9.9,4.8,13.3,9.1,13.9,17.8,18.9,38.1,11.7,55.2-1.1-3.2-17.4-11.9-19.9-14.1,1,2.1,8.7,23.1,9.1,25.3-8-3.9-17.6-10.1-26.5-9.4-3.9.3-8.3,1.5-10,5s-.9,4.4-.6,6.7c1.2,8.6,1.1,11.3,5.1,19.1,3,5.8,6.9,11.9,13.1,16s19.7,7.9,24.5,5.5c.6,1-26.4,8.3-58.6-15.4h0A124.7,124.7,0,0,1,108.1,668c-49.6-53.5-6.5-102.2-6.5-102.2,47.2-83.6,130.9-37.4,130.9-37.4,23.8,13.2,31.9,31.4,33.9,46.2h.1A63.5,63.5,0,0,1,264.7,600.7Z"/><path class="cls-31" d="M268,576.7c-5.3-16.3-17.7-30-32.6-38.5s-35.4-12.8-54.1-12.7a66.4,66.4,0,0,0-19.3,2.4c-8.6,2.5-16.3,7.4-23.5,12.8a217.8,217.8,0,0,0-24.3,20.7,194.8,194.8,0,0,1,24.2-4.5,81.2,81.2,0,0,0-36.1,28.4,14.4,14.4,0,0,1,15.7.6c-9.4-.8-18.3,6-22.2,14.6S92,619,93.6,628.3A98.6,98.6,0,0,0,127.1,686a123.6,123.6,0,0,1-17.5-15.8c-49.6-53.6-6.5-102.3-6.5-102.3C150.3,484.4,234,530.6,234,530.6,257.8,543.8,265.9,561.9,268,576.7Z"/><path class="cls-32" d="M162,682.7c3.3,4.6,8,8.3,13.4,9.6,2.3.5,5.3.2,6.1-2s-1.7-4.6-4.1-5.3-7.1-1.4-7.2-4.5,3-2.8,4.9-4.1c5.5-3.9,5.5-9.3,0-13.2-3.8-2.7-16-7.4-19.6-2.9S159.2,678.8,162,682.7Z"/><path class="cls-33" d="M226.9,638.2s-2.5-18.5,13.1-27a7.8,7.8,0,0,1,9.4,1.2c2.7,2.6,5.4,7.6,7.1,17.5C260.3,652.6,240.9,652.1,226.9,638.2Z"/><path class="cls-34" d="M228.3,639.3s-2.4-18.2,12.5-26.5a7.7,7.7,0,0,1,9.2,1.3c2.6,2.5,5.3,7.5,6.9,17.2C260.7,653.7,242,653.1,228.3,639.3Z"/><path class="cls-35" d="M228.3,639.3a31.8,31.8,0,0,1,1.4-13,26.6,26.6,0,0,1,2.8-5.9,25.7,25.7,0,0,1,4.4-4.9l1.3-1.1,1.4-.9,1.4-.8a3.9,3.9,0,0,1,1.5-.6,8,8,0,0,1,6.4.9,13.1,13.1,0,0,1,2.4,2.3,26.1,26.1,0,0,1,1.7,2.8,35.1,35.1,0,0,1,2.4,6.1,47.2,47.2,0,0,1,1.5,6.5,28.1,28.1,0,0,1,.6,6.5,15.6,15.6,0,0,1-1.3,6.4,8.5,8.5,0,0,1-4.5,4.6,7.6,7.6,0,0,1-3.2.8,9.2,9.2,0,0,1-3.3-.1,22.9,22.9,0,0,1-6.3-1.9A38.4,38.4,0,0,1,228.3,639.3Zm0,0a37.5,37.5,0,0,0,10.6,7.6,22.9,22.9,0,0,0,6.3,1.9,17.4,17.4,0,0,0,3.2.1,11.6,11.6,0,0,0,3.2-.8,8.8,8.8,0,0,0,4.4-4.5,15.6,15.6,0,0,0,1.3-6.4,34.9,34.9,0,0,0-.6-6.5c-.4-2.2-.9-4.3-1.5-6.4a35.1,35.1,0,0,0-2.4-6.1,24.6,24.6,0,0,0-1.7-2.7,10,10,0,0,0-2.3-2.3,8,8,0,0,0-6.2-1l-1.5.6-1.4.9-1.4.9-1.3,1a22.3,22.3,0,0,0-4.3,4.9,24.9,24.9,0,0,0-2.9,5.9A31.2,31.2,0,0,0,228.3,639.3Z"/><ellipse class="cls-36" cx="248.8" cy="627.2" rx="7.6" ry="10.7" transform="translate(-114.5 58.6) rotate(-10.9)"/><circle class="cls-34" cx="243.4" cy="623.8" r="2.9"/><path class="cls-35" d="M254.9,666.8a25.6,25.6,0,0,0,4.8,3.9,24.1,24.1,0,0,0,5.7,2.5,18.8,18.8,0,0,0,6.1.9,21.5,21.5,0,0,0,6.2-.8,25.9,25.9,0,0,1-6.2,1l-3.1-.2a28.4,28.4,0,0,1-3.1-.6,24.8,24.8,0,0,1-5.8-2.5,22.8,22.8,0,0,1-5-3.8Z"/><path class="cls-37" d="M223.6,606.2s3-16.7,19.1-9.4C242.7,596.8,234.7,594.7,223.6,606.2Z"/><path class="cls-22" d="M257.5,621.2s-.9,9.1-29.2,18.1c0,0-1.1-15.9,8.8-23.9C237.1,615.4,245.1,604.8,257.5,621.2Z"/><path class="cls-27" d="M231.1,729.1c-16.7,9.2-31.7-4.5-37.4-10.5,3.5-1.1,1.1-2.1,2.7-2l4,2.8c5.9,3,12.7,7.2,20.5,6.2,4.1-.6,3.6-1.6,6.6-1S230.5,727.5,231.1,729.1Z"/><path class="cls-22" d="M194,778.8c8.8,11.2,30.7,28,30.7,28s50.7,39.3,73.2,39.8c0,0,14.3-7.9,26.6-26.4s50.2-69,57.9-91.1c0,0,3.2-3.3-4.5-17.5s-7-13.1-3.8-15.7l20.2-17.1a11.4,11.4,0,0,0,3-3.2,4.5,4.5,0,0,0,.2-4.2,3.9,3.9,0,0,0-3.5-1.9c-3.2,0-6.1,1.9-8.7,3.8-5.4,3.8-10.9,7.6-16.5,11.3-.2.2-.8.2-.6-.1,2.4-5.3,4.2-10.6,8.1-14.8s8.2-8.3,10.5-13.5c.6-1.3.8-3.2-.5-3.8a7.9,7.9,0,0,0-7.3-.3,20.8,20.8,0,0,0-5.7,4.9,147,147,0,0,0-16,21.8c.9-5.5,1.8-11.5,4.2-16.6,3-6.7,8.4-12.7,8.6-20,.1-2.7-4.3-4.3-6.8-3.4s-3.7,3.3-4.9,5.6l-8.1,16.2a80.2,80.2,0,0,0,3.1-19.5,7.6,7.6,0,0,0-.4-3.4c-.9-2.2-3.4-3.1-5.7-3.8,0,0-6.2-2.3-6.5,10.2s-.2,35-.7,39.7,17,33.4,16.6,40.3-9.7,18.1-26.4,36.5-36.6,45.3-36.6,45.3-41.6-27-67.7-65.3c0,0-15.7-19.4-28-14.3"/><path class="cls-38" d="M356.4,722.9a13.6,13.6,0,0,0,4.6,7.7"/><path class="cls-38" d="M351.7,655.7a86.1,86.1,0,0,0-4.9,24.1"/><path class="cls-38" d="M293.3,805.6c3.6,1.3,7.2,8.9,6.6,6.9"/><path class="cls-39" d="M201.3,786.4c-.1.1.3.1.2-.1s-.3-.2-.5-.2c-5.1.7-10-2.2-14.2-5.2"/></g></g></g></g></g></g></svg>