<svg id="Layer_1" data-name="Layer 1" xmlns="http://www.w3.org/2000/svg" xmlns:xlink="http://www.w3.org/1999/xlink" viewBox="0 0 130 50"><defs><style>.cls-1{fill:#fff;}.cls-2{fill:url(#linear-gradient);}.cls-3{fill:url(#linear-gradient-2);}.cls-4{fill:#030303;}.cls-5{fill:#fcfdff;}.cls-6{fill:#422f2a;}.cls-7{fill:#705257;}</style><linearGradient id="linear-gradient" x1="27.56" y1="12.82" x2="21.96" y2="64.78" gradientTransform="translate(0.71 -3.39)" gradientUnits="userSpaceOnUse"><stop offset="0" stop-color="#4a240d"/><stop offset="0.64" stop-color="#9b6a33"/></linearGradient><linearGradient id="linear-gradient-2" x1="107.27" y1="21.8" x2="101.67" y2="73.75" gradientTransform="translate(1.12 -8.34)" xlink:href="#linear-gradient"/></defs><path class="cls-1" d="M3.94,35.17s-.47-7.63,7.94-20C16.07,9,22.53,5.82,28.61,7c7.92,1.5,11.9,11.55,14.5,18.11a17.5,17.5,0,0,1,1.17,4.64,15.85,15.85,0,0,1-.51,6C41.69,42,28.92,43.12,28,43.19,16.51,44.1,7.54,38,3.94,35.17Z"/><path class="cls-1" d="M126.07,37.77C124,44,111.21,45.13,110.25,45.2c-11.45.91-20.42-5.22-24-8,0,0-.47-7.63,8-20C98.37,11,104.83,7.83,110.9,9c7.92,1.5,11.9,11.55,14.51,18.11"/><ellipse class="cls-2" cx="26.19" cy="28.73" rx="11.67" ry="12.7" transform="translate(-1.73 1.67) rotate(-3.54)"/><ellipse class="cls-3" cx="106.3" cy="32.77" rx="11.67" ry="12.7" transform="translate(-1.82 6.63) rotate(-3.54)"/><ellipse class="cls-4" cx="26.27" cy="30.07" rx="6.96" ry="6.32" transform="translate(-1.81 1.68) rotate(-3.54)"/><ellipse class="cls-4" cx="107.03" cy="33.92" rx="6.96" ry="6.32" transform="translate(-1.89 6.68) rotate(-3.54)"/><ellipse class="cls-1" cx="102.81" cy="28.49" rx="3.22" ry="3.16" transform="translate(-1.56 6.41) rotate(-3.54)"/><ellipse class="cls-5" cx="21.49" cy="26.22" rx="3.07" ry="2.65" transform="translate(-1.58 1.38) rotate(-3.54)"/><path class="cls-6" d="M85.6,33.88a59.86,59.86,0,0,1,6.06-16.26,32.35,32.35,0,0,1,5.43-7.1c.28-.26.53-.54.83-.78L98.84,9a16,16,0,0,1,2-1.29,20.38,20.38,0,0,1,2.16-1,14.4,14.4,0,0,1,2.34-.62,13,13,0,0,1,9.24,2.09,21.91,21.91,0,0,1,6.23,6.62A36.61,36.61,0,0,1,126,31.38a51,51,0,0,0-7.21-15.21,21.4,21.4,0,0,0-5.8-5.49,10.14,10.14,0,0,0-7.15-1.52,13.38,13.38,0,0,0-6.74,3.53,35.45,35.45,0,0,0-5.36,6.22A116.07,116.07,0,0,0,85.6,33.88Z"/><path class="cls-6" d="M7.76,24.53A29.62,29.62,0,0,1,12.58,10a17.2,17.2,0,0,1,6-5.41A14.09,14.09,0,0,1,26.68,3.1a16.66,16.66,0,0,1,7.59,3,21.69,21.69,0,0,1,5.47,5.76,28.34,28.34,0,0,1,4.48,14.58,39,39,0,0,0-6.45-13.16,21.9,21.9,0,0,0-5.16-4.75,14.08,14.08,0,0,0-6.29-2.37,11.46,11.46,0,0,0-6.46,1.06,16.21,16.21,0,0,0-5.36,4.27,30.12,30.12,0,0,0-3.9,6.09A68.65,68.65,0,0,0,7.76,24.53Z"/><path class="cls-7" d="M3.94,35.17s-.47-7.63,7.94-20C16.07,9,22.53,5.82,28.61,7c7.92,1.5,11.9,11.55,14.5,18.11a17.5,17.5,0,0,1,1.17,4.64,15.85,15.85,0,0,1-.51,6C41.69,42,28.92,43.12,28,43.19,16.51,44.1,7.54,38,3.94,35.17Z"/><path class="cls-7" d="M126.07,37.77C124,44,111.21,45.13,110.25,45.2c-11.45.91-20.42-5.22-24-8,0,0-.47-7.63,8-20C98.37,11,104.83,7.83,110.9,9c7.92,1.5,11.9,11.55,14.51,18.11"/></svg>