<svg id="Layer_1" data-name="Layer 1" xmlns="http://www.w3.org/2000/svg" width="140" height="110" viewBox="0 0 140 110">
  <defs>
    <style>
      .cls-1 {
        fill: #ffeb57;
      }

      .cls-1, .cls-5 {
        stroke: #938c09;
      }

      .cls-1, .cls-4, .cls-5 {
        stroke-miterlimit: 10;
      }

      .cls-2 {
        fill: #d0e8ec;
        opacity: 0.2;
      }

      .cls-3 {
        opacity: 0.8;
      }

      .cls-4, .cls-6 {
        fill: #ffeb8a;
      }

      .cls-4 {
        stroke: #c4b716;
      }

      .cls-5 {
        fill: #ffe400;
      }

      .cls-7 {
        fill: #c4b716;
      }

      .cls-8 {
        fill: #231f20;
      }

      .cls-9 {
        fill: #d82e2a;
      }

      .cls-10 {
        fill: #b22424;
      }

      .cls-11 {
        fill: #ef4136;
      }

      .cls-12 {
        fill: #ceb500;
      }
    </style>
  </defs>
  <g>
    <path class="cls-1" d="M81.27,38.08c-7.12,0-16.79,0-19,5.6-1,2.58,2.24-5.6,4.48-5.6,6,0,0,9,7.83,20.15C78.17,63.4,85.86,68.77,86.87,75c4.48-11.2,3.95-14-.7-21.18,2.68,2.44,6.57,4,8.53,7.28.21-4.18,0-7.37-2.51-11.5,1.46.84,2.93,2.18,4.39,3C97,44.79,86.87,38.08,81.27,38.08Z"/>
    <g>
      <g>
        <g>
          <path class="cls-2" d="M51.54,92.93c-5.17,1.27-32.18,14.59,51.6,10.89C70.1,107.9,5.63,103.49,51.54,92.93Z"/>
          <path class="cls-2" d="M123.9,95c1.95.5,12.57,6.86-18.15,8.26C118,104.13,141.23,99,123.9,95Z"/>
        </g>
        <g>
          <path class="cls-4" d="M117.36,58.18c1.09-1.08,2.84-1.3,4.58-1.51,5.65-1.69,9.38-3.53,13.75-7.85-.8,4.52-2.56,9-6.13,12.09,1-.82,2.84-1.3,3.83-2.11-.18,3-2.47,5.37-4.73,6.89a6.57,6.57,0,0,0,1.38-1c-.7,4.26-6.66,6.73-10.18,8,.1-3.59,3.11-11.17-.6-13.54Z"/>
          <path class="cls-5" d="M114.73,52.85a46.68,46.68,0,0,0-29-8.6c-7.47.29-14.45,3.09-21.77,3.93A11.27,11.27,0,0,1,62,45.53a31.54,31.54,0,0,1-1.76-5.4c-1.22-4.65-1-9.91-3.31-14.26A24.9,24.9,0,0,0,43.07,14.69,33.47,33.47,0,0,0,28.18,13.6c-6.39.88-9.6,3.61-13.49,8.22-2.87,3.39-4,7.54-5.17,11.7-.89,3.1-2.23,6.94-4.16,9.57C4.27,44.57,3.46,44.91,4,46.83A15,15,0,0,0,6.56,51.4,33.89,33.89,0,0,0,15.17,59c7.26,4.77,13.42,7,20.7,7C38,70.3,44.17,76,46.54,78.44c13.63,12,40.76,20.68,57.92,14A28.6,28.6,0,0,0,121,76.57C124.44,67.94,123.19,59.1,114.73,52.85Z"/>
          <g>
            <path class="cls-6" d="M34.51,13.47C30.87,9.73,25,9.8,21.88,5.16c-.71,2.23,1.33,4.47,3.11,6A17.23,17.23,0,0,1,22.1,9.76c0,1.18,1.3,2.27,2.44,3.16a6.24,6.24,0,0,1-3-.9c2.18,7.34,8.48,3.13,13.66,4Z"/>
            <path class="cls-7" d="M34.51,13.47a12.79,12.79,0,0,0-3.16-2.1c-1.14-.56-2.33-1-3.51-1.49a21.66,21.66,0,0,1-3.46-1.76,10.17,10.17,0,0,1-2.86-2.73l.76-.11a3.6,3.6,0,0,0,.68,3,12.55,12.55,0,0,0,2.34,2.5l2,1.65-2.43-.84a17.51,17.51,0,0,1-3-1.41l.76-.44a2.45,2.45,0,0,0,.75,1.48,12.64,12.64,0,0,0,1.48,1.32l1.14.91-1.45-.06a7,7,0,0,1-3.18-1l.66-.52A6.53,6.53,0,0,0,23.86,15a5.14,5.14,0,0,0,3.46,1.06c2.57,0,5.25-.75,7.93-.24l-.13.14Zm0,0,.83,2.46,0,.17-.18,0a14.28,14.28,0,0,0-3.91.2,39.13,39.13,0,0,1-4,.49,5.88,5.88,0,0,1-4-1.08,7.26,7.26,0,0,1-2.19-3.54L20.77,11l1,.59a5.9,5.9,0,0,0,2.76.82l-.31.85a14,14,0,0,1-1.61-1.41A5,5,0,0,1,22,11a2.52,2.52,0,0,1-.35-1.21V8.87l.76.46a16.12,16.12,0,0,0,2.8,1.37l-.47.81A13.23,13.23,0,0,1,22.2,8.78,5.6,5.6,0,0,1,21.42,7a3.64,3.64,0,0,1,0-2l.27-.84.49.73a10.24,10.24,0,0,0,2.55,2.62,21,21,0,0,0,3.28,1.84c1.15.54,2.32,1.08,3.43,1.72A11.44,11.44,0,0,1,34.51,13.47Z"/>
          </g>
          <path class="cls-8" d="M32.09,40.72a4.91,4.91,0,0,1-.19,1.7c-.47,1.66-1.6,2.78-2.52,2.5s-1.3-1.85-.83-3.51c0-.14.09-.28.14-.41Z"/>
          <path class="cls-8" d="M12.11,36.94c0,.11,0,.22,0,.33-.16,1.66-1,2.9-1.95,2.78S8.62,38.46,8.78,36.8A4.63,4.63,0,0,1,9.34,35Z"/>
          <path class="cls-9" d="M28,49c-1,3.28-8.83,5.51-11.9,7.39-8.36,6-7.82-8.74-4.55-12.8C17,45.75,22.56,46.83,28,49Z"/>
          <path class="cls-10" d="M22.28,48.57c-1.78,2.82-6.28,3-8.76,5.27-.06-2.26.2-4.53.33-6.73,3,.73,5.23,1.94,8.31,1.52Z"/>
          <path class="cls-11" d="M4.88,39.23c1.32-2.5,3.28.09,5.89.22,3,0,5.18-2.18,8-1.68,3.75.4,6.33,3.07,6,6.18,4.06,2.5,5.84,6.29-1,6.39C20.43,50.24,1.73,44.63,4.88,39.23Z"/>
          <path class="cls-12" d="M62.08,46.41S81.89,60.5,43.83,65.23C43.83,65.23,63.34,60.18,62.08,46.41Z"/>
        </g>
      </g>
      <path class="cls-1" d="M97.27,47.08c-7.12,0-16.79,0-19,5.6-1,2.58,2.24-5.6,4.48-5.6,6,0,0,9,7.83,20.15,3.62,5.17,11.31,10.54,12.32,16.8,4.48-11.2,3.95-14-.7-21.18,2.68,2.44,6.57,4,8.53,7.28.21-4.18,0-7.37-2.51-11.5,1.46.84,2.93,2.18,4.39,3C113,53.79,102.87,47.08,97.27,47.08Z"/>
    </g>
  </g>
</svg>
