<svg xmlns="http://www.w3.org/2000/svg" xmlns:xlink="http://www.w3.org/1999/xlink" viewBox="0 0 1600 900"><defs><style>.cls-1{fill:none;}.cls-2{isolation:isolate;}.cls-3{clip-path:url(#clip-path);}.cls-4{fill:#ef6a24;}.cls-5{fill:#c85928;}.cls-17,.cls-18,.cls-21,.cls-6{mix-blend-mode:multiply;}.cls-6{opacity:0.1;}.cls-7{fill:#d7e2d9;}.cls-8{fill:url(#Áåçûìÿííûé_ãðàäèåíò_29);}.cls-9{fill:url(#Áåçûìÿííûé_ãðàäèåíò_88);}.cls-10{fill:#302c5f;}.cls-11{fill:url(#Áåçûìÿííûé_ãðàäèåíò_146);}.cls-12{fill:url(#Áåçûìÿííûé_ãðàäèåíò_146-2);}.cls-13{fill:url(#Áåçûìÿííûé_ãðàäèåíò_18);}.cls-14,.cls-16{fill:#fff;}.cls-15{fill:#a41d2e;}.cls-16{mix-blend-mode:soft-light;}.cls-17{fill:url(#Áåçûìÿííûé_ãðàäèåíò_106);}.cls-18{fill:url(#Áåçûìÿííûé_ãðàäèåíò_106-2);}.cls-19{fill:#fff1d1;}.cls-20{fill:url(#Áåçûìÿííûé_ãðàäèåíò_18-2);}.cls-21{fill:#8b1f5f;opacity:0.15;}.cls-22{fill:#80807f;}.cls-23{fill:#e6a97f;}.cls-23,.cls-26,.cls-28,.cls-38{stroke:#933220;}.cls-23,.cls-24,.cls-25,.cls-26,.cls-28,.cls-30,.cls-38{stroke-miterlimit:10;}.cls-23,.cls-28{stroke-width:0.38px;}.cls-24{fill:#7294cc;stroke:#1e5699;}.cls-24,.cls-26,.cls-30{stroke-width:0.5px;}.cls-25{fill:#eb4341;stroke:#a71f24;stroke-width:0.25px;}.cls-26,.cls-28,.cls-38,.cls-40{fill:#fac59b;}.cls-27{fill:#dca07b;}.cls-29{fill:#d59c77;}.cls-30,.cls-37{fill:#592616;}.cls-30{stroke:#3a1911;}.cls-31{fill:#723221;}.cls-32{fill:#dfa57f;}.cls-33{fill:#3a3023;}.cls-34{fill:#fff3e3;}.cls-35{fill:#933220;}.cls-36{fill:#322517;}.cls-38{stroke-width:0.41px;}.cls-39{fill:#cddbeb;}</style><clipPath id="clip-path"><rect class="cls-1" x="0.3" y="0.3" width="1600" height="900"/></clipPath><linearGradient id="Áåçûìÿííûé_ãðàäèåíò_29" x1="745.02" y1="972.77" x2="745.02" y2="306.86" gradientTransform="matrix(-1, 0, 0, 1, 2257.28, 0)" gradientUnits="userSpaceOnUse"><stop offset="0" stop-color="#302c5f"/><stop offset="1" stop-color="#36c2df"/></linearGradient><linearGradient id="Áåçûìÿííûé_ãðàäèåíò_88" x1="850.17" y1="259.12" x2="876.38" y2="259.12" gradientTransform="matrix(-1, 0, 0, 1, 2257.28, 0)" gradientUnits="userSpaceOnUse"><stop offset="0" stop-color="#92949a"/><stop offset="0.57" stop-color="#725870"/><stop offset="1" stop-color="#c19980"/></linearGradient><linearGradient id="Áåçûìÿííûé_ãðàäèåíò_146" x1="856.37" y1="276.85" x2="856.37" y2="260.27" gradientTransform="matrix(-1, 0, 0, 1, 2257.28, 0)" gradientUnits="userSpaceOnUse"><stop offset="0" stop-color="#fad6ac"/><stop offset="0.57" stop-color="#f19065"/><stop offset="1" stop-color="#e7c7c0"/></linearGradient><linearGradient id="Áåçûìÿííûé_ãðàäèåíò_146-2" x1="880.8" y1="261.17" x2="880.8" y2="253.33" xlink:href="#Áåçûìÿííûé_ãðàäèåíò_146"/><linearGradient id="Áåçûìÿííûé_ãðàäèåíò_18" x1="1246.31" y1="271.06" x2="1482.48" y2="271.06" gradientUnits="userSpaceOnUse"><stop offset="0" stop-color="#ee6b68"/><stop offset="1" stop-color="#c42728"/></linearGradient><linearGradient id="Áåçûìÿííûé_ãðàäèåíò_106" x1="714.69" y1="556.9" x2="764.92" y2="556.9" gradientTransform="matrix(-1, 0, 0, 1, 2257.28, 0)" gradientUnits="userSpaceOnUse"><stop offset="0" stop-color="#f1b590"/><stop offset="1" stop-color="#c2a39e"/></linearGradient><linearGradient id="Áåçûìÿííûé_ãðàäèåíò_106-2" x1="828.3" y1="406.52" x2="975.92" y2="406.52" xlink:href="#Áåçûìÿííûé_ãðàäèåíò_106"/><linearGradient id="Áåçûìÿííûé_ãðàäèåíò_18-2" x1="1198.41" y1="379.68" x2="1339.58" y2="379.68" xlink:href="#Áåçûìÿííûé_ãðàäèåíò_18"/></defs><g class="cls-2"><g id="Layer_1" data-name="Layer 1"><g id="b"><g class="cls-3"><g id="b-2" data-name="b"><g id="_005" data-name="005"><ellipse class="cls-4" cx="1260.2" cy="479.8" rx="62" ry="61.9"/><path class="cls-5" d="M1305.9,461.2c9.1,1.7,14.5,10.3,16.1,13.3-.3-2.6-.6-5.1-1.1-7.5-3.1-3.7-7.9-7.8-14.3-9s-12.4.4-19,4.5a113.7,113.7,0,0,0-11.4-13.5c11.3-6.8,21.7-10.6,29.9-10.8q-1.3-1.5-3-3c-8.4.9-18.5,4.9-29.4,11.5-1.8-1.6-3.6-3.2-5.4-4.6s-3.3-2.6-4.9-3.7c4.4-2.6,7.9-5.6,9.7-9.2a14,14,0,0,0,1-9.7l-3.5-.7a11.3,11.3,0,0,1-.4,8.9c-1.7,3.4-5.2,6.2-9.8,8.6a107.6,107.6,0,0,0-26-12.7,34.2,34.2,0,0,0-4.3,2.1h.2c.2,0,12.4,3.1,26.7,12.2-6.8,3.2-15.4,5.7-23.8,8.2-12.7,3.8-24.9,7.5-31.5,13.1a59.3,59.3,0,0,0-2.4,8.5,1.3,1.3,0,0,0,.7-.9c2.5-8.1,18.6-12.9,34.1-17.5,9.3-2.8,18.7-5.6,26.1-9.3l6.2,4.6,4.5,3.8a184.7,184.7,0,0,0-25.3,19.8c-15.8,14.6-32.1,34.4-35.5,48l2.7,3.4c1.1-10.9,15.4-30.9,35-49a183.5,183.5,0,0,1,25.5-19.9,99.3,99.3,0,0,1,11.6,13.5,64.5,64.5,0,0,0-8.9,7.5c-4.5,4.6-8,19.3-11.6,34.9s-7,30.1-11.1,34.6l3.8.3c4.1-6.4,7.2-20,10.5-34.2s6.8-29.4,10.7-33.3a85.4,85.4,0,0,1,8.4-7.2c9.2,13.8,16.3,32.4,17,57l3.1-3.3c-1.2-23.7-8.3-41.9-17.4-55.5C1295.3,461.6,1300.8,460.2,1305.9,461.2Z"/><path class="cls-6" d="M1260.2,417.9a62.7,62.7,0,0,0-9.8.8,61.9,61.9,0,0,1,0,122.2,62.7,62.7,0,0,0,9.8.8,61.9,61.9,0,1,0,0-123.8Z"/></g><g id="_005-2" data-name="005"><polygon class="cls-7" points="1271 390.3 1267.3 176.3 1472 116.7 1472 426.5 1271 390.3"/><polygon class="cls-8" points="1472 306.9 1472 316.2 1476.5 320.6 1482.5 326.4 1492.8 336.4 1542.6 384.7 1507.2 972.8 1532.5 972.8 1552.5 379 1493.2 325.8 1482.5 316.3 1476.4 310.8 1472 306.9"/><polygon class="cls-9" points="1380.9 253.3 1393.8 259.7 1393.8 259.7 1395 260.3 1406.9 266.2 1407.1 257.4 1398.1 252.1 1380.9 253.3"/><polygon class="cls-10" points="1472 316.2 1472 334 1476.6 338.8 1482.5 344.9 1492.4 355.1 1522.8 386.8 1482 958.8 1507.2 972.8 1542.6 384.7 1492.8 336.4 1482.5 326.4 1476.5 320.6 1472 316.2"/><polygon class="cls-11" points="1395 260.3 1394.9 271.4 1406.8 276.9 1406.9 266.2 1395 260.3"/><polygon class="cls-12" points="1359.2 254.9 1372.8 261.2 1393.8 259.7 1380.9 253.3 1380.9 253.3 1359.2 254.9"/><path class="cls-13" d="M1331.7,256.8l27.4-1.9h.1l21.7-1.6h0l12.9,6.4-21,1.5-44.1,3.1Zm75.5-5.3v5.9l-9-5.3Zm-75.5,5.3,27.4-1.9h.1l21.7-1.6h0l17.2-1.2,9.1-.6v5.9l-.2,8.8v10.7l-2,119.3-108.3-19.7-1-29.4h0l-3-87.5Zm-29.6,114.1,91.7,12.1,1.1-111.6V260.3l-1.2-.6h0l-21,1.5-44.1,3.1-30.1,2.1,2.3,67.1Zm29.6-114.1,27.4-1.9h.1l21.7-1.6h0l17.2-1.2,9.1-.6v5.9l-.2,8.8v10.7l-2,119.3-108.3-19.7-1-29.4h0l-3-87.5Zm-29.6,114.1,91.7,12.1,1.1-111.6V260.3l-1.2-.6h0l-21,1.5-44.1,3.1-30.1,2.1,2.3,67.1Zm29.6-114.1,27.4-1.9h.1l21.7-1.6h0l17.2-1.2,9.1-.6v5.9l-.2,8.8v10.7l-2,119.3-108.3-19.7-1-29.4h0l-3-87.5Zm-29.6,114.1,91.7,12.1,1.1-111.6V260.3l-1.2-.6h0l-21,1.5-44.1,3.1-30.1,2.1,2.3,67.1Zm29.6-114.1,27.4-1.9h.1l21.7-1.6h0l17.2-1.2,9.1-.6v5.9l-.2,8.8v10.7l-2,119.3-108.3-19.7-1-29.4h0l-3-87.5Zm-29.6,114.1,91.7,12.1,1.1-111.6V260.3l-1.2-.6h0l-21,1.5-44.1,3.1-30.1,2.1,2.3,67.1Zm29.6-114.1,27.4-1.9h.1l21.7-1.6h0l17.2-1.2,9.1-.6v5.9l-.2,8.8v10.7l-2,119.3-108.3-19.7-1-29.4h0l-3-87.5Zm-29.6,114.1,91.7,12.1,1.1-111.6V260.3l-1.2-.6h0l-21,1.5-44.1,3.1-30.1,2.1,2.3,67.1Zm29.6-114.1,27.4-1.9h.1l21.7-1.6h0l17.2-1.2,9.1-.6v5.9l-.2,8.8v10.7l-2,119.3-108.3-19.7-1-29.4h0l-3-87.5Zm-29.6,114.1,91.7,12.1,1.1-111.6V260.3l-1.2-.6h0l-21,1.5-44.1,3.1-30.1,2.1,2.3,67.1ZM1482.5,98.3V443.8l-232.2-41.9-4-234.8ZM1472,116.7l-38.6,11.2-56.6,16.6-84.6,24.6-4.2,1.2-20.7,6,3.1,182.2.6,31.8,149.7,27,51.3,9.2Zm-65.1,149.5v10.7l-2,119.3-108.3-19.7-1-29.4h0l-3-87.5,39.2-2.7,27.4-1.9h.1l21.7-1.6h0l17.2-1.2,9.1-.6v5.9Zm-13.1-6.5h0l-21,1.5-44.1,3.1-30.1,2.1,2.3,67.1,1.2,37.4,91.7,12.1,1.1-111.6V260.3Zm-62.1-2.9,27.4-1.9h.1l21.7-1.6h0l17.2-1.2,9.1-.6v5.9l-.2,8.8v10.7l-2,119.3-108.3-19.7-1-29.4h0l-3-87.5Zm-29.6,114.1,91.7,12.1,1.1-111.6V260.3l-1.2-.6h0l-21,1.5-44.1,3.1-30.1,2.1,2.3,67.1Zm29.6-114.1,27.4-1.9h.1l21.7-1.6h0l17.2-1.2,9.1-.6v5.9l-.2,8.8v10.7l-2,119.3-108.3-19.7-1-29.4h0l-3-87.5Zm-29.6,114.1,91.7,12.1,1.1-111.6V260.3l-1.2-.6h0l-21,1.5-44.1,3.1-30.1,2.1,2.3,67.1Zm29.6-114.1,27.4-1.9h.1l21.7-1.6h0l17.2-1.2,9.1-.6v5.9l-.2,8.8v10.7l-2,119.3-108.3-19.7-1-29.4h0l-3-87.5Zm-29.6,114.1,91.7,12.1,1.1-111.6V260.3l-1.2-.6h0l-21,1.5-44.1,3.1-30.1,2.1,2.3,67.1Zm29.6-114.1,27.4-1.9h.1l21.7-1.6h0l17.2-1.2,9.1-.6v5.9l-.2,8.8v10.7l-2,119.3-108.3-19.7-1-29.4h0l-3-87.5Zm-29.6,114.1,91.7,12.1,1.1-111.6V260.3l-1.2-.6h0l-21,1.5-44.1,3.1-30.1,2.1,2.3,67.1Zm29.6-114.1,27.4-1.9h.1l21.7-1.6h0l17.2-1.2,9.1-.6v5.9l-.2,8.8v10.7l-2,119.3-108.3-19.7-1-29.4h0l-3-87.5Zm-29.6,114.1,91.7,12.1,1.1-111.6V260.3l-1.2-.6h0l-21,1.5-44.1,3.1-30.1,2.1,2.3,67.1Zm29.6-114.1,27.4-1.9h.1l21.7-1.6h0l17.2-1.2,9.1-.6v5.9l-.2,8.8v10.7l-2,119.3-108.3-19.7-1-29.4h0l-3-87.5Zm-29.6,114.1,91.7,12.1,1.1-111.6V260.3l-1.2-.6h0l-21,1.5-44.1,3.1-30.1,2.1,2.3,67.1Z"/><path class="cls-14" d="M1331.2,255l28.2-2h0l22.3-1.6h0l17.7-1.2,9.3-.7v15.1l-.2,11-2,122.5L1295,377.9l-1-30.2h0l-3-89.9Zm-25,111.2,83.1,11.1,1-101.4.2-10-1.1-.6h0l-19.1,1.4-40,2.8-27.3,1.9,2.1,60.9Z"/><path class="cls-15" d="M1256.8,176.3l3.7,214,139.2,25.1,72.3,13v-1.9l-51.3-9.2-149.7-27c-.9-53.2-3.4-197.6-3.7-214L1472,116.7v-3Z"/><polygon class="cls-15" points="1482.5 98.3 1498.5 98.3 1490.3 443.8 1482.5 443.8 1482.5 98.3"/><polygon class="cls-16" points="1548.4 499.3 1537.8 464.3 1526.8 647 1541.7 698.9 1548.4 499.3"/><polygon class="cls-16" points="1541.1 716.7 1525.2 674 1521.8 730.5 1539 777.4 1541.1 716.7"/><polygon class="cls-17" points="1522.8 386.8 1519 777.4 1542.6 384.7 1492.9 336.4 1492.4 355.2 1522.8 386.8"/><polygon class="cls-16" points="1492.9 333.9 1545.9 383.6 1507.2 972.8 1542.6 384.7 1492.9 336.4 1492.9 333.9"/><polygon class="cls-18" points="1306.3 390 1420.7 408.2 1429 423 1281.4 399.5 1306.3 390"/><polygon class="cls-15" points="1353.6 375.5 1353.6 387.3 1334.1 384.7 1334.1 375.5 1353.6 375.5"/><path class="cls-19" d="M1318.3,456.2l-3.1-5.3c10.2,2.6,11.4,9.8,11.4,12.8,0,7.3-60.2,7.5-67.1,7.5s-67-.2-67-7.5c0-3,3.7-14.8,16.6-15.9l-3.9,3.1-.9.3c-6.1,4.6-8.3,12.7-6.9,12.5,4,1.9,27,4.5,62.1,4.5s58.1-2.6,62.1-4.5c-1.7-.8,2.5-3.8-3.7-7.9"/><path class="cls-19" d="M1329.3,388.6a79.5,79.5,0,0,1-1.2,9.8c-.5,3.3-1.5,6.5-1.5,9.8v4.9a38.7,38.7,0,0,1-.5,4.9c-.5,3.3-1,6.6-1.4,9.8a186.3,186.3,0,0,0-1.4,19.7l-.5,19.7c-.3,13.1-.7,26.2-.4,39.2v2.4l.2,2.2a25.6,25.6,0,0,0,1.1,4.6c.9,3.1,2,6.2,3.1,9.2a194.2,194.2,0,0,0,7.9,18.1.6.6,0,0,1-.4.9.7.7,0,0,1-1-.3h0l-8.5-17.8c-1.4-3-2.8-6-4-9.1a33.9,33.9,0,0,1-1.7-4.8l-.4-2.7v-2.5c-.5-13.3,0-26.4.3-39.5l.5-19.7a185.1,185.1,0,0,0,.1-19.7c-.2-3.3-.4-6.6-.7-9.9a27.9,27.9,0,0,1-.1-5l.4-4.9c.2-3.3-.5-6.6-.8-9.9a81.9,81.9,0,0,1-.3-9.9,5.6,5.6,0,0,1,5.7-5.5,5.7,5.7,0,0,1,5.5,5.8Z"/><path class="cls-19" d="M1213.5,385.3a83.7,83.7,0,0,1-.5,10c-.3,1.7-.7,3.3-.9,5a28.5,28.5,0,0,0-.3,5c-.1,6.7,1,13.6-.7,20.2-.8,3.3-1.2,6.6-1.7,9.9s-.6,6.7-.9,10.1l-1.5,20c-.5,6.7-1,13.4-1.8,20.1l-1.2,10-.7,5a30.4,30.4,0,0,1-1.3,5.2c-2.7,6.5-6.4,12.1-10.2,17.6s-7.5,11.2-11.3,16.7a.7.7,0,0,1-.9.2.6.6,0,0,1-.1-.9h0c3.8-5.5,7.5-11.1,10.9-16.8,1.7-2.9,3.3-5.9,4.8-8.8a65.8,65.8,0,0,0,4.1-9c1-2.9,1.1-6.2,1.5-9.5l.8-10,1.6-20.1c.6-6.6,1.2-13.3,1.6-20,.2-3.4.5-6.7.6-10.1s0-6.7-.3-10.1c-.8-6.7,1.3-13.3,2.1-20a40.7,40.7,0,0,0,.3-5c0-1.7-.2-3.4-.2-5.1a84.2,84.2,0,0,1,.8-10,2.7,2.7,0,0,1,3.1-2.2A2.8,2.8,0,0,1,1213.5,385.3Z"/><path class="cls-19" d="M1303.4,388.3c-.8,3.2-1.7,6.5-2.6,9.7s-2.1,6.4-2.4,9.8c-.1,1.7-.2,3.4-.4,5a38.9,38.9,0,0,1-1.2,4.9c-.8,3.3-1.9,6.5-2.8,9.7a150.3,150.3,0,0,0-4.2,19.7l-3.3,19.8c-2.2,13.3-4.2,26.6-6.1,39.7-1,6.4-1,13.1-1,19.8a121.8,121.8,0,0,0,1.7,20h0a.7.7,0,1,1-1.4.2h0c-1-6.7-1.7-13.3-2.6-20s-1.5-13.5-.9-20.4c1.1-13.6,3.5-26.8,5.8-40l3.6-19.8a192.4,192.4,0,0,0,2.8-20c.3-3.4.5-6.7.8-10.1.2-1.7.4-3.3.7-5s.9-3.2,1.4-4.8a43,43,0,0,0,1.3-10.1l1.2-10a5,5,0,0,1,5.5-4.2,4.9,4.9,0,0,1,4.2,5.5C1303.5,387.9,1303.4,388.1,1303.4,388.3Z"/><path class="cls-19" d="M1245.6,386.1c.4,3.3.6,6.5.7,9.8a63.8,63.8,0,0,0,.3,9.8,91.2,91.2,0,0,1,1.1,19.5,142.2,142.2,0,0,0,.5,19.6l1.3,19.6c.9,13,1.5,26,2.1,39.1a81.5,81.5,0,0,1-1,19.7c-1,6.5-2.2,12.9-3.6,19.4a.7.7,0,0,1-.8.5.8.8,0,0,1-.6-.8h0c3.1-12.6,3.3-25.8,3-38.6s-1.6-26-2.3-39l-1.2-19.6a140.5,140.5,0,0,0-2.2-19.4,91.6,91.6,0,0,1-1.5-19.5,81.6,81.6,0,0,0-1.1-9.8c-.3-3.2-.6-6.5-.7-9.7a3,3,0,0,1,2.9-3.2A3,3,0,0,1,1245.6,386.1Z"/><path class="cls-19" d="M1201.5,423a1.9,1.9,0,0,0-.7-1.5c-.2-.1-.1,0,0,0l1.2.5,3.4.9c2.3.5,4.8.9,7.3,1.2,5.1.7,10.2,1.3,15.3,1.7s10.3.8,15.5.9,10.3-.2,15.5-.2c10.3,0,20.6-.2,30.9-1.2,5.1-.6,10.2-.9,15.2-1.2,2.6-.2,5.1-.6,7.5-1l3.4-.9a3.3,3.3,0,0,0,1.2-.5c.1,0,.3-.1.1-.1a1.9,1.9,0,0,0-.6,1.4,2.3,2.3,0,0,0,.6,1.5c.1.1-.1,0-.1,0l-1.3-.4-3.5-.5c-2.4-.3-4.9-.3-7.4-.5-5.1-.3-10.2-.5-15.2-1.1-10.2-1.1-20.6-.9-30.8-1.4a227.3,227.3,0,0,0-30.9.3c-5.2.4-10.2,1.1-15.2,1.8l-7.4,1-3.4.6-1.2.4c-.1,0-.3.1-.1-.1A2,2,0,0,0,1201.5,423Zm-7.3,0a4.2,4.2,0,0,1,1.6-3l1.5-1,2.4-1,4.1-1.1,8-1.2c5.3-.5,10.6-.5,15.8-.8,10.5-.3,20.9-.7,31.4-1.3s20.9.2,31.4.2a106.8,106.8,0,0,1,15.8,1.5,73.1,73.1,0,0,1,7.8,1.8,31.7,31.7,0,0,1,4.1,1.2,10.9,10.9,0,0,1,2.3.9l1.5,1a3.6,3.6,0,0,1,1.5,2.8,3.9,3.9,0,0,1-1.5,2.9,14.7,14.7,0,0,1-1.5.9l-2.4.8a30.1,30.1,0,0,1-4.1.9l-7.9,1.2a103.9,103.9,0,0,1-15.7,1.3c-10.5.2-20.9.5-31.3.5-5.3,0-10.5-.4-15.7-.6l-15.6-.4c-5.3-.2-10.5-.4-15.8-.9l-8-.9-4.1-.9-2.4-.8a5.6,5.6,0,0,1-1.5-1A3.6,3.6,0,0,1,1194.2,423Z"/><path class="cls-19" d="M1204.1,506.2c-1.3.2-10.3.1-11.2.3s-1.5.8-1.4.5.3.3,1.3.5l3.4.9c2.5.5,5.2.8,8,1.1,5.5.6,11.1.9,16.8,1.2,11.4.4,22.8.5,34.2.5,19.4-.1,30.8-.8,34.1-1,5.6-.3,11.2-.6,16.7-1.2,2.7-.3,5.4-.6,7.8-1.1l3.3-.7c.9-.3,1.1-.7.9-.2l3.9-2.5a12.3,12.3,0,0,1,2.6,1.2,2.8,2.8,0,0,1,.7,1.3,2.4,2.4,0,0,1-.7,1.3,3.8,3.8,0,0,1-1.2.9,15.4,15.4,0,0,1-2.4,1,43.5,43.5,0,0,1-4.6,1.1c-2.9.5-5.8.9-8.8,1.2q-8.7,1.1-17.4,1.5c-11.6.6-23.3.8-34.9.8s-23.3-.4-34.8-1.3c-5.8-.4-11.6-.8-17.3-1.5a86.6,86.6,0,0,1-8.7-1.2,34.8,34.8,0,0,1-4.4-1,10.9,10.9,0,0,1-2.3-.9c-.3-.3-.7-.4-1-.8a2.4,2.4,0,0,1-.6-1.1,4.1,4.1,0,0,1,.6-1.1l1-.7a7.3,7.3,0,0,1,2.3-.9c1.5-.5,10.3-1.8,11.7-2Z"/><polygon class="cls-20" points="1339.6 372.9 1336.9 390 1201.8 384.8 1198.4 369.4 1339.6 372.9"/><polygon class="cls-16" points="1239.6 372.4 1239.6 383.6 1205.2 382 1202.1 372.4 1239.6 372.4"/><polygon class="cls-16" points="1246.3 372.4 1267.3 372.4 1265.2 383.6 1246.4 383.6 1246.3 372.4"/><polygon class="cls-16" points="1292.5 259.5 1295.5 347 1300.9 333.5 1298.6 266.4 1328.7 264.3 1331.7 256.8 1292.5 259.5"/><polygon class="cls-21" points="1467.6 122.6 1464.5 419.1 1343.8 400.1 1443.8 409.3 1435.5 134.8 1467.6 122.6"/><polygon class="cls-16" points="1319.3 154.7 1312.1 149.5 1249.2 168.3 1256.8 172.7 1319.3 154.7"/><polygon class="cls-16" points="1322.2 154 1315.4 148.7 1339.1 142 1344.7 147.8 1322.2 154"/></g><path class="cls-22" d="M1422,525.9a74.5,74.5,0,0,1-18.3-15.3,80.7,80.7,0,0,1-12.9-20.2A76.2,76.2,0,0,1,1387,479a79.9,79.9,0,0,1-2-11.9c-.1-2-.3-4-.3-6v-7.5l.2-1.5.3-2.9c.2-2,.6-4,.9-5.9a94.8,94.8,0,0,0-.5,23.8,76.8,76.8,0,0,0,6,22.9,75.1,75.1,0,0,0,5.5,10.5,90.3,90.3,0,0,0,7,9.6,74,74,0,0,0,8.3,8.5A65.8,65.8,0,0,0,1422,525.9Z"/><path class="cls-22" d="M1394.5,564.7a78,78,0,0,1-7.7-5q-3.7-2.7-7.2-5.7a114.9,114.9,0,0,1-13.1-13,113.3,113.3,0,0,1-11.1-14.7,126.8,126.8,0,0,1-8.6-16.3,109.1,109.1,0,0,1-5.9-17.5,111.6,111.6,0,0,1-3.1-18.2c-.3-3-.5-6.1-.5-9.2,0-1.5-.1-3,0-4.6v-6.9l.3-2.3.4-4.6c.4-3,.9-6,1.4-9a149.5,149.5,0,0,0-1.1,36.6,138.8,138.8,0,0,0,3.3,18,106.9,106.9,0,0,0,5.9,17.3,124.9,124.9,0,0,0,8.5,16.2,121.6,121.6,0,0,0,10.9,14.7,113.1,113.1,0,0,0,12.8,13.1A98.6,98.6,0,0,0,1394.5,564.7Z"/><path class="cls-22" d="M1126.6,463.1a57.5,57.5,0,0,0,12.8-6.4,58.9,58.9,0,0,0,5.5-4.4,47.9,47.9,0,0,0,4.9-5.2,49,49,0,0,0,7.2-12.3,63.8,63.8,0,0,0,3.7-13.8c-.1,1.2-.2,2.4-.4,3.6s-.3,2.4-.6,3.6a25.8,25.8,0,0,1-.9,3.5c-.3,1.1-.7,2.3-1.1,3.4a39.3,39.3,0,0,1-3,6.6,48.9,48.9,0,0,1-4.1,6,44.9,44.9,0,0,1-10.8,9.6A43.2,43.2,0,0,1,1126.6,463.1Z"/><path class="cls-22" d="M1136.3,490.1a64.4,64.4,0,0,0,10.2-4.2,81,81,0,0,0,9.5-5.5,95.2,95.2,0,0,0,8.6-6.8,74.2,74.2,0,0,0,18.6-26.9,88.4,88.4,0,0,0,5.4-21.4c-.2,1.9-.3,3.7-.6,5.5l-.4,2.8-.3,1.3-.3,1.4-.6,2.7c-.2.9-.5,1.8-.7,2.7s-1.2,3.5-1.8,5.2a61.8,61.8,0,0,1-4.7,10.1,69.9,69.9,0,0,1-22.8,24A68.8,68.8,0,0,1,1136.3,490.1Z"/><g id="_005-3" data-name="005"><path class="cls-23" d="M330.7,1021.5s-41.1-70.9-50.4-96.2-33.8-143.5-33.8-143.5,9.4-30.6,24.2-23S330.7,1021.5,330.7,1021.5Z"/><path class="cls-24" d="M293,900l-8.4,2.7a405.1,405.1,0,0,1-51.4,4.5c-34,.7-79.9,18.4-71.4-4.9,16.6-45.5,29.5-123.1,50-149,11.7-14.8,19.2-22.9,23.9-27.3a27.7,27.7,0,0,1,5.5-4.3c1.7-.9,2.2-.5,2.2,0l19.7,6.9,7.5,5.2,3.7,3.6s1,11.6,9.9,31.2c5.1,11.1,8.4,25.2,9,42.1C294.2,841.2,278.1,860.5,293,900Z"/><path class="cls-25" d="M276.6,748.2a171.6,171.6,0,0,0-22-10.2c-15.6-5.7-16.1-7.2-19.6-13.1a32.8,32.8,0,0,1,5.9-4.4l33.2,18Z"/><path class="cls-26" d="M301.1,709.2c-2.1.2-4.5.3-7.1.3-7.2,4-13.8,6.7-15.6,11.2s-4.3,17.8-4.3,17.8c-18.1.4-26.8-8.2-30.7-14.3s1-3.4,3.9-7.8a7.5,7.5,0,0,0,.7-1.2,26.2,26.2,0,0,0-2.5-28C290.7,665.9,339,705.1,301.1,709.2Z"/><path class="cls-27" d="M301.1,709.2c-2.1.2-4.5.3-7.1.3-7.2,4-22.8,24-26.2,27.5-23.9-7.8-25.3-15-25.5-15.1s14.4-13.2,8.1-24l24.8.7c5.2.2,10.5.3,15.4,2S299.1,705.1,301.1,709.2Z"/><path class="cls-28" d="M338,673.5c.5,3.1,2.9,7.1,5.2,9.4a2.4,2.4,0,0,1-.9,3.9,68.4,68.4,0,0,1-8.1,1.9c2.3,1.7,4.8,3.6,5.3,6.4s-2.3,6.2-4.8,4.9c0,5.6-3,10.8-6.8,14.8-10.8,11.4-27.6,15.4-43.3,14.6-13.3-.6-40-12.3-44.4-15.7-.5-.4-.7-.6-.7-.8a54.6,54.6,0,0,0-8.2,1c-7.5,1.3-21.7-2.6-38.3-25.2C150.7,631,146.2,579,204.8,552.2c28-12.9,50.8-9.8,68-1,18.8,9.7,30.8,26.4,35.6,37,2.6,5.6,8.3,4.5,10,10.4,3.9,13.6,2.5,34.5,7.1,48,1.5,4.5,4.4,9.5,9.1,9.7s7.2-3.9,11.3-1.4S342.3,670.8,338,673.5Z"/><path class="cls-29" d="M314.6,605.5l-1.5-.9c-4.9-2.9-10-5.6-15-8.4l-8.6-5.1c-1.7-1.1-7.2-3.4-8.1-5.2a95.7,95.7,0,0,1,7.8,25.4c-1.8-.9-3.5-2.1-5.2-3.1-14.7-8.9-32.2-12-49.4-12.9A35.1,35.1,0,0,1,252,617.2a35.4,35.4,0,0,1-4.2,27.7c-1.8,2.8-4.2,5.5-7.4,6.2a13.9,13.9,0,0,1-7-.7c-8.7-2.8-16.7-8.2-21-16.1-2.8-5.2-3.8-11.2-4.9-17s-2.1-12.7-3.2-19c-.6-3.6-1.2-7.5.6-10.6s3.2-3.6,5-5.2c5.4-4.5,9.4-10.6,14.8-15.2,9.4-8.3,22.1-11.7,34.4-14.1,4.5-.8,9.1-1.6,13.7-2,18.8,9.7,30.8,26.4,35.6,37A108.2,108.2,0,0,1,314.6,605.5Z"/><path class="cls-30" d="M323,613.8c-2.6-10.1-11.1-17.3-19.4-23.6a349,349,0,0,0-52.5-32.3c12,12.3,24.6,25.3,29,42a77,77,0,0,0-58.6-8.2c5.5.8,10,5,13.4,9.5,13.8,18.3,18.4,39.1,10.7,56.2-1-3.2-17.4-12.4-19.9-14.6,1,2,8.4,23.6,8.8,25.8-8.1-4.1-17.7-10.6-26.8-10.1-3.9.3-8.4,1.3-10.3,4.9-1.1,2-1,4.5-.7,6.8,1.1,8.8,1,11.5,4.8,19.5,2.9,6,6.8,12.2,13,16.6s19.9,8.4,24.8,6c.6,1-27,7.9-59.2-16.8h0A120.1,120.1,0,0,1,162.6,679c-49.3-55.3-4.6-104-4.6-104,49.7-83.9,133.7-35.3,133.7-35.3,24,13.9,31.8,32.5,33.6,47.6h0A63.9,63.9,0,0,1,323,613.8Z"/><path class="cls-31" d="M326.8,589.5c-5-16.7-17.3-30.9-32.3-39.9s-35.7-13.6-54.7-13.9a71.4,71.4,0,0,0-19.6,2c-8.8,2.4-16.7,7.3-24.2,12.6a233.9,233.9,0,0,0-25.1,20.5,208.6,208.6,0,0,1,24.7-4.1,82.6,82.6,0,0,0-37.2,28.2,14.7,14.7,0,0,1,16,.9c-9.6-1-18.8,5.7-22.9,14.4s-4.2,18.7-2.8,28.2a99.7,99.7,0,0,0,32.9,59.2,124.7,124.7,0,0,1-17.5-16.4c-49.3-55.3-4.6-104-4.6-104,49.7-83.9,133.7-35.3,133.7-35.3C317.2,555.8,324.9,574.4,326.8,589.5Z"/><path class="cls-32" d="M217.1,695a23.5,23.5,0,0,0,13.4,10c2.3.6,5.4.3,6.2-1.9s-1.6-4.7-4-5.5-7.2-1.5-7.3-4.7,3.2-2.8,5.1-4.1c5.6-3.8,5.7-9.3.2-13.4-3.7-2.8-16.1-7.7-19.8-3.3S214.3,690.9,217.1,695Z"/><path class="cls-33" d="M283.8,651s-2.1-18.8,13.9-27.1a8.2,8.2,0,0,1,9.5,1.4c2.7,2.7,5.4,7.9,6.9,17.9C317.5,666.4,297.8,665.5,283.8,651Z"/><path class="cls-34" d="M285.3,652.2s-2.2-18.5,13.2-26.6a7.9,7.9,0,0,1,9.3,1.4c2.5,2.7,5.2,7.8,6.7,17.7C317.9,667.5,298.9,666.5,285.3,652.2Z"/><path class="cls-35" d="M285.3,652.2a32.4,32.4,0,0,1,1.6-13.1,28.1,28.1,0,0,1,3-6,23.7,23.7,0,0,1,4.6-4.9l1.3-1,1.4-.9,1.4-.9,1.6-.5a7.9,7.9,0,0,1,6.5,1.1,10,10,0,0,1,2.3,2.3,22.9,22.9,0,0,1,1.8,2.9,33.8,33.8,0,0,1,2.3,6.3c.6,2.1,1,4.3,1.4,6.5a50.4,50.4,0,0,1,.5,6.7,16.3,16.3,0,0,1-1.5,6.5,8.8,8.8,0,0,1-4.7,4.6,9.3,9.3,0,0,1-3.3.7,18.2,18.2,0,0,1-3.3-.1,22.3,22.3,0,0,1-6.3-2.1A36.5,36.5,0,0,1,285.3,652.2Zm0,0a38,38,0,0,0,10.6,8,23.1,23.1,0,0,0,6.3,2,12.2,12.2,0,0,0,3.3.2,11.6,11.6,0,0,0,3.2-.8,8.5,8.5,0,0,0,4.6-4.5,14.2,14.2,0,0,0,1.4-6.4,29.4,29.4,0,0,0-.5-6.6c-.3-2.2-.8-4.4-1.3-6.6a46.2,46.2,0,0,0-2.3-6.2,26.1,26.1,0,0,0-1.7-2.8,10.5,10.5,0,0,0-2.3-2.4,8.2,8.2,0,0,0-6.3-1.1l-1.6.6-1.4.9-1.4.8-1.3,1.1a23.3,23.3,0,0,0-4.6,4.8,32.3,32.3,0,0,0-2.9,5.9A30.9,30.9,0,0,0,285.3,652.2Z"/><ellipse class="cls-36" cx="306.3" cy="640.3" rx="7.7" ry="10.8" transform="translate(-104.5 61.4) rotate(-9.8)"/><circle class="cls-34" cx="300.9" cy="636.7" r="3" transform="matrix(0.22, -0.97, 0.97, 0.22, -386.97, 787.9)"/><path class="cls-35" d="M311.7,680.8a30.9,30.9,0,0,0,4.8,4,24.4,24.4,0,0,0,5.7,2.6,15.7,15.7,0,0,0,3.1.8l3.1.3a22.7,22.7,0,0,0,6.3-.8,21.8,21.8,0,0,1-6.3.9,17.7,17.7,0,0,1-3.2-.2l-3.1-.7a25.1,25.1,0,0,1-5.8-2.6,23.8,23.8,0,0,1-5-4Z"/><path class="cls-37" d="M281.2,617.5s3.4-16.9,19.6-9.2C300.8,608.3,292.7,606.1,281.2,617.5Z"/><path class="cls-38" d="M314.9,643.4s-1.8-1.1-30.1,7.9c0,0-.1-23.2,17.6-26.6C307.2,623.8,313.1,629.6,314.9,643.4Z"/><path class="cls-39" d="M282.4,819.1a129.2,129.2,0,0,1-23,33.1,91.3,91.3,0,0,0,34.3-35.7l-5,36.3c-.7,5-1.5,10.3-4.3,14.6l-.2-23.8c-4.8,13.9-18.5,22.5-31.7,29-7.5,3.6-15.2,6.9-23,9.8a169.2,169.2,0,0,0,32.2-29.9c-5,6-24.8,12.9-32.1,11.7,16.4-12.1,19.8-16.1,26.2-20.7C266.9,835.5,272.6,828.8,282.4,819.1Z"/><path class="cls-25" d="M281.7,784.7c0,26.3-17,51-32.7,51s-29.9-12-29.9-38.3,18.4-55,34.1-55S281.7,758.3,281.7,784.7Z"/><path class="cls-28" d="M278.8,778.8c0,24.5-14.7,47.5-28.4,47.5s-25.9-11.1-25.9-35.6,16-51.2,29.7-51.2S278.8,754.3,278.8,778.8Z"/><path class="cls-40" d="M258.3,796.8c0,1,3.3,14.3,3.3,14.3S220,824.4,225.7,786,258.3,796.8,258.3,796.8Z"/><path class="cls-28" d="M273.3,753.4s14.2,15.9,6.3,47.3c0,0,13.1,102.7,20.4,115.3s11.2,35.2,12,69.6,6.5,95.1,4.8,98.6c0,0-15.6,10.7-20.9,5.7s-12.5-60.7-22.2-96.2-16.8-73.3-24.3-100.2a655.5,655.5,0,0,1-18.3-83.7c-1.5-9.2-7.9-22-3.3-40.3"/></g></g></g></g></g></g></svg>