<svg id="Layer_1" data-name="Layer 1" xmlns="http://www.w3.org/2000/svg" width="140" height="110" viewBox="0 0 140 110">
  <defs>
    <style>
      .cls-1 {
        fill: #d0e8ec;
        opacity: 0.4;
      }

      .cls-2, .cls-4 {
        fill: #ffeb8a;
      }

      .cls-2 {
        stroke: #c4b716;
      }

      .cls-11, .cls-2, .cls-3 {
        stroke-miterlimit: 10;
      }

      .cls-3 {
        fill: #ffe400;
      }

      .cls-11, .cls-3 {
        stroke: #938c09;
      }

      .cls-5 {
        fill: #c4b716;
      }

      .cls-6 {
        fill: #231f20;
      }

      .cls-7 {
        fill: #d82e2a;
      }

      .cls-8 {
        fill: #b22424;
      }

      .cls-9 {
        fill: #ef4136;
      }

      .cls-10 {
        fill: #ceb500;
      }

      .cls-11 {
        fill: #ffeb57;
      }
    </style>
  </defs>
  <path class="cls-1" d="M66.56,88.27c-5.18,1.26-32.18,14.58,51.6,10.88C85.12,103.23,20.65,98.82,66.56,88.27Z"/>
  <g>
    <path class="cls-2" d="M117.68,56.59c1.07-1.09,2.81-1.34,4.55-1.59,5.62-1.79,9.31-3.71,13.6-8.1-.72,4.54-2.4,9-5.91,12.2,1-.84,2.82-1.35,3.79-2.18-.12,2.95-2.36,5.41-4.6,7a6.29,6.29,0,0,0,1.36-1c-.61,4.27-6.53,6.85-10,8.24,0-3.59,2.9-11.22-.85-13.53Z"/>
    <path class="cls-3" d="M114.94,51.32a46.74,46.74,0,0,0-29.19-8.06c-7.46.43-14.38,3.37-21.7,4.34A11.53,11.53,0,0,1,62.12,45a31.5,31.5,0,0,1-1.86-5.36C59,35,59.12,29.73,56.68,25.42A24.86,24.86,0,0,0,42.59,14.5a33.64,33.64,0,0,0-14.91-.81c-6.37,1-9.53,3.79-13.34,8.47-2.8,3.45-3.83,7.62-4.94,11.8-.84,3.11-2.1,7-4,9.64-1.06,1.5-1.86,1.86-1.28,3.77a14.89,14.89,0,0,0,2.64,4.52,34.08,34.08,0,0,0,8.75,7.43C22.86,64,29.07,66,36.35,65.91c2.19,4.29,8.49,9.85,10.89,12.26C61.1,89.89,88.38,98.09,105.42,91.1a28.61,28.61,0,0,0,16.25-16.19C124.94,66.23,123.52,57.4,114.94,51.32Z"/>
    <g>
      <path class="cls-4" d="M34,13.44C30.3,9.78,24.44,10,21.22,5.37c-.66,2.24,1.42,4.45,3.23,5.93A16,16,0,0,1,21.53,10c0,1.19,1.34,2.25,2.5,3.12a6.31,6.31,0,0,1-3-.84c2.32,7.29,8.54,3,13.73,3.69Z"/>
      <path class="cls-5" d="M34,13.44a13.47,13.47,0,0,0-3.2-2c-1.15-.53-2.35-.94-3.54-1.42a21.57,21.57,0,0,1-3.49-1.69,10.32,10.32,0,0,1-2.91-2.68l.76-.12a3.55,3.55,0,0,0,.73,3,12.31,12.31,0,0,0,2.39,2.45l2,1.62-2.44-.8a16.75,16.75,0,0,1-3-1.35L22,10a2.4,2.4,0,0,0,.79,1.46,12.73,12.73,0,0,0,1.5,1.3l1.16.88-1.45,0a6.87,6.87,0,0,1-3.2-.93l.65-.53a6.59,6.59,0,0,0,1.91,3.11,5.21,5.21,0,0,0,3.48,1c2.58-.06,5.24-.85,7.93-.39l-.12.14Zm0,0,.87,2.45.06.16h-.18a14.27,14.27,0,0,0-3.91.27,38.91,38.91,0,0,1-4,.57,6,6,0,0,1-4-1,7.41,7.41,0,0,1-2.26-3.51l-.39-1.1,1,.58a6,6,0,0,0,2.78.76l-.3.85a12.87,12.87,0,0,1-1.63-1.37,4.62,4.62,0,0,1-.71-.91A2.5,2.5,0,0,1,21,10l0-.88.77.44a16.15,16.15,0,0,0,2.83,1.32l-.45.82A13.21,13.21,0,0,1,21.61,9a5.71,5.71,0,0,1-.81-1.75,3.64,3.64,0,0,1,0-2l.26-.85.5.72a10,10,0,0,0,2.6,2.58,21,21,0,0,0,3.31,1.78c1.16.51,2.34,1,3.47,1.65A11.74,11.74,0,0,1,34,13.44Z"/>
    </g>
    <path class="cls-6" d="M32.1,40.73a5.16,5.16,0,0,1-.16,1.71c-.44,1.67-1.55,2.8-2.48,2.55s-1.33-1.83-.89-3.5c0-.14.09-.28.14-.41Z"/>
    <path class="cls-6" d="M12,37.33c0,.11,0,.22,0,.33-.13,1.66-1,2.92-1.89,2.81s-1.56-1.55-1.44-3.22a4.69,4.69,0,0,1,.53-1.86Z"/>
    <path class="cls-7" d="M28.17,49.08c-.91,3.3-8.73,5.67-11.76,7.61-8.24,6.13-8-8.59-4.79-12.71,5.49,2.06,11.06,3,16.55,5.1Z"/>
    <path class="cls-8" d="M22.43,48.76c-1.72,2.85-6.22,3.15-8.65,5.43-.11-2.25.1-4.52.2-6.72,3,.67,5.26,1.83,8.33,1.36Z"/>
    <path class="cls-9" d="M4.86,39.75c1.28-2.53,3.28,0,5.89.11,3-.07,5.14-2.27,7.94-1.82,3.76.33,6.39,2.94,6.1,6.06,4.1,2.43,5.95,6.18-.89,6.41C20.61,50.47,1.82,45.21,4.86,39.75Z"/>
    <path class="cls-10" d="M62.18,45.86S82.26,59.58,44.29,65C44.29,65,63.7,59.61,62.18,45.86Z"/>
  </g>
  <path class="cls-11" d="M77,49.65s-3.76,24.79,24,34.56c0,0-9-8.27-10.52-12.78,0,0,5.26,7.52,17.28,9,0,0-6-3.76-7.51-7.51,0,0,5.26,4.51,9.77,3.75,0,0-12.78-14.27-10.52-27C99.51,49.65,79.22,42.13,77,49.65Z"/>
</svg>
